<svg width="108" height="194" viewBox="0 0 108 194" fill="none" xmlns="http://www.w3.org/2000/svg">
<path d="M86.715 187.069C87.3257 189.168 87.064 191.005 86.8023 193.103C85.5809 193.191 84.7085 193.366 83.7489 193.366C58.6245 193.803 25.3871 193.541 21.2869 192.928C20.7635 191.092 20.938 189.256 21.1997 187.244C23.2061 186.632 25.2126 186.72 27.1318 186.894C31.9299 187.332 35.8556 185.495 39.5195 182.784C43.2708 180.073 46.3241 176.576 49.0284 172.815C50.337 171.066 50.9477 169.142 50.8604 166.956C50.7732 161.884 50.8604 156.899 50.8604 151.827C50.8604 142.558 50.7732 133.376 50.9477 124.106C51.0349 120.346 49.7263 117.547 46.673 115.536C44.2304 113.875 41.7877 112.3 39.2578 110.901C35.5066 108.715 31.6682 106.704 27.917 104.517C22.8572 101.544 18.0591 98.1337 13.8717 94.0236C4.88627 85.2787 0.611631 74.5225 0.0882059 62.1047C-0.347981 51.7857 1.48401 41.8165 4.62455 32.0222C7.67787 22.6652 11.8653 13.9203 17.0995 5.52518C17.7102 4.56324 18.3208 3.68875 18.9315 2.72681C19.8911 1.15273 21.2869 0.365686 23.1189 0.540584C23.8168 0.628033 24.5147 0.540584 25.2126 0.540584C44.3176 0.540584 63.4226 0.540584 82.5276 0.540584C87.5874 0.540584 87.5874 0.540584 90.2917 4.73814C98.0559 16.981 103.814 30.0984 106.518 44.44C108.001 52.4853 108.437 60.5306 107.216 68.6634C105.471 80.1192 99.9751 89.3888 91.2514 96.822C86.9767 100.495 82.2659 103.468 77.3806 106.179C73.4549 108.365 69.5292 110.464 65.6908 112.738C63.8588 113.787 62.2013 115.011 60.5438 116.323C58.3628 118.072 57.0543 120.346 57.2287 123.232C57.2287 123.756 57.2287 124.368 57.2287 124.893C57.2287 138.71 57.316 152.614 57.1415 166.431C57.1415 169.142 57.8394 171.329 59.4097 173.427C62.6375 177.712 66.2142 181.56 70.8378 184.358C73.6294 186.02 76.5955 187.157 79.9105 186.894C82.1787 186.72 84.3596 186.632 86.715 187.069ZM100.586 50.9987C100.15 50.8238 99.8006 50.6489 99.3644 50.6489C69.2675 50.6489 39.0834 50.5614 8.98643 50.6489C8.463 50.6489 7.93958 50.9112 7.15444 51.0861C6.97997 52.1355 6.71825 53.3598 6.63102 54.5841C6.54378 57.3825 6.3693 60.1808 6.63102 62.9792C7.32892 73.2982 11.0801 82.218 18.5825 89.4763C23.2934 94.1111 28.7893 97.609 34.547 100.845C41.1771 104.605 48.2433 107.753 54.0882 113.262C59.8459 107.753 66.9121 104.692 73.5422 100.845C75.3741 99.7952 77.2061 98.8333 78.9509 97.609C81.8297 95.5977 84.7085 93.6738 87.3257 91.4001C93.0833 86.503 97.2707 80.469 99.5389 73.2107C101.72 66.3023 101.807 59.2189 101.109 52.0481C101.022 51.6983 100.76 51.3485 100.586 50.9987ZM8.81195 43.5655C10.3822 44.3526 12.0397 44.0028 13.6973 44.0028C40.4792 44.0028 67.2611 44.0028 94.043 44.0028C95.0026 44.0028 95.9622 44.0902 97.009 44.0028C97.7942 43.9153 98.5793 43.7404 99.7134 43.4781C96.6601 30.2733 91.4258 18.3802 84.3596 7.53651C83.7489 7.36161 83.4872 7.18671 83.2255 7.18671C82.0042 7.09926 80.6956 7.09926 79.4743 7.09926C61.1544 7.09926 42.9218 7.18671 24.6019 7.18671C24.5147 7.18671 24.3402 7.27416 24.253 7.36161C24.1657 7.44906 23.9913 7.53651 23.904 7.53651C17.0123 16.8061 8.98643 36.1323 8.81195 43.5655ZM61.9396 186.282C59.148 183.134 56.6181 180.423 54.001 177.537C51.4711 180.336 49.0284 182.959 46.673 185.583C46.5858 185.758 46.673 186.107 46.673 186.37C49.8136 186.982 57.5777 186.982 61.9396 186.282Z" fill="#F0F0F0"/>
</svg>
