<svg width="73" height="42" viewBox="0 0 73 42" fill="none" xmlns="http://www.w3.org/2000/svg">
<circle cx="12.4998" cy="36.167" r="5.5" fill="#C7E0BB"/>
<circle cx="56.4998" cy="36.167" r="5.5" fill="#C7E0BB"/>
<path d="M57.487 40.4456C55.7365 40.4456 54.1578 39.7704 53.0373 38.5436C52.2176 37.6456 51.7128 36.5178 51.5768 35.284L51.5338 34.9057H20.7801L20.6906 35.2133C20.2789 36.6592 19.3661 37.985 18.1167 38.9431C16.8567 39.9118 15.3317 40.4456 13.821 40.4456C12.0741 40.4456 10.4918 39.7704 9.37495 38.5436C8.55518 37.6421 8.05044 36.5178 7.91799 35.284L7.87861 34.9057H2.84904C2.02927 34.9057 1.25605 34.5698 0.722661 33.9865C0.185696 33.3961 -0.0720466 32.5971 0.0174475 31.784L0.901649 23.4794L2.81324 5.50564L3.02803 3.47634C3.20344 1.82886 4.64966 0.541992 6.31783 0.541992H47.9004C48.7201 0.541992 49.4934 0.877851 50.0267 1.45765C50.5637 2.04452 50.8179 2.84705 50.732 3.66018L50.1986 8.68393H59.42C60.8878 8.68393 62.6991 9.46171 63.6334 10.4976L70.6068 18.194C71.5411 19.2264 72.1282 21.093 71.9779 22.5355L70.9719 31.9678C70.7965 33.6153 69.3539 34.9022 67.6857 34.9022H64.4425L64.353 35.2133C63.9413 36.6592 63.0285 37.985 61.7827 38.9431C60.5226 39.9118 58.9976 40.4456 57.487 40.4456ZM58.6647 29.3587C56.6278 29.3587 54.6661 30.6385 53.7891 32.5405C53.5528 33.0567 53.406 33.5835 53.3488 34.1102C53.3022 34.5416 53.3201 34.9764 53.3953 35.3971C53.5349 36.1395 53.8678 36.8183 54.3618 37.3592C55.1422 38.2113 56.2484 38.6815 57.487 38.6815C59.5274 38.6815 61.4856 37.4017 62.3626 35.4996C62.5989 34.9835 62.7456 34.4532 62.8029 33.9264C62.8495 33.4951 62.8351 33.0602 62.7564 32.6395C62.6168 31.8971 62.2839 31.2183 61.7898 30.6774C61.0095 29.8289 59.9033 29.3587 58.6647 29.3587ZM15.0059 29.3587C12.969 29.3587 11.0073 30.6385 10.1303 32.5405C9.89402 33.0532 9.74725 33.5835 9.68997 34.1102C9.64343 34.5451 9.65775 34.9764 9.73651 35.3971C9.87254 36.1395 10.209 36.8148 10.6995 37.3557C11.4763 38.2077 12.586 38.6779 13.8246 38.6779C15.8651 38.6779 17.8232 37.3981 18.7002 35.4961C18.9365 34.9835 19.0868 34.4532 19.1405 33.9229C19.1871 33.4916 19.1728 33.0567 19.094 32.636C18.958 31.8936 18.6215 31.2148 18.1275 30.6739C17.3507 29.8289 16.2409 29.3587 15.0059 29.3587ZM58.6647 27.6016C60.4116 27.6016 61.9939 28.2769 63.1108 29.5037C63.9305 30.4016 64.4353 31.5294 64.5713 32.7633L64.6143 33.1416H67.6821C68.4267 33.1416 69.1212 32.5193 69.1964 31.784L70.2023 22.3516C70.3025 21.4148 69.8694 20.0183 69.2751 19.3643L62.3018 11.6678C61.7111 11.0137 60.3615 10.441 59.4165 10.441H50.0089L47.5925 33.1416H51.7092L51.7987 32.834C52.2104 31.388 53.1232 30.0623 54.3726 29.1042C55.6291 28.1355 57.1541 27.6016 58.6647 27.6016ZM15.0059 27.6016C16.7528 27.6016 18.3351 28.2769 19.4556 29.5037C20.2753 30.4016 20.7801 31.5294 20.9125 32.7633L20.9519 33.1416H45.8026L48.96 3.47634C49.0065 3.06624 48.8454 2.79402 48.7022 2.63493C48.5089 2.41927 48.2225 2.29907 47.9004 2.29907H6.31425C5.57324 2.29907 4.87877 2.92129 4.80001 3.65665L2.69511 23.4193L1.78585 31.9678C1.74289 32.3779 1.9004 32.6501 2.04359 32.8057C2.1832 32.9613 2.43737 33.1416 2.84546 33.1416H8.05044L8.13993 32.834C8.5516 31.388 9.46802 30.0623 10.7138 29.1042C11.9703 28.1355 13.4953 27.6016 15.0059 27.6016Z" fill="black"/>
<path d="M52.6157 20.5661C52.5799 20.5661 52.5262 20.5591 52.4904 20.5166C52.451 20.4742 52.4475 20.4212 52.4546 20.3823L53.1133 14.1707C53.1276 14.0257 53.2708 13.8984 53.4176 13.8984H58.619C59.113 13.8984 60.0652 14.305 60.3767 14.6479L65.7392 20.5661H52.6157Z" fill="black"/>
</svg>
