<svg width="99" height="101" viewBox="0 0 99 101" fill="none" xmlns="http://www.w3.org/2000/svg">
<path d="M97.5318 52.7594L97.5551 51.4582C97.5551 51.0087 97.5784 50.5828 97.5551 50.1096L97.5085 48.6901C97.5085 48.2406 97.4619 47.7437 97.4153 47.2942L97.322 45.8747L97.1356 44.5025C97.089 44.0293 97.0191 43.5561 96.9492 43.1066C96.7627 42.1602 96.5996 41.2612 96.3665 40.3622C96.2733 39.9126 96.1801 39.4395 96.0403 38.9899L95.6674 37.6414C95.5275 37.1919 95.411 36.766 95.2246 36.2928L94.7818 34.9679L94.2691 33.6667L93.9894 33.0042C93.9195 32.7913 93.803 32.5784 93.7098 32.3654C93.267 30.591 92.2881 28.0122 90.6801 25.2914C90.7267 25.1258 90.75 24.9365 90.6335 24.487C90.0975 23.3277 90.2606 24.2268 90.1907 24.4633C90.1441 24.3687 90.0975 24.2977 90.0275 24.2268C89.9809 24.1558 89.9576 24.0848 89.8877 24.0138C89.8411 23.8482 89.7712 23.6589 89.7246 23.4697L89.375 22.5233C90.0509 23.4224 89.911 22.8545 89.8877 22.5706C89.8877 22.547 89.8644 22.547 89.8644 22.5233C89.8644 22.5233 89.8644 22.5233 89.8644 22.4997C89.6081 22.1448 89.3983 21.7189 89.142 21.2694C88.9089 20.8199 88.6059 20.3703 88.3496 19.9681C87.8369 19.1164 87.2775 18.525 86.8114 18.5486C86.5085 18.0518 86.2754 17.6496 86.089 17.342C85.9259 17.0344 85.786 16.7978 85.6928 16.6086C85.4831 16.23 85.3665 15.9461 85.0403 15.5912C85.1801 15.9461 85.5763 16.4903 85.4831 16.6086C85.0403 15.7095 85.1102 16.3483 85.3199 16.6559C84.7373 16.23 83.6886 14.6922 82.5466 13.3436C81.4513 11.9714 80.286 10.8358 79.9364 11.0487L80.0064 10.9304C79.3771 11.1907 79.4703 11.9951 78.4915 11.6639L78.1187 11.0487L77.1865 10.6938C76.7437 10.126 77.0932 10.2207 77.1165 10.126C76.7437 9.98408 76.3708 9.74749 75.9746 9.5109C75.5551 9.25065 75.1822 8.96674 74.7394 8.68284C74.3199 8.42259 73.9004 8.11502 73.4576 7.83111C73.0381 7.54721 72.6187 7.2633 72.1759 7.02671V7.05037L72.7119 8.23332C72.875 8.63552 73.0381 9.03772 73.2013 9.43992C72.6187 8.87211 71.7098 8.09136 70.9407 7.49989C70.125 6.93208 69.4258 6.52987 69.1695 6.69549C68.9364 6.41158 68.7267 6.08035 68.4703 5.79645C67.8178 5.25229 67.3284 4.94472 66.9322 4.80277C66.5826 4.66082 66.3263 4.66082 66.1631 4.70814C65.7903 4.77911 65.6271 5.03936 65.0445 4.66082C64.5784 4.30593 64.1123 3.97471 63.6229 3.61982C64.1589 3.78544 64.6716 3.92739 65.2076 4.14032C65.0212 4.02203 64.8581 3.92739 64.6716 3.83275C64.5318 3.76178 64.3687 3.66714 64.2288 3.59617C63.9492 3.43055 63.6928 3.2886 63.4597 3.1703C62.9703 2.8864 62.5275 2.60249 61.9216 2.24761C61.9915 2.29492 62.0381 2.34224 62.0614 2.38956L61.8284 2.34224H61.8051C61.642 2.46054 61.3623 2.53151 60.9894 2.53151C60.5699 2.50785 60.0805 2.43688 59.4979 2.34224C59.1017 2.24761 58.7055 2.17663 58.3093 2.12931C58.1229 2.10565 57.9131 2.08199 57.7267 2.05833C57.517 2.03468 57.3072 2.01102 57.0742 1.98736C56.2119 1.91638 55.2564 1.72711 53.9513 1.32491L53.2521 1.86906C52.9259 1.77443 52.5996 1.72711 52.2733 1.63247L51.2712 1.4432L51.2945 0.946365C51.7839 0.993682 52.3898 0.993682 53.0424 0.993682C53.6949 1.01734 54.4407 1.041 55.1631 1.11198C55.9089 1.15929 56.7013 1.25393 57.4004 1.32491C58.1229 1.39588 58.8453 1.53784 59.4746 1.63247L59.5445 1.41954C59.1716 1.34857 58.7987 1.27759 58.4259 1.25393C58.2394 1.20661 58.0297 1.20661 57.8432 1.18295C57.6335 1.15929 57.447 1.15929 57.2839 1.13564C56.5381 1.08832 55.8623 1.041 55.3496 0.946365C54.9301 0.82807 53.928 0.331232 54.3708 0.0709839L53.625 0.37855C52.9725 0.331232 52.4131 0.331232 51.9004 0.307573C51.411 0.283914 50.9449 0.283914 50.572 0.283914H48.5212C48.1949 0.283914 47.8686 0.260255 47.5191 0.236596C47.1928 0.236596 46.7966 0.236596 46.4004 0.212937C45.9809 0.189279 45.5614 0.16562 45.0254 0.16562C44.5127 0.141961 43.9301 0.16562 43.2775 0.16562L43.7436 0.354891C43.2309 0.473186 42.7415 0.59148 42.322 0.638798C41.9259 0.709775 41.5763 0.709775 41.4131 0.520504L41.3898 0.496845H41.4831C38.3369 0.875388 35.0975 1.32491 32.8602 1.39588L32.6038 2.08199C31.9513 2.24761 30.6928 1.79809 30.6229 2.64981L29.9703 2.98103L29.3178 3.38323C28.4322 3.71446 28.036 4.18764 26.9407 4.37691H26.7076C26.7076 4.40057 26.7309 4.40057 26.7309 4.40057C25.7055 4.75545 25.7754 4.87375 25.7987 4.96838C25.822 5.11034 25.7987 5.22863 24.6568 5.65449C24.214 5.65449 24.0975 5.91474 23.9809 6.22231C23.911 6.38792 23.8411 6.55353 23.7246 6.69549C23.6081 6.8611 23.4449 7.05037 23.1653 7.14501C22.6992 7.14501 22.2097 7.09769 21.7203 7.09769C19.6695 7.87843 19.786 8.75381 17.339 10.7175C16.0106 11.4746 14.9852 11.4509 15.3581 10.3153C15.0551 11.0724 15.0318 11.2617 14.9153 11.4746C14.7987 11.6875 14.6123 11.9005 14.0763 12.6575C13.6568 12.6575 13.75 12.4683 13.8665 11.9714C13.1441 12.4209 13.0042 12.6575 12.9576 12.8941C12.8877 13.1544 12.8877 13.3436 12.4449 13.7932V13.8168C12.6081 14.4793 13.0042 15.3783 12.7712 15.7095C12.911 15.6386 13.0742 15.5439 13.214 15.473C12.6081 16.6322 11.8157 17.7915 10.7203 18.8325L10.5339 18.5959L10.1144 19.2584L9.74153 19.9681L9.39195 19.8262C8.99576 20.4886 8.59958 21.1274 8.25 21.8135L8.48305 21.6006C8.36653 21.8372 8.13348 22.334 7.8072 22.8782C7.50424 23.4224 7.17797 24.0375 6.875 24.4397L6.71186 24.3214C6.47881 24.5816 6.26907 24.8655 6.05932 25.1731C5.87288 25.457 5.70975 25.7409 5.56992 26.0485C5.29025 26.6636 5.0339 27.2788 4.84746 27.9176C4.68432 28.58 4.49788 29.2425 4.31144 29.9522C4.1483 30.662 3.96186 31.3954 3.72881 32.1998C3.63559 32.0105 3.56568 31.8213 3.47246 31.632C2.72669 32.602 4.00847 32.1288 3.42585 33.3354L2.91314 33.2645C3.07627 33.9269 2.91314 34.2818 2.70339 34.5657C2.47034 34.826 2.14407 35.0389 1.93432 35.4174L2.65678 35.2045L2.19068 36.6477C1.63136 38.2328 1.14195 37.4994 0.862288 37.1919L1.16525 38.4458L0.536017 38.5404C1.04873 39.5104 0.256355 39.3685 0.396186 40.8826C0.13983 40.9536 0.0932198 40.5751 -0.0699158 41.0483C0.0699148 41.9 0.279661 42.728 0.466101 43.5798L0.23305 42.0893L1.07203 42.3732C1.32839 43.1539 1.25847 43.6507 1.11864 44.1003C0.978813 44.5498 0.815678 44.9283 0.908898 45.4725C0.838983 45.2122 0.769067 44.952 0.722457 44.7154C0.815678 46.4662 0.442796 46.5371 0.18644 47.5071C0.349576 47.2232 0.629237 46.7501 0.699152 47.4598C0.722457 47.9803 0.396186 47.7201 0.279661 48.2169C0.559322 48.2879 0.769067 48.6191 0.885593 49.0686C1.00212 49.5418 0.955508 50.1096 0.838983 50.7248C0.769067 50.7011 0.699152 50.6538 0.605932 50.6065C0.722457 50.8904 0.862288 51.056 0.745762 51.5765L0.23305 51.3162L0.885593 52.2863C0.722457 52.9487 1.25847 53.8951 0.815678 53.8241L0.652542 53.4692C0.699152 54.2973 0.699152 55.1253 0.792373 55.9771C0.862288 56.8051 0.932203 57.6332 1.02542 58.4376L0.536017 58.6032C0.932203 58.7688 0.978813 59.4549 1.04873 60.07C1.09534 60.6615 1.18856 61.182 1.60805 61.0164C1.46822 61.5369 1.74788 62.4123 1.95763 63.1457C2.19068 63.8555 2.2839 64.3996 1.72458 64.2813C1.93432 65.0857 2.16737 65.7955 2.47034 66.4343C2.75 67.0731 3.02966 67.6882 3.35593 68.2797C3.70551 68.8712 4.00847 69.51 4.31144 70.2434C4.63771 70.9532 4.96398 71.7339 5.26695 72.7039C5.22034 73.1298 5.33686 73.6503 5.52331 74.2417C5.61653 74.5257 5.73305 74.8569 5.89619 75.1645C6.03602 75.4957 6.19915 75.8269 6.36229 76.1581C6.52542 76.4657 6.73517 76.8206 6.89831 77.1518C7.10805 77.483 7.29449 77.8143 7.50424 78.1218C7.92373 78.7843 8.29661 79.3994 8.64619 79.9436C9.06568 80.4404 9.43856 80.9136 9.81144 81.3631C10.2076 81.8126 10.5805 82.2148 10.9534 82.617C11.3263 83.0192 11.6992 83.3978 12.0953 83.7763L13.1907 84.8883C13.5869 85.2431 13.9597 85.598 14.3792 85.9293C14.5657 86.1185 14.7521 86.2841 14.9386 86.4734C15.1483 86.639 15.3814 86.8283 15.5678 86.9939C16.0106 87.3488 16.4068 87.7273 16.8962 88.0822C17.339 88.4371 17.8284 88.8393 18.3178 89.2415C18.5042 89.5964 18.7606 89.9276 19.0636 90.2825C19.3432 90.5901 19.6695 90.8976 20.0191 91.2052C20.3686 91.4891 20.7648 91.7494 21.161 92.0096C21.5572 92.2935 21.9767 92.5538 22.3962 92.7904C23.2352 93.2399 24.0975 93.6894 24.9364 94.1626C25.7754 94.5884 26.5212 95.1089 27.1737 95.6058L28.1759 95.5821C28.3856 95.8187 28.6186 96.008 28.8517 96.1736C29.1081 96.3392 29.3877 96.5048 29.6907 96.6468C30.2966 96.9543 30.9492 97.2619 31.6483 97.4985C33.0466 98.0426 34.5381 98.5158 35.9364 99.3439C36.6822 99.3439 37.0784 99.3912 37.2648 99.4149C37.1017 99.3202 36.9619 99.1783 37.0085 98.8944C37.7542 99.3675 39.5254 99.4858 39.2924 100.054H39.036C38.9195 100.338 39.572 100.432 40.3644 100.503C41.1801 100.574 42.1123 100.669 42.5784 101L42.1356 100.243C42.392 100.314 42.6949 100.409 42.9513 100.432L43.767 100.598L43.3242 100.645C43.767 100.621 44.2098 100.598 44.6525 100.598C45.072 100.598 45.4682 100.598 45.8877 100.574C46.6568 100.527 47.4025 100.574 48.1017 100.598C48.8009 100.598 49.4534 100.645 50.1292 100.669C50.8051 100.716 51.411 100.74 52.0403 100.74C53.2754 100.811 54.5339 100.787 55.8856 100.669C57.214 100.527 58.6356 100.219 60.197 99.6278C59.4746 100.48 61.4322 99.06 61.642 99.7697C62.5742 100.054 63.3199 99.8407 63.9958 99.4858C64.6716 99.0836 65.2542 98.5395 65.8835 98.2319C65.8835 98.1846 65.8835 98.1373 65.9534 98.0663C66.6992 97.8534 67.4915 97.6168 68.2606 97.4039C67.7246 98.0663 68.0975 97.7351 68.447 97.4039C68.5869 97.2382 68.75 97.049 68.8432 96.978C68.8199 97.0253 68.7733 97.1199 68.6568 97.2619C71.7331 96.5285 75.0657 94.9197 78.2352 92.814C81.3814 90.7084 84.3411 88.1059 86.9513 85.4797L86.5551 85.5507C86.8814 85.1958 87.2076 84.841 87.5106 84.4624C87.6737 84.2495 87.8369 84.0839 88.0233 83.8709C88.1631 83.6817 88.3263 83.4687 88.4661 83.2795C88.7924 82.9009 89.072 82.5224 89.3983 82.1912C89.678 81.8599 89.9809 81.5524 90.2606 81.3394C90.5403 81.1028 90.7733 80.8189 90.9598 80.4877C91.1229 80.1801 91.2627 79.8253 91.3559 79.4704C91.5424 78.8079 91.6123 78.1928 91.7521 77.9562C91.9619 77.1755 92.4047 76.6076 92.8009 76.3001C93.0805 76.0635 93.267 75.9688 93.2903 76.0398C93.5932 75.3301 93.7331 74.5493 93.9428 73.7213C94.0593 73.2954 94.1759 72.8459 94.3623 72.3727C94.4555 72.1361 94.5487 71.9232 94.6653 71.7102C94.7818 71.4737 94.9216 71.2371 95.0614 70.9768C95.2945 70.8822 95.5509 70.4563 95.7839 69.8648C95.9937 69.2734 96.1335 68.5163 96.2966 67.8065C96.4365 67.0968 96.5297 66.4106 96.6928 65.8901C96.8326 65.3933 97.0191 65.0621 97.2288 65.1094L97.1822 65.0621C97.5318 64.3996 97.7415 63.7135 97.928 63.0274C98.0911 62.3413 98.1843 61.6079 98.2542 60.8981C98.3475 60.1883 98.3941 59.4549 98.4873 58.7451C98.5339 58.3666 98.6271 58.0117 98.697 57.6332C98.767 57.2546 98.8369 56.8761 98.9534 56.4975C98.9534 56.4975 99.0233 56.5685 99.0699 56.6632C98.5572 55.3856 98.0678 54.0607 97.5318 52.7594ZM16.8729 68.5399L16.4767 67.7355C16.3369 67.4753 16.2203 67.286 16.2203 67.3807C16.2203 67.4989 16.3602 67.8538 16.4767 68.1377C17.0127 69.0841 17.5254 70.0305 18.1081 70.9058C18.5275 71.6393 18.947 72.349 19.4131 73.0588C19.2966 73.0351 19.2267 73.0351 19.1568 73.1061C19.1102 73.1534 19.0869 73.1771 19.0869 73.2481C18.7606 72.7986 18.4343 72.3254 18.1547 71.8759C17.5953 70.9295 17.0127 69.9358 16.5233 68.9421C16.5932 68.9895 16.6165 68.9658 16.5233 68.7765C16.5 68.6582 16.4301 68.5163 16.3369 68.3507C16.2903 68.1851 16.197 68.0431 16.1504 67.9485C16.1038 67.8775 16.0805 67.8065 16.0339 67.8065C16.0339 67.8538 16.0572 67.9012 16.0805 67.9958C15.125 65.9375 14.3093 63.7608 13.7034 61.5369C13.2606 59.8571 12.9809 58.1773 12.7712 56.4739C12.3983 53.3982 12.3284 50.3226 12.5381 47.3652L12.6547 46.2296L12.7013 45.6854L12.7712 45.0939L12.911 43.9347C12.9809 43.5561 13.0742 43.1776 13.1208 42.799C13.2373 42.1366 13.3771 41.4741 13.517 40.8353C13.5636 40.8353 13.6102 40.8117 13.6568 40.7644C13.8432 40.6461 14.053 40.3148 14.3093 39.818C14.1462 40.2912 14.0064 40.788 13.8665 41.2849C13.7034 41.829 13.5869 42.3732 13.4703 42.941L13.3072 43.769L13.1674 44.6208C13.0742 45.1649 13.0042 45.7327 12.9343 46.2532C12.7013 48.3589 12.6547 50.4882 12.7712 52.6175C12.8877 54.7231 13.1674 56.8524 13.6335 58.9581C14.0996 61.0164 14.7754 63.0984 15.6377 65.0621L15.8242 65.6062L15.8475 65.6536C15.8708 65.7955 15.8941 66.0558 15.9873 66.3633C16.197 66.9311 16.5 67.7119 16.8729 68.5399ZM19.0636 39.0373C19.1568 38.7297 19.2733 38.4221 19.3898 38.1146C19.2966 38.4221 19.2034 38.7297 19.1568 39.0373H19.0636ZM11.0233 39.6287C11.0699 39.3921 11.1165 39.1792 11.1631 38.9426L11.3263 38.2565C11.4195 37.8306 11.5127 37.4284 11.6059 37.0026C11.9788 35.796 12.4216 34.613 12.8877 33.4774C13.1208 32.9332 13.3771 32.2708 13.447 31.9396C13.4936 31.6793 13.3305 31.8923 13.0742 32.4364C12.9809 32.673 12.8877 32.8623 12.7945 33.0752C12.7945 33.0279 12.8411 32.9806 12.8411 32.9332L13.3305 31.6793C13.4004 31.4664 13.4703 31.2535 13.5636 31.0405L13.8199 30.4017C14.1928 29.479 14.6356 28.6037 15.1017 27.7283C15.1716 27.5863 15.2415 27.468 15.3581 27.3261C15.4746 27.1368 15.4047 27.5153 15.6144 27.2078C15.7309 27.0422 15.8475 26.9002 15.964 26.7346C15.8242 26.9949 15.6144 27.2788 15.4513 27.539C15.2881 27.8229 15.1017 28.1541 14.9153 28.438C13.8432 30.8749 13.5636 31.8686 13.3305 32.5074C13.3305 32.531 13.3305 32.531 13.3072 32.531C13.3072 32.531 13.3072 32.531 13.2606 32.7203C13.1674 33.0279 13.0742 33.2881 12.9576 33.6667C12.9576 33.6667 12.9576 33.6667 12.9809 33.6667C12.9343 33.7376 12.911 33.8323 12.8877 33.9269C12.7479 34.3055 12.6314 34.684 12.4682 35.0625C12.3051 35.4884 12.2119 35.9143 12.1653 36.1035C12.1186 36.2455 12.0254 36.3875 11.9322 36.5767C11.5826 37.6414 11.4428 38.2092 11.2797 38.7533C11.2097 39.0136 11.1165 39.3212 11.0233 39.6524C10.9767 39.9126 10.8835 40.2202 10.7903 40.6224C10.8835 40.2912 10.9534 39.9599 11.0233 39.6287ZM9.6017 50.7721L9.64831 50.914L9.6017 50.4645L9.57839 49.9913L9.53178 49.0213C9.57839 48.9503 9.67161 48.9267 9.69492 48.9977C9.625 48.7374 9.57839 48.4535 9.55509 48.1223C9.53178 47.862 9.53178 47.6254 9.53178 47.3652C9.57839 47.0103 9.64831 46.6081 9.69492 46.1349C9.76483 45.5908 9.83475 44.9756 9.92797 44.2895C9.97458 43.8873 10.0445 43.4851 10.0678 43.1066C10.0911 43.0593 10.1144 42.9646 10.1144 42.8937C10.2775 42.1839 10.4407 41.4978 10.6038 40.859L10.6504 41.0009V41.0246C10.6504 41.0246 10.7203 41.0246 10.7436 40.9536C10.7436 41.0009 10.697 41.2139 10.6504 41.5214C10.6038 41.829 10.5339 42.2549 10.464 42.6807C10.4174 43.1302 10.3708 43.3432 10.3242 43.7217C10.2775 44.0766 10.1843 44.5971 10.0678 45.5671C10.0911 45.5198 10.0911 45.4961 10.1144 45.4252C10.1144 45.4725 10.1144 45.5198 10.0911 45.5435C10.0911 45.5435 10.1377 45.4961 10.2076 45.4015C10.1843 45.4725 10.1377 45.5435 10.0445 45.7327C10.0445 45.7327 10.0445 45.7327 10.0678 45.8037C10.0911 45.851 10.0911 45.9457 10.1377 46.1349C10.1377 46.1349 10.1377 46.1349 9.69492 47.933C9.67161 48.075 9.69492 48.4062 9.69492 49.2579C9.69492 49.2579 9.74153 49.4945 9.76483 49.6601C9.78814 49.6838 9.81144 49.6838 9.83475 49.9913V50.157C9.71822 52.3099 9.76483 54.5575 9.97458 56.8051C9.74153 54.8178 9.57839 52.7594 9.6017 50.7721ZM23.2119 81.1502C22.9322 80.9372 22.6759 80.7953 22.4894 80.7006C22.3263 80.6297 22.2331 80.606 22.1864 80.6533C21.9068 80.3931 21.6271 80.1092 21.3475 79.8489C20.2055 78.666 19.0869 77.4594 18.1314 76.1345C16.1504 73.5793 14.5657 70.7875 13.4703 67.9248C13.447 67.6172 13.3305 67.215 13.1441 66.7182C12.9809 66.245 12.7945 65.6772 12.6081 65.1331C12.3983 64.6126 12.2585 64.0684 12.1419 63.5952C12.0254 63.122 11.9788 62.7435 11.9788 62.4833C11.4428 61.4186 11 60.2593 10.6504 59.1C10.1843 56.0717 10.0445 53.0907 10.1843 50.1806V50.157C10.2076 50.1096 10.2309 50.1096 10.2542 50.1096C10.2542 50.1096 10.3008 49.8494 10.3475 49.4945C10.3708 49.3289 10.3941 49.2343 10.3941 48.9977C10.4407 48.7611 10.4407 48.4535 10.5339 47.8147C10.5339 47.9094 10.5572 48.0276 10.5805 48.1223C10.767 48.3589 10.7903 48.3589 11.2331 47.2706C11.1631 48.6664 11.1398 50.1096 11.1631 51.5765C11.3263 56.5212 12.1886 61.4896 14.0763 66.1741C15.8475 70.6929 18.6441 74.9279 22.2564 78.3111C22.3729 78.453 22.5127 78.595 22.6292 78.7606C21.7903 77.9799 21.2309 77.5067 21.0445 77.554C20.8581 77.6013 21.1144 78.1455 21.6504 78.9499C17.4788 74.431 14.3093 69.0368 12.3284 63.3113C12.2119 62.9801 12.1186 62.7908 12.1186 62.9328C12.1186 63.0511 12.2119 63.4296 12.3517 63.7608C14.5657 70.5036 18.411 76.513 23.375 81.3158C23.3051 81.2211 23.2818 81.1975 23.2119 81.1502ZM25.6589 48.903L22.6525 45.851L25.6589 48.903ZM25.6822 71.5919C25.6589 71.4737 25.6589 71.3554 25.6589 71.2371C25.6589 71.2844 25.6822 71.3554 25.6822 71.4027V71.5919ZM25.9153 74.4074C25.9153 74.4074 25.8453 74.0288 25.7754 73.0351C25.7987 73.5083 25.8453 73.9578 25.9153 74.4074C25.9386 74.4547 25.9386 74.5257 25.9619 74.5966C25.9386 74.5257 25.9386 74.4783 25.9153 74.4074ZM23.7013 18.1937C23.2585 18.5486 22.8856 18.9981 22.4661 19.3767C22.0699 19.7789 21.7203 20.2284 21.3475 20.6306C21.1144 20.8435 20.8814 21.0328 20.625 21.2457C20.392 21.4587 20.1356 21.6952 19.8792 21.9318C19.6462 22.1684 19.3665 22.405 19.1335 22.6653C18.8771 22.9492 18.5975 23.2331 18.3178 23.5643C20.0424 21.3404 22.2097 18.9981 24.4703 17.1054C26.4047 15.4966 28.4322 14.1244 30.5763 12.9178C30.786 12.8231 31.0191 12.7285 31.2288 12.6339C31.089 12.7285 30.9725 12.7995 30.9025 12.8941C30.9259 12.8941 30.9725 12.8941 30.9958 12.8705C28.4555 14.3373 25.9852 16.0881 23.7013 18.1937ZM28.0593 80.4877C27.8496 80.1328 27.6631 79.7779 27.5233 79.3994C27.6864 79.7543 27.8729 80.1092 28.0593 80.4404C28.2225 80.7006 28.3623 80.9845 28.5254 81.2448C28.3623 81.0082 28.2225 80.748 28.0593 80.4877ZM31.1356 74.431L31.1822 74.4074L31.1356 74.431ZM30.2034 30.9696C30.0403 31.2298 29.9004 31.4664 29.7606 31.7266C29.6907 31.8923 29.6208 32.0815 29.5275 32.2708C29.4576 32.3654 29.3644 32.4837 29.2712 32.602C28.7352 32.9569 28.1525 33.4064 27.6398 34.0689C28.2225 33.0752 28.8517 31.9869 29.5509 30.9932C29.9937 30.5437 30.4131 30.0705 30.8792 29.6447C31.3686 29.1478 31.9047 28.6746 32.4407 28.2015C31.6017 29.0532 30.8559 29.9759 30.2034 30.9696ZM39.7818 48.0276C39.8284 47.6491 39.9216 47.2706 40.0148 46.8684C40.1081 46.6081 40.2013 46.3242 40.2945 46.0403C40.2945 46.2059 40.3178 46.3479 40.3411 46.5608C40.3411 46.6081 40.3644 46.6554 40.3644 46.6791C40.3411 46.892 40.2945 47.1049 40.2479 47.3179C40.2479 47.4125 40.2246 47.4835 40.2246 47.5545C40.1314 47.8384 40.0614 48.1223 39.9682 48.4298L39.7818 48.2406V48.0276ZM40.5275 89.4071L38.803 88.9103L40.5275 89.4071ZM40.2479 43.5561C40.2246 44.3369 40.2246 44.8573 40.2479 45.2359C40.2013 45.3542 40.1547 45.4488 40.1081 45.5671C40.0148 45.4488 39.875 45.5671 39.7818 45.8747C39.7818 45.8747 39.7585 45.8747 39.7585 45.8983V43.6507C39.8517 43.3905 39.9915 43.1066 40.1081 42.87C40.1547 42.7517 40.3178 42.9883 40.4343 42.8227C40.5275 42.7517 40.5742 42.6571 40.6208 42.5624C40.5042 42.8463 40.3877 43.1539 40.2479 43.5561ZM47.8453 93.2635C47.5657 93.0743 47.286 92.885 47.0297 92.6484C47.4958 92.9323 47.9852 93.1926 48.4513 93.4528C48.2415 93.3818 48.0318 93.3345 47.8453 93.2635ZM50.875 91.7494C47.9852 91.6074 45.0953 91.1815 42.2754 90.4245L43.8369 90.3771L44.6759 90.5428C45.2352 90.6611 45.8178 90.7084 46.4004 90.803C46.8665 90.8976 47.3792 90.9686 47.8686 91.0396C48.3581 91.0869 48.8475 91.1815 49.3835 91.2052C49.6631 91.3708 50.2691 91.5601 51.1081 91.7257H50.875V91.7494ZM53.4619 95.7004C53.4852 95.7004 53.5318 95.7241 53.5784 95.7241C53.7182 95.7714 53.8581 95.8424 54.0212 95.8897C53.8348 95.8424 53.6483 95.7477 53.4619 95.7004ZM68.4237 23.8955C68.4004 23.8482 68.3771 23.8009 68.3771 23.7536C68.3771 23.8009 68.4237 23.8482 68.4237 23.8955ZM81.3114 74.9042C81.3348 74.8805 81.3581 74.8332 81.3581 74.8096C81.3814 74.8096 81.3814 74.8096 81.4047 74.7859C81.3814 74.8096 81.3581 74.8569 81.3114 74.9042ZM82.197 36.4584C82.0572 36.1982 81.8475 35.6067 81.7775 36.0089C81.0318 33.9269 80.053 31.8686 78.8178 29.9286C78.911 30.0705 79.0042 30.1651 79.0975 30.2834C79.7267 31.0642 80.3093 31.8923 80.8453 32.7203C81.5212 34.2581 82.0805 35.7723 82.5699 37.3575C82.4068 37.0499 82.3136 36.7423 82.197 36.4584ZM97.0424 51.6238C96.9958 51.5055 96.9492 51.3636 96.9025 51.2689C96.9725 50.2279 96.9259 49.1633 96.9025 48.1223C96.8559 46.9867 96.786 45.8747 96.6462 44.7627L96.786 45.7564C96.8326 46.1113 96.8559 46.4425 96.8792 46.7737C96.9492 47.4362 97.0191 48.1223 97.0191 48.7847C97.0657 49.4472 97.0657 50.157 97.0657 50.8194L97.0424 51.6238Z" fill="#2E4121"/>
</svg>
