<svg width="13" height="15" viewBox="0 0 13 15" fill="none" xmlns="http://www.w3.org/2000/svg">
<path d="M4.44813 0.0763436C3.48943 -0.0381603 2.49238 -0.0381603 1.49533 0.152679C0.958459 0.992374 0.574978 1.9084 0.306541 2.8626C-0.383724 5.45802 0.0381048 8.35879 1.68707 10.7634C3.33604 13.1679 5.86701 14.6183 8.58973 14.9237C9.54843 15.0382 10.5455 15 11.5042 14.8473C12.0411 14.0076 12.4245 13.0916 12.693 12.1756C13.3832 9.54199 12.9998 6.6794 11.3508 4.27482C9.66347 1.83207 7.1325 0.381687 4.44813 0.0763436ZM10.047 12.7099C7.59268 12.7863 5.10005 11.6412 3.64282 9.46566C2.14725 7.25192 1.99386 4.54199 2.95256 2.29008C5.40684 2.21375 7.86111 3.35879 9.35669 5.57253C10.8523 7.7481 11.044 10.458 10.047 12.7099Z" fill="#C7E0BB"/>
</svg>
