<svg width="56" height="56" viewBox="0 0 56 56" fill="none" xmlns="http://www.w3.org/2000/svg">
<path d="M5.71961 24.9969C5.66242 25.3401 5.60522 25.6261 5.60522 26.141C5.60522 26.2554 5.60522 26.3126 5.60522 26.3698C5.60522 26.1982 5.66242 25.9694 5.71961 25.7405C5.77681 25.2257 5.77681 24.9969 5.71961 24.9969Z" fill="#2E4121"/>
<path d="M5.60529 26.3698C5.60529 26.5414 5.5481 26.6558 5.5481 26.6558C5.5481 26.5986 5.54809 26.5414 5.60529 26.4842C5.60529 26.3698 5.60529 26.3698 5.60529 26.3698Z" fill="#2E4121"/>
<path d="M9.83761 38.668C9.78041 38.6108 9.72322 38.4964 9.72322 38.4392C9.66602 38.3248 9.60883 38.382 9.66602 38.4964C9.72322 38.5536 9.72322 38.6108 9.83761 38.668C9.83761 38.7824 9.8948 38.8968 9.8948 38.8968C10.0092 39.0112 10.0092 39.0112 9.952 38.8396C9.952 38.8396 9.8948 38.7252 9.83761 38.668Z" fill="#2E4121"/>
<path d="M27.7971 9.4382C25.3377 10.9826 23.7362 13.7283 23.7362 16.8744C23.7362 19.9632 25.3377 22.7089 27.7971 24.3105C30.2565 22.7661 31.858 20.0204 31.858 16.8744C31.9151 13.7283 30.2565 10.9826 27.7971 9.4382ZM27.8543 35.9796L17.2732 25.3973V29.7446L27.8543 40.3269L38.4354 29.7446V25.3973L27.8543 35.9796ZM27.7971 9.4382C25.3377 10.9826 23.7362 13.7283 23.7362 16.8744C23.7362 19.9632 25.3377 22.7089 27.7971 24.3105C30.2565 22.7661 31.858 20.0204 31.858 16.8744C31.9151 13.7283 30.2565 10.9826 27.7971 9.4382ZM27.8543 35.9796L17.2732 25.3973V29.7446L27.8543 40.3269L38.4354 29.7446V25.3973L27.8543 35.9796ZM27.7971 9.4382C25.3377 10.9826 23.7362 13.7283 23.7362 16.8744C23.7362 19.9632 25.3377 22.7089 27.7971 24.3105C30.2565 22.7661 31.858 20.0204 31.858 16.8744C31.9151 13.7283 30.2565 10.9826 27.7971 9.4382ZM30.1421 52.7967H30.0849C30.1993 52.8539 30.3137 52.8539 30.3709 52.9111C30.2565 52.8539 30.1993 52.7967 30.1421 52.7967ZM26.4816 51.0807C26.6532 51.1951 26.7676 51.3095 26.9392 51.4239C27.0536 51.4811 27.168 51.4811 27.2823 51.5383C26.9964 51.3667 26.7104 51.2523 26.4816 51.0807ZM22.8783 23.4525C22.8783 23.5097 22.8211 23.5669 22.7639 23.6241C22.7067 23.6813 22.5923 23.5669 22.5923 23.6241C22.5351 23.7385 22.478 23.9101 22.4208 24.0817V25.3401C22.478 25.1685 22.5351 25.1113 22.5923 25.1685C22.5923 25.1113 22.6495 25.0541 22.6495 24.9969C22.6495 24.7681 22.6495 24.4821 22.6495 24.0817C22.7639 23.7957 22.8211 23.6241 22.8783 23.4525ZM22.7067 25.6833C22.7067 25.5689 22.6495 25.4545 22.6495 25.3973C22.5923 25.5689 22.5351 25.6833 22.478 25.855C22.4208 26.0838 22.3636 26.2554 22.3636 26.4842V26.5986L22.478 26.713C22.5351 26.5414 22.5923 26.3698 22.6495 26.1982C22.6495 26.141 22.6495 26.141 22.6495 26.0838C22.6495 25.9694 22.7067 25.855 22.7067 25.7406V25.6833Z" fill="#2E4121"/>
<path d="M20.9907 54.7988C21.1051 54.856 21.1051 54.856 20.9907 54.7988V54.7988Z" fill="#2E4121"/>
<path d="M15.0999 2.45966C15.0427 2.45966 15.0427 2.45966 15.0427 2.45966C15.0999 2.40246 15.0999 2.40246 15.0999 2.45966Z" fill="#2E4121"/>
<path d="M0.572086 27.9142C0.572086 27.857 0.514893 27.7998 0.514893 27.7426C0.514893 27.857 0.514892 27.9142 0.572086 27.9142Z" fill="#2E4121"/>
<path d="M37.463 54.1696C37.4058 54.1696 37.5774 54.0552 37.6346 54.0552C37.4058 54.0552 37.177 54.1124 36.9482 54.2268C37.0054 54.284 37.3486 54.1696 37.463 54.1696Z" fill="#2E4121"/>
<path d="M55.5366 31.2891L55.5938 31.4035C55.5366 31.3463 55.5366 31.3463 55.5366 31.2891Z" fill="#2E4121"/>
<path d="M54.5071 35.9224L54.6215 36.0368C54.6215 35.9796 54.5643 35.9796 54.5071 35.9224Z" fill="#2E4121"/>
<path d="M23.3931 0.286003C23.3359 0.228802 23.3359 0.228802 23.3359 0.1716L23.3931 0.286003Z" fill="#2E4121"/>
<path d="M34.832 1.25843C34.832 1.31563 34.7748 1.31563 34.832 1.25843C34.3172 1.25843 33.8597 1.14403 33.4021 1.08683L33.4593 0.915222C33.6309 0.972423 33.8025 0.972423 33.9169 0.972423C34.0312 1.02962 34.2028 1.02962 34.3172 1.08683C34.546 1.14403 34.7176 1.20123 34.832 1.25843Z" fill="#2E4121"/>
<path d="M52.3336 41.9857C52.3336 41.9857 52.3336 42.0429 52.2764 42.0429C52.3336 41.9857 52.3336 41.9857 52.3336 41.9857Z" fill="#2E4121"/>
<path d="M30.5996 0.0572012L30.7712 0C30.714 0 30.6568 0.0572012 30.5996 0.0572012Z" fill="#2E4121"/>
<path d="M40.5514 3.88967C40.5514 3.88967 40.4942 3.88967 40.4942 3.83247L40.437 3.60367L40.5514 3.88967Z" fill="#2E4121"/>
<path d="M50.7892 12.8703C50.6748 12.7559 50.5604 12.6415 50.446 12.4699C50.446 12.2983 50.5032 12.3555 50.7892 12.8703Z" fill="#2E4121"/>
<path d="M22.7067 25.7406C22.7067 25.855 22.6495 25.9694 22.6495 26.0838C22.6495 26.141 22.6495 26.1982 22.6495 26.1982C22.5923 26.3698 22.5351 26.5414 22.4779 26.713L22.3635 26.5986V26.4842C22.4207 26.2554 22.4207 26.0838 22.4779 25.855C22.5351 25.6834 22.5923 25.569 22.6495 25.3974C22.6495 25.4546 22.6495 25.569 22.7067 25.6834V25.7406Z" fill="#2E4121"/>
<path d="M22.6492 24.0245C22.6492 24.4821 22.6492 24.7681 22.6492 24.9397C22.592 24.9969 22.592 25.0541 22.592 25.1113C22.5348 25.0541 22.4776 25.1113 22.4204 25.2829V24.0245C22.4776 23.8529 22.5348 23.7385 22.592 23.5669C22.592 23.5097 22.7064 23.6241 22.7636 23.5669C22.8208 23.5097 22.8208 23.4525 22.878 23.3953C22.8208 23.6241 22.7636 23.7957 22.6492 24.0245Z" fill="#2E4121"/>
<path d="M27.2819 51.5383C27.1675 51.4811 27.0531 51.4811 26.9388 51.4239C26.7672 51.3095 26.5956 51.1951 26.4812 51.0807C26.71 51.2523 26.996 51.3667 27.2819 51.5383Z" fill="#2E4121"/>
<path d="M30.3707 52.8539C30.2563 52.7967 30.1419 52.7967 30.0847 52.7395H30.1419C30.1991 52.7967 30.3135 52.8539 30.3707 52.8539Z" fill="#2E4121"/>
<path d="M21.8484 49.0215L22.8207 49.3075L21.8484 49.0215ZM15.8429 44.3882C15.7285 44.2166 15.6141 43.9878 15.5569 43.8162C15.6141 43.9878 15.7285 44.1594 15.8429 44.3882C15.9001 44.5598 16.0144 44.6742 16.1288 44.8458C16.0144 44.6742 15.9001 44.5026 15.8429 44.3882ZM14.6418 41.0133C14.5846 40.7845 14.5846 40.4985 14.5274 40.2697C14.5846 40.8417 14.6418 41.0133 14.6418 41.0133V41.0705C14.6418 41.0705 14.6418 41.0705 14.6418 41.0133ZM14.5274 39.2973C14.5274 39.3545 14.5274 39.4117 14.5274 39.4689V39.3545V39.2973ZM12.8115 25.283L14.4702 26.9418L12.8115 25.283Z" fill="#2E4121"/>
<path d="M54.7357 29.1154V28.3718C54.7357 28.143 54.7357 27.857 54.7357 27.6282V26.8274C54.7357 26.5986 54.6786 26.3126 54.6786 26.0838L54.6214 25.2829L54.507 24.5393C54.4498 24.2533 54.4498 24.0245 54.3926 23.7957C54.2782 23.2809 54.221 22.7661 54.0494 22.2513C53.9922 22.0225 53.935 21.7365 53.8778 21.5077L53.649 20.764C53.5918 20.5352 53.4774 20.2492 53.4202 20.0204L53.1915 19.2768L52.9055 18.5332L52.7339 18.19C52.6767 18.0756 52.6195 17.9612 52.5623 17.8468C52.3335 16.8744 51.7616 15.4443 50.8465 13.9571C50.8465 13.8999 50.9037 13.7855 50.7893 13.4995C50.5033 12.8703 50.5605 13.3279 50.5605 13.4995C50.5605 13.4423 50.5033 13.3851 50.5033 13.3851C50.5033 13.3279 50.4461 13.3279 50.4461 13.2707C50.4461 13.1563 50.3889 13.0419 50.3317 12.9847L50.1029 12.4699C50.5033 12.9847 50.3889 12.6415 50.3889 12.5271C50.2745 12.3555 50.1029 12.0695 49.9885 11.8407C49.8742 11.6118 49.7026 11.3258 49.531 11.097C49.245 10.6394 48.9018 10.2962 48.6731 10.2962C48.5015 10.0102 48.3871 9.78141 48.2727 9.60981C48.1583 9.4382 48.1011 9.3238 48.0439 9.2094C47.9295 8.98059 47.8723 8.86619 47.7007 8.63739C47.7579 8.80899 47.9867 9.1522 47.9295 9.2094C47.7007 8.69459 47.7007 9.03779 47.8151 9.2666C47.472 9.03779 46.9 8.17978 46.2709 7.43616C45.6417 6.69254 45.0126 6.06333 44.841 6.17773L44.8982 6.12053C44.555 6.29213 44.6122 6.69254 44.0403 6.52094L43.8115 6.17773L43.2967 6.00613C43.0679 5.72012 43.2395 5.72012 43.2395 5.72012C43.0107 5.66292 42.8392 5.49132 42.6104 5.37691C42.3816 5.20531 42.1528 5.09091 41.924 4.91931C41.6953 4.7477 41.4665 4.6333 41.1805 4.4617C40.9517 4.29009 40.7229 4.17569 40.437 4.00409L40.7229 4.6333C40.8373 4.8621 40.8945 5.09091 41.0089 5.31971C40.6657 4.97651 40.151 4.5761 39.7506 4.23289C39.2931 3.88968 38.8927 3.71808 38.7783 3.77528C38.6639 3.60368 38.5495 3.43207 38.3779 3.26047C38.0348 2.97446 37.7488 2.80286 37.52 2.68846C37.3484 2.63126 37.1768 2.63126 37.0624 2.63126C36.8337 2.68846 36.7765 2.80286 36.4333 2.63126C36.1473 2.40245 35.9185 2.23085 35.6326 2.05924C35.9185 2.17365 36.2045 2.23085 36.4905 2.34525C36.3761 2.28805 36.3189 2.23085 36.2045 2.17365C36.1473 2.11645 36.0329 2.11645 35.9757 2.05924C35.8042 2.00204 35.6898 1.88764 35.5182 1.83044C35.2322 1.65884 35.0034 1.48723 34.6602 1.31563C34.889 1.31563 34.889 1.31563 34.889 1.31563L34.7746 1.25843C34.7174 1.31563 34.5459 1.37283 34.3171 1.37283C34.0883 1.37283 33.8023 1.31563 33.4592 1.25843C33.2304 1.20123 33.0016 1.14402 32.7728 1.14402C32.7156 1.20123 32.6012 1.14402 32.4868 1.14402C32.3724 1.14402 32.2581 1.14402 32.1437 1.08682C31.6289 1.02962 31.1142 0.91522 30.3706 0.743616L29.9703 1.02962C29.7987 0.972421 29.6271 0.972421 29.3983 0.91522L28.8263 0.800817V0.514811C29.1695 0.572012 29.5127 0.572012 29.8559 0.572012C30.199 0.572012 30.6566 0.629214 31.057 0.629214C31.4573 0.629214 31.9149 0.686415 32.3153 0.743616C32.7156 0.800817 33.116 0.858018 33.4592 0.91522L33.5163 0.800817C33.2876 0.743616 33.116 0.743616 32.8872 0.686415C32.7728 0.686415 32.6584 0.629214 32.544 0.629214C32.4296 0.629214 32.3153 0.629214 32.2009 0.629214C31.8005 0.629214 31.4001 0.572012 31.1142 0.514811C30.8854 0.45761 30.3134 0.171604 30.5422 0L30.1418 0.171604C29.7987 0.114402 29.4555 0.114402 29.1695 0.114402C28.8835 0.114402 28.6548 0.114402 28.426 0.114402H27.2821C27.1105 0.114402 26.9389 0.114402 26.7101 0.114402C26.5385 0.114402 26.3098 0.114402 26.081 0.114402C25.8522 0.114402 25.6234 0.114402 25.3374 0.114402C25.0515 0.114402 24.7083 0.114402 24.3651 0.114402L24.6511 0.228805C24.3651 0.286006 24.0791 0.343207 23.8504 0.400409C23.6216 0.45761 23.45 0.45761 23.3356 0.343207C21.5626 0.572012 19.7323 0.800817 18.5312 0.858018L18.3596 1.25843C18.0165 1.31563 17.2729 1.08682 17.2729 1.60163L16.9298 1.71604L16.5866 1.88764C16.0718 2.05924 15.8431 2.34525 15.2711 2.45965H15.1567C14.5848 2.63126 14.642 2.74566 14.642 2.80286C14.642 2.86006 14.642 2.91726 14.0128 3.20327C13.784 3.20327 13.7268 3.31767 13.6124 3.54648C13.5552 3.60368 13.5552 3.71808 13.4409 3.83248C13.3837 3.94688 13.2693 4.00409 13.0977 4.06129C12.8117 4.06129 12.5829 4.06129 12.297 4.00409C11.1531 4.4617 11.2102 4.91931 9.83756 6.00613C9.09403 6.40654 8.52207 6.40654 8.75085 5.77732C8.57927 6.17773 8.57927 6.29213 8.52208 6.34934C8.46488 6.46374 8.35049 6.57814 8.06451 6.97855C7.83573 6.97855 7.89293 6.86415 7.95012 6.57814C7.54976 6.80695 7.43537 6.97855 7.43537 7.09295C7.37817 7.20735 7.37817 7.32176 7.14939 7.60776C7.26378 7.95097 7.43537 8.46578 7.32098 8.63739C7.37817 8.58018 7.49256 8.58018 7.54976 8.52298C7.20659 9.1522 6.74903 9.78141 6.17707 10.3534L6.06268 10.2962L5.8339 10.6394L5.60512 11.0398L5.37634 10.9826C5.14756 11.3258 4.91878 11.7263 4.7472 12.0695L4.86159 11.9551C4.80439 12.0695 4.63281 12.3555 4.46122 12.6415C4.28963 12.9275 4.11805 13.2707 3.94647 13.4995L3.88927 13.4423C3.77488 13.6139 3.66049 13.7283 3.5461 13.8999C3.43171 14.0715 3.37451 14.2431 3.26012 14.4147C3.08854 14.7579 2.97415 15.1011 2.85976 15.4443C2.74537 15.7875 2.63098 16.1879 2.57378 16.5884C2.45939 16.9888 2.4022 17.3892 2.23061 17.8468C2.17342 17.7324 2.11622 17.618 2.05902 17.5608C1.65866 18.0756 2.345 17.8468 2.00183 18.476L1.71585 18.4188C1.83024 18.762 1.71585 18.9908 1.60146 19.1624C1.48707 19.334 1.25829 19.4484 1.1439 19.62L1.54427 19.5056L1.25829 20.3064C0.915123 21.1645 0.686342 20.764 0.514757 20.5924L0.686342 21.2789L0.34317 21.3361C0.629146 21.8509 0.171585 21.7937 0.285976 22.6517C0.171585 22.7089 0.11439 22.4801 0 22.7661C0.0571951 23.2237 0.171585 23.6813 0.285976 24.1389L0.171585 23.3381L0.629146 23.5097C0.743536 23.9673 0.743537 24.1961 0.686342 24.4821C0.629147 24.7109 0.514756 24.9397 0.571951 25.2257C0.514756 25.0541 0.514756 24.9397 0.457561 24.8253C0.514756 25.7978 0.285975 25.855 0.171585 26.3698C0.285975 26.1982 0.400366 25.9694 0.457561 26.3698C0.457561 26.6558 0.285977 26.5414 0.228781 26.7702C0.400367 26.8274 0.514756 26.999 0.571951 27.2278C0.629146 27.5138 0.629146 27.7998 0.571951 28.143C0.514756 28.143 0.514756 28.0858 0.457561 28.0858C0.514756 28.2574 0.629147 28.3146 0.514757 28.6006L0.171585 28.429L0.514757 28.9438C0.400367 29.287 0.743536 29.859 0.457561 29.8018L0.400366 29.6302C0.457561 30.0878 0.457561 30.5455 0.457561 31.0031C0.514756 31.4607 0.514756 31.9183 0.571951 32.3759L0.285976 32.4903C0.514756 32.6047 0.514756 32.9479 0.571951 33.2911C0.571951 33.6343 0.629146 33.9203 0.915121 33.8059C0.857926 34.0919 0.972318 34.5495 1.08671 34.9499C1.2011 35.3504 1.25829 35.6364 0.972318 35.5792C1.08671 36.0368 1.2011 36.4372 1.37268 36.7804C1.54427 37.1236 1.71585 37.4668 1.88744 37.81C2.05902 38.1532 2.23061 38.4964 2.4022 38.8968C2.57378 39.2972 2.74537 39.6977 2.91695 40.2697C2.91695 40.4985 2.97415 40.7845 3.08854 41.1277C3.14573 41.2993 3.20293 41.4709 3.31732 41.6425C3.37451 41.8141 3.4889 41.9857 3.60329 42.2145C3.71768 42.3861 3.83207 42.5577 3.88927 42.7865C4.00366 42.9581 4.11805 43.1297 4.23244 43.3013C4.46122 43.6445 4.69 43.9877 4.86159 44.3309C5.09037 44.617 5.31915 44.8458 5.49073 45.1318C5.71951 45.3606 5.94829 45.5894 6.11988 45.8182C6.34866 46.047 6.52024 46.2758 6.74903 46.4474L7.37817 47.0766C7.60695 47.2482 7.83573 47.477 8.06451 47.6486C8.1789 47.763 8.29329 47.8774 8.40769 47.9346C8.52208 48.049 8.63647 48.1062 8.75085 48.2206C8.97964 48.3922 9.20842 48.621 9.49439 48.7926C9.72317 49.0215 10.0091 49.1931 10.2951 49.4219C10.4095 49.5935 10.5239 49.8223 10.6955 49.9939C10.8671 50.1655 11.0387 50.3371 11.2102 50.5087C11.3818 50.6803 11.6106 50.7947 11.8394 50.9663C12.0682 51.1379 12.297 51.2523 12.5257 51.4239C12.9833 51.6527 13.4981 51.9387 13.9556 52.1675C14.4132 52.3963 14.8707 52.6823 15.2139 52.9683H15.7859C15.9002 53.0827 16.0146 53.1971 16.1862 53.3115C16.3578 53.4259 16.4722 53.4831 16.6438 53.5975C16.987 53.7691 17.3301 53.9408 17.7305 54.0552C18.5312 54.3412 19.332 54.6272 20.1327 55.0848C20.5331 55.0848 20.7618 55.0848 20.8762 55.142C20.819 55.0848 20.7046 55.0276 20.7046 54.856C21.105 55.142 22.1345 55.1992 21.9629 55.4852H21.8485C21.7913 55.6568 22.1345 55.714 22.5921 55.714C23.0496 55.7712 23.5644 55.7712 23.8504 56L23.6216 55.5996C23.7932 55.6568 23.9076 55.6568 24.0791 55.714L24.5367 55.8284L24.3079 55.8856C24.5367 55.8856 24.8227 55.8856 25.0515 55.8284C25.2803 55.8284 25.509 55.8284 25.7378 55.8284C26.1954 55.8284 26.5957 55.8284 26.9961 55.8284C27.3965 55.8284 27.7396 55.8284 28.14 55.8856C28.5404 55.8856 28.8835 55.9428 29.2267 55.9428C29.9131 56 30.5994 56 31.4001 55.8856C32.1437 55.8284 32.9444 55.6568 33.8023 55.3136C33.402 55.7712 34.4887 54.9704 34.6031 55.3708C35.1178 55.5424 35.5182 55.428 35.9185 55.1992C36.3189 54.9704 36.6049 54.6844 37.0052 54.5128C37.0052 54.4556 37.0053 54.4556 37.0624 54.3984C37.4628 54.284 37.9204 54.1696 38.3207 54.0552C38.0348 54.3984 38.2063 54.2268 38.4351 54.0552C38.4923 53.9408 38.6067 53.8836 38.6639 53.8264C38.6639 53.8264 38.6067 53.8836 38.5495 53.998C40.2654 53.5975 42.1528 52.7395 43.9259 51.5383C45.6989 50.3943 47.3576 48.9642 48.7874 47.477L48.5587 47.5342C48.7303 47.3626 48.9018 47.1338 49.0734 46.905C49.1878 46.7906 49.245 46.6762 49.3594 46.5618C49.4166 46.4474 49.531 46.333 49.5882 46.2186C49.7598 45.9898 49.9314 45.8182 50.1029 45.5894C50.2745 45.4178 50.4461 45.2462 50.6177 45.1318C50.7893 45.0174 50.9037 44.8458 51.0181 44.6742C51.1324 44.5026 51.1896 44.3309 51.2468 44.1021C51.3612 43.7589 51.4184 43.4157 51.4756 43.2441C51.59 42.7865 51.8188 42.5005 52.0476 42.3289C52.2192 42.2145 52.3335 42.1573 52.3335 42.2145C52.5051 41.8141 52.5623 41.4137 52.6767 40.9561C52.7339 40.7273 52.7911 40.4985 52.9055 40.2125C52.9627 40.0981 53.0199 39.9837 53.0771 39.8693C53.1343 39.7548 53.1915 39.5832 53.3059 39.4688C53.4203 39.4116 53.5918 39.1828 53.7062 38.8396C53.8206 38.4964 53.8778 38.096 53.9922 37.6956C54.0494 37.2952 54.1066 36.952 54.221 36.666C54.2782 36.38 54.3926 36.2084 54.507 36.2084H54.4498C54.6213 35.8652 54.7929 35.4648 54.8501 35.0644C54.9645 34.6639 54.9645 34.2635 55.0217 33.9203C55.0789 33.5199 55.0789 33.1195 55.1361 32.7191C55.1933 32.4903 55.1933 32.3187 55.2505 32.0899C55.3077 31.8611 55.3077 31.6895 55.4221 31.4607C55.4221 31.4607 55.4793 31.5179 55.4793 31.5751C55.3077 30.5455 55.0217 29.8018 54.7357 29.1154ZM38.4351 13.1563L38.3779 13.0991C38.4351 13.0991 38.4351 13.1563 38.4351 13.1563ZM24.8799 8.23698C25.7378 7.49336 26.7101 6.86415 27.7968 6.34934C28.8835 6.80695 29.8559 7.43616 30.7138 8.23698C33.116 10.2962 34.6602 13.3851 34.6602 16.8172C34.6602 20.2492 33.116 23.3381 30.7138 25.4545C29.8559 26.1982 28.8835 26.8274 27.7968 27.285C26.7673 26.8274 25.7378 26.1982 24.8799 25.4545C22.4777 23.3953 20.9334 20.3064 20.9334 16.8744C20.9906 13.4423 22.4777 10.3534 24.8799 8.23698ZM22.6493 24.9397C22.5921 24.9969 22.5921 25.0541 22.5921 25.1113C22.5349 25.0541 22.4777 25.1113 22.4205 25.2829V24.0245C22.4777 23.8529 22.5349 23.7385 22.5921 23.5669C22.5921 23.5097 22.7065 23.6241 22.7637 23.5669C22.8209 23.5097 22.8209 23.4525 22.8781 23.3953C22.8209 23.5669 22.7637 23.7385 22.6493 23.9673C22.6493 24.4249 22.6493 24.7109 22.6493 24.9397ZM18.3024 15.5587C17.8449 16.0163 17.4445 16.5312 17.0442 17.1032C16.9298 17.2748 16.8726 17.3892 16.8154 17.5036C16.7582 17.618 16.7582 17.6752 16.701 17.7896C16.6438 17.8468 16.5866 17.904 16.5866 17.9612C16.3006 18.19 15.9574 18.4188 15.6715 18.762C16.0146 18.19 16.3578 17.618 16.7582 17.046C16.987 16.8172 17.2729 16.5312 17.5017 16.3023C17.6733 16.0735 17.9593 15.7875 18.3024 15.5587ZM13.8412 9.4382C14.9279 8.52298 16.0718 7.77937 17.2729 7.15015C17.3873 7.09295 17.5017 7.03575 17.6161 6.97855C17.5589 7.03575 17.4445 7.09295 17.4445 7.15015H17.5017C16.0718 7.95097 14.6992 8.92339 13.3837 10.0674C13.1549 10.239 12.9261 10.525 12.6973 10.6966C12.4685 10.9254 12.297 11.1542 12.0682 11.383C11.9538 11.4974 11.7822 11.6118 11.6678 11.7263C11.5534 11.8407 11.3818 11.9551 11.2674 12.1267C11.1531 12.2411 10.9815 12.4127 10.8671 12.5271C10.6955 12.6987 10.5811 12.8703 10.4095 13.0419C11.3818 11.7835 12.5829 10.4678 13.8412 9.4382ZM10.9815 21.0501C10.9243 21.2217 10.8671 21.3933 10.8671 21.5649H10.8099C10.8671 21.3933 10.9243 21.2217 10.9815 21.0501ZM9.55159 37.81L9.32281 37.3524C9.26561 37.1808 9.15122 37.1236 9.20842 37.1808C9.20842 37.238 9.26561 37.4668 9.38 37.5812C9.66598 38.096 9.95195 38.6108 10.2951 39.1256C10.5239 39.526 10.7527 39.9265 11.0387 40.3269C10.9815 40.3269 10.9243 40.3269 10.9243 40.3269C10.8671 40.3269 10.8671 40.3841 10.8671 40.3841C10.6955 40.1553 10.5239 39.8693 10.3523 39.6404C10.0091 39.1256 9.72317 38.5536 9.4372 38.0388C9.49439 38.096 9.49439 38.0388 9.4372 37.9244C9.4372 37.8672 9.38 37.7528 9.32281 37.6956C9.26561 37.5812 9.26561 37.524 9.20842 37.4668C9.15122 37.4096 9.15122 37.4096 9.15122 37.4096C9.15122 37.4096 9.15122 37.4668 9.15122 37.524C8.63647 36.38 8.1789 35.1788 7.83573 33.9775C7.60695 33.0623 7.43537 32.1471 7.32098 31.1747C7.0922 29.4586 7.0922 27.7998 7.20659 26.141L7.26378 25.5117V25.2257L7.32098 24.8825L7.37817 24.2533C7.43537 24.0245 7.43537 23.8529 7.49256 23.6241C7.54976 23.2809 7.60695 22.8805 7.72134 22.5373C7.77854 22.5373 7.77854 22.5373 7.77854 22.4801C7.89293 22.4229 8.00732 22.2513 8.12171 21.9653C8.00732 22.2513 7.95012 22.4801 7.89293 22.7661C7.83573 23.0521 7.72134 23.3381 7.66415 23.6813L7.54976 24.1389L7.49256 24.5965C7.43537 24.8825 7.37817 25.2257 7.37817 25.5117C7.26378 26.6558 7.20659 27.857 7.26378 29.001C7.32098 30.145 7.49256 31.3463 7.77854 32.4903C8.06451 33.6343 8.40768 34.7783 8.92244 35.8652L9.03683 36.1512V36.2084C9.03683 36.2656 9.09403 36.4372 9.09403 36.6088C9.20842 36.8948 9.38 37.3524 9.55159 37.81ZM6.29146 21.8509C6.29146 21.7365 6.34866 21.6221 6.34866 21.4505L6.46305 21.0501C6.52024 20.8212 6.57744 20.5924 6.63463 20.3636C6.86342 19.6772 7.0922 19.048 7.37817 18.4188C7.49256 18.1328 7.66415 17.7324 7.72134 17.5608C7.72134 17.3892 7.66415 17.5036 7.49256 17.8468C7.43537 17.9612 7.37817 18.0756 7.32098 18.19C7.32098 18.1328 7.32098 18.1328 7.32098 18.1328L7.60695 17.4464C7.66415 17.332 7.66415 17.2176 7.72134 17.1032L7.89293 16.76C8.12171 16.2451 8.35049 15.7875 8.63646 15.2727C8.69366 15.2155 8.69366 15.1011 8.75085 15.0439C8.80805 14.9295 8.75085 15.1583 8.92244 14.9867C8.97964 14.8723 9.03683 14.8151 9.09403 14.7007C9.03683 14.8723 8.92244 14.9867 8.80805 15.1583C8.69366 15.3299 8.63647 15.5015 8.52208 15.6731C7.89293 17.046 7.77854 17.5608 7.60695 17.904C7.60695 17.904 7.60695 17.904 7.54976 18.0184C7.49256 18.19 7.43537 18.3616 7.37817 18.5332C7.37817 18.5904 7.32098 18.5904 7.32098 18.6476C7.26378 18.8764 7.14939 19.048 7.0922 19.2768C6.97781 19.5056 6.92061 19.7344 6.92061 19.8488C6.86342 19.906 6.86342 20.0204 6.80622 20.1348C6.63464 20.7068 6.52024 21.0501 6.46305 21.3361C6.40585 21.5077 6.34866 21.6793 6.29146 21.8509C6.29146 22.0225 6.23427 22.1941 6.17707 22.4229C6.23427 22.1941 6.29146 22.0225 6.29146 21.8509ZM5.49073 28.0286L5.54793 28.0858V27.857V27.571V27.0562C5.54793 26.999 5.60512 26.999 5.66232 27.0562C5.60512 26.8846 5.60512 26.7702 5.60512 26.5986C5.60512 26.4842 5.60512 26.3126 5.60512 26.1982C5.66232 26.0266 5.66232 25.7978 5.71951 25.5117C5.77671 25.2257 5.77671 24.8825 5.8339 24.4821C5.8339 24.2533 5.8911 24.0245 5.8911 23.8529C5.8911 23.7957 5.8911 23.7957 5.94829 23.7385C6.06269 23.3381 6.11988 22.9949 6.23427 22.5945V22.6517C6.23427 22.6517 6.29146 22.6517 6.29146 22.5945C6.29146 22.6517 6.29147 22.7661 6.23427 22.9377C6.23427 23.1093 6.17707 23.3381 6.11988 23.5669C6.06268 23.7957 6.06268 23.9101 6.06268 24.1389C6.00549 24.3105 6.00549 24.5965 5.94829 25.1685V25.1113V25.1685C5.94829 25.1685 5.94829 25.1685 6.00549 25.1113C6.00549 25.1685 5.94829 25.1685 5.8911 25.2829C5.8911 25.2829 5.8911 25.2829 5.8911 25.3401C5.8911 25.3401 5.8911 25.3973 5.94829 25.5117C5.94829 25.5117 5.94829 25.5117 5.71951 26.4842C5.71951 26.5414 5.71951 26.7702 5.71951 27.2278C5.71951 27.2278 5.71951 27.3422 5.77671 27.4566C5.77671 27.4566 5.77671 27.4566 5.8339 27.6282V27.6854C5.77671 28.8866 5.77671 30.0878 5.8911 31.3463C5.60512 30.2022 5.49073 29.1154 5.49073 28.0286ZM13.1549 44.7314C12.9833 44.617 12.8689 44.5026 12.7545 44.5026C12.6973 44.4454 12.5829 44.4454 12.5829 44.5026C12.4113 44.331 12.2398 44.2165 12.1254 44.0449C11.4962 43.4157 10.8671 42.7293 10.3523 41.9857C9.26561 40.5557 8.35049 39.0112 7.72134 37.4668C7.72134 37.2952 7.66415 37.0664 7.54976 36.7804C7.43537 36.4944 7.37817 36.2084 7.26378 35.9224C7.14939 35.6364 7.035 35.3504 6.97781 35.0644C6.86342 34.8355 6.86342 34.6067 6.86342 34.4923C6.57744 33.9203 6.29147 33.2911 6.11988 32.6047C5.8339 30.9459 5.77671 29.287 5.8339 27.6854V27.6282C5.8339 27.6282 5.8339 27.6282 5.8911 27.571C5.8911 27.571 5.8911 27.4566 5.94829 27.2278C5.94829 27.1134 5.94829 27.0562 5.94829 26.9418C5.94829 26.8274 5.94829 26.6558 6.00549 26.3126C6.00549 26.3698 6.00549 26.427 6.00549 26.4842C6.11988 26.5986 6.11988 26.5986 6.34866 26.0266C6.29146 26.7702 6.29146 27.571 6.29146 28.3718C6.40585 31.1175 6.86342 33.8631 7.89293 36.4372C8.86524 38.954 10.4667 41.2421 12.4685 43.1297C12.5257 43.1869 12.5829 43.3013 12.6973 43.3585C12.2398 42.9009 11.8966 42.6721 11.7822 42.6721C11.6678 42.7293 11.8394 43.0153 12.1254 43.4157C9.78037 40.8989 8.00732 37.9244 6.92061 34.7783C6.86342 34.6067 6.80622 34.4923 6.80622 34.5495C6.80622 34.6067 6.86342 34.8355 6.92061 35.0071C8.1789 38.7252 10.2951 42.0429 13.0977 44.6742C13.2121 44.7886 13.1549 44.7886 13.1549 44.7314ZM26.9389 51.4239C26.7673 51.3095 26.5957 51.1951 26.4813 51.0807C26.7673 51.2523 26.9961 51.3667 27.2821 51.5383C27.1677 51.4811 27.0533 51.4811 26.9389 51.4239ZM28.5976 50.6231C26.9961 50.5659 25.3374 50.2799 23.7932 49.8795H24.6511L25.1087 49.9939C25.4518 50.0511 25.7378 50.1083 26.081 50.1655C26.367 50.2227 26.6529 50.2799 26.8817 50.2799C27.1677 50.3371 27.4537 50.3371 27.7396 50.3943C27.9112 50.5087 28.2544 50.5659 28.712 50.6803H28.5976V50.6231ZM30.0846 52.7967H30.1418C30.199 52.8539 30.3134 52.8539 30.3706 52.9111C30.2562 52.8539 30.199 52.7967 30.0846 52.7967ZM43.6971 28.6578L41.2377 31.1175V39.2972C41.2377 41.0133 40.7801 42.7865 39.865 44.2738C39.0071 45.761 37.7488 47.0766 36.2045 47.9346C35.461 48.335 34.7174 48.6782 33.8595 48.907L32.8872 49.1931V46.333L33.402 46.1614C36.2617 45.0746 38.2635 42.4433 38.4351 39.3544V39.24V33.9775L29.9703 42.4433L27.9112 44.5026L25.795 42.3861L17.2729 33.8631V38.2104C17.2729 38.2104 17.2729 38.2104 17.2729 38.2676C17.2729 38.5536 17.2729 39.5832 17.4445 40.3841C17.5017 40.5557 17.5017 40.6701 17.5589 40.8417C17.5589 40.8989 17.6161 40.9561 17.6161 41.0133C17.8449 41.8713 18.2452 42.7293 18.76 43.4157C18.8744 43.5301 18.9316 43.6445 19.046 43.7589C19.1604 43.8733 19.2176 43.9877 19.332 44.1021C19.4463 44.2165 19.5607 44.3309 19.6751 44.4454C19.9039 44.6742 20.1327 44.8458 20.3615 45.0746C20.5331 45.189 20.6474 45.3034 20.819 45.4178C20.9906 45.5322 21.1622 45.6466 21.391 45.761C21.7342 45.9326 22.0201 46.047 22.3633 46.2186L22.8781 46.3902V49.3647L21.9057 49.0787C21.391 48.9642 20.9334 48.7354 20.4759 48.5638C20.1899 48.4494 19.9039 48.2778 19.5607 48.1062L18.9888 47.763C18.8172 47.6486 18.7028 47.5342 18.5312 47.4198C18.474 47.3626 18.4168 47.3626 18.4168 47.3054C18.3024 47.191 18.1881 47.1338 18.0737 47.0194C17.3301 46.3902 16.701 45.6466 16.1862 44.8458C16.0718 44.7314 16.0146 44.5598 15.9002 44.4454C15.7859 44.2165 15.6715 44.0449 15.6143 43.8161C15.5571 43.7017 15.4999 43.5301 15.4427 43.4157C15.3855 43.2441 15.2711 43.0725 15.2711 42.9581C15.1567 42.6721 15.0423 42.3289 14.9851 42.0429C14.9279 41.8713 14.8707 41.6425 14.8707 41.4709V41.4137C14.8707 41.3565 14.8707 41.2993 14.8135 41.2421V41.1849V41.1277C14.8135 41.1277 14.7563 40.8989 14.7563 40.3841C14.7563 40.3269 14.7563 40.2125 14.7563 40.1553C14.7563 40.0409 14.7563 39.9265 14.7563 39.812C14.7563 39.7548 14.7563 39.6977 14.7563 39.6404C14.7563 39.5832 14.7563 39.526 14.7563 39.4688C14.7563 39.3544 14.7563 39.24 14.7563 39.0684V31.0603L12.011 28.6006V24.4821L12.8117 25.2829L14.4704 26.9418V18.6476L22.3633 26.5986V26.4842C22.4205 26.2554 22.4205 26.0838 22.4777 25.855C22.5349 25.6833 22.5921 25.5689 22.6493 25.3973C22.6493 25.4545 22.6493 25.5689 22.7065 25.6834V25.7406C22.7065 25.855 22.6493 25.9694 22.6493 26.0838C22.6493 26.141 22.6493 26.1982 22.6493 26.1982C22.5921 26.3698 22.5349 26.5414 22.4777 26.713L27.7968 32.0327L41.1805 18.6476V26.9418L43.6399 24.4821V28.6578H43.6971ZM45.6417 41.2993C45.6417 41.2993 45.6989 41.2421 45.6417 41.2993C45.6989 41.2421 45.6989 41.2421 45.6417 41.2993C45.6989 41.2421 45.6989 41.2993 45.6417 41.2993ZM46.1565 20.1348C46.0993 19.9632 45.9849 19.6772 45.9277 19.906C45.5273 18.762 44.9554 17.618 44.269 16.5312C44.3262 16.5884 44.3834 16.6456 44.4406 16.7028C44.7838 17.1604 45.127 17.618 45.4129 18.0184C45.8133 18.8764 46.0993 19.7344 46.3853 20.5924C46.2709 20.4208 46.2137 20.2492 46.1565 20.1348ZM54.4498 28.4862C54.4498 28.429 54.3926 28.3718 54.3926 28.2574C54.4498 27.6854 54.3926 27.1134 54.3926 26.5414C54.3354 25.9122 54.3354 25.2829 54.221 24.6537L54.2782 25.2257C54.3354 25.3973 54.3354 25.6261 54.3354 25.7978C54.3926 26.141 54.3926 26.5414 54.3926 26.8846C54.3926 27.2278 54.4498 27.6282 54.4498 28.0286V28.4862Z" fill="#2E4121"/>
</svg>
