<svg width="58" height="58" viewBox="0 0 58 58" fill="none" xmlns="http://www.w3.org/2000/svg">
<path d="M56.7779 30.1028V29.3339C56.7779 29.0974 56.7779 28.8017 56.7779 28.5651V27.7371C56.7779 27.5006 56.7188 27.2049 56.7188 26.9683L56.6596 26.1403L56.5414 25.3715C56.4822 25.0758 56.4822 24.8392 56.4231 24.6027C56.3048 24.0704 56.2457 23.5381 56.0683 23.0059C56.0091 22.7693 55.95 22.4736 55.8909 22.237L55.6543 21.4682C55.5952 21.2316 55.4769 20.9359 55.4178 20.6994L55.1813 19.9305L54.8856 19.1617L54.7082 18.8068C54.649 18.6886 54.5899 18.5703 54.5308 18.452C54.2942 17.4466 53.7029 15.9681 52.7567 14.4304C52.7567 14.3713 52.8159 14.253 52.6976 13.9573C52.4019 13.3067 52.4611 13.7799 52.4611 13.9573C52.4611 13.8981 52.4019 13.839 52.4019 13.839C52.4019 13.7799 52.3428 13.7799 52.3428 13.7207C52.3428 13.6024 52.2837 13.4842 52.2245 13.425L51.988 12.8927C52.4019 13.425 52.2837 13.0702 52.2837 12.9519C52.1654 12.7745 51.988 12.4788 51.8697 12.2422C51.7514 12.0056 51.574 11.7099 51.3966 11.4734C51.101 11.0002 50.7462 10.6454 50.5096 10.6454C50.3322 10.3497 50.2139 10.1131 50.0957 9.93569C49.9774 9.75827 49.9183 9.63999 49.8591 9.52171C49.7409 9.28514 49.6817 9.16686 49.5043 8.93029C49.5635 9.10772 49.8 9.46256 49.7409 9.52171C49.5043 8.98944 49.5043 9.34428 49.6226 9.58085C49.2678 9.34428 48.6764 8.45717 48.026 7.68833C47.3755 6.9195 46.725 6.26895 46.5476 6.38723L46.6067 6.32809C46.2519 6.50551 46.311 6.9195 45.7197 6.74208L45.4832 6.38723L44.9509 6.20981C44.7144 5.9141 44.8918 5.9141 44.8918 5.9141C44.6553 5.85496 44.4779 5.67754 44.2413 5.55926C44.0048 5.38183 43.7683 5.26355 43.5317 5.08613C43.2952 4.90871 43.0586 4.79042 42.763 4.613C42.5264 4.43558 42.2899 4.3173 41.9942 4.13987L42.2899 4.79042C42.4082 5.02699 42.4673 5.26355 42.5856 5.50012C42.2307 5.14527 41.6985 4.73128 41.2846 4.37644C40.8115 4.02159 40.3976 3.84417 40.2793 3.90331C40.161 3.72588 40.0428 3.54846 39.8654 3.37104C39.5106 3.07533 39.2149 2.89791 38.9783 2.77963C38.8009 2.72049 38.6235 2.72049 38.5053 2.72049C38.2687 2.77963 38.2096 2.89791 37.8548 2.72049C37.5591 2.48392 37.3226 2.3065 37.0269 2.12908C37.3226 2.24736 37.6182 2.3065 37.9139 2.42478C37.7956 2.36564 37.7365 2.3065 37.6182 2.24736C37.5591 2.18822 37.4408 2.18822 37.3817 2.12908C37.2043 2.06994 37.086 1.95165 36.9086 1.89251C36.6129 1.71509 36.3764 1.53767 36.0216 1.36024C36.2581 1.36024 36.2581 1.36024 36.2581 1.36024L36.1399 1.3011C36.0807 1.36024 35.9033 1.41938 35.6668 1.41938C35.4303 1.41938 35.1346 1.36024 34.7798 1.3011C34.5432 1.24196 34.3067 1.18282 34.0702 1.18282C34.011 1.24196 33.8928 1.18282 33.7745 1.18282C33.6562 1.18282 33.5379 1.18282 33.4197 1.12368C32.8875 1.06454 32.3553 0.946256 31.5865 0.768833L31.1726 1.06454C30.9952 1.0054 30.8177 1.0054 30.5812 0.946256L29.9899 0.827974V0.532269C30.3447 0.59141 30.6995 0.59141 31.0543 0.59141C31.4091 0.59141 31.8822 0.650551 32.2961 0.650551C32.7101 0.650551 33.1831 0.709692 33.5971 0.768833C34.011 0.827974 34.425 0.887115 34.7798 0.946256L34.8389 0.827974C34.6024 0.768833 34.425 0.768833 34.1884 0.709692C34.0702 0.709692 33.9519 0.650551 33.8336 0.650551C33.7154 0.650551 33.5971 0.650551 33.4788 0.650551C33.0649 0.650551 32.6509 0.59141 32.3553 0.532269C32.1187 0.473128 31.5274 0.177423 31.7639 0L31.35 0.177423C30.9951 0.118282 30.6403 0.118282 30.3447 0.118282C30.049 0.118282 29.8125 0.118282 29.5759 0.118282H28.3932C28.2158 0.118282 28.0384 0.118282 27.8019 0.118282C27.6245 0.118282 27.3879 0.118282 27.1514 0.118282C26.9149 0.118282 26.6783 0.118282 26.3826 0.118282C26.087 0.118282 25.7322 0.118282 25.3774 0.118282L25.673 0.236564C25.3774 0.295705 25.0817 0.354846 24.8451 0.413987C24.6086 0.473128 24.4312 0.473128 24.3129 0.354846C22.4798 0.59141 20.5874 0.827974 19.3456 0.887115L19.1682 1.3011C18.8134 1.36024 18.0446 1.12368 18.0446 1.65595L17.6898 1.77423L17.335 1.95165C16.8028 2.12908 16.5663 2.42478 15.9749 2.54306H15.8567C15.2653 2.72049 15.3244 2.83877 15.3244 2.89791C15.3244 2.95705 15.3244 3.01619 14.674 3.3119C14.4374 3.3119 14.3783 3.43018 14.26 3.66674C14.2009 3.72588 14.2009 3.84417 14.0826 3.96245C14.0235 4.08073 13.9052 4.13987 13.7278 4.19901C13.4321 4.19901 13.1956 4.19901 12.8999 4.13987C11.7172 4.613 11.7764 5.08613 10.3571 6.20981C9.58838 6.6238 8.99703 6.6238 9.23357 5.97324C9.05617 6.38723 9.05617 6.50551 8.99703 6.56465C8.9379 6.68294 8.81963 6.80122 8.52395 7.21521C8.28742 7.21521 8.34655 7.09692 8.40569 6.80122C7.99174 7.03778 7.87347 7.21521 7.87347 7.33349C7.81434 7.45177 7.81434 7.57005 7.5778 7.86576C7.69607 8.2206 7.87347 8.75287 7.7552 8.93029C7.81434 8.87115 7.93261 8.87115 7.99174 8.81201C7.63693 9.46256 7.16386 10.1131 6.57251 10.7045L6.45424 10.6454L6.2177 11.0002L5.98116 11.4142L5.74462 11.3551C5.50809 11.7099 5.27154 12.1239 5.09414 12.4788L5.21241 12.3605C5.15328 12.4788 4.97587 12.7745 4.79847 13.0702C4.62106 13.3659 4.44366 13.7207 4.26626 13.9573L4.20712 13.8981C4.08885 14.0756 3.97058 14.1938 3.85231 14.3713C3.73404 14.5487 3.67491 14.7261 3.55664 14.9035C3.37923 15.2584 3.26096 15.6132 3.1427 15.9681C3.02443 16.3229 2.90616 16.7369 2.84702 17.1509C2.72875 17.5649 2.66962 17.9789 2.49221 18.452C2.43308 18.3337 2.37394 18.2154 2.31481 18.1563C1.90087 18.6886 2.61048 18.452 2.25567 19.1026L1.96 19.0434C2.07827 19.3983 1.96 19.6348 1.84173 19.8122C1.72346 19.9897 1.48692 20.1079 1.36865 20.2854L1.7826 20.1671L1.48692 20.9951C1.13211 21.8822 0.895576 21.4682 0.718172 21.2908L0.895576 22.0005L0.540766 22.0596C0.83644 22.5919 0.363363 22.5327 0.481633 23.4198C0.363363 23.479 0.304228 23.2424 0.185959 23.5381C0.245094 24.0113 0.363363 24.4844 0.481633 24.9575L0.363363 24.1295L0.83644 24.307C0.954709 24.7801 0.954711 25.0167 0.895576 25.3124C0.836441 25.5489 0.718171 25.7855 0.777306 26.0812C0.718171 25.9038 0.718171 25.7855 0.659036 25.6672C0.718171 26.6726 0.481632 26.7317 0.363363 27.264C0.481632 27.0866 0.599901 26.85 0.659036 27.264C0.659036 27.5597 0.481633 27.4414 0.422499 27.678C0.599903 27.7371 0.718171 27.9146 0.777306 28.1511C0.836441 28.4468 0.836441 28.7425 0.777306 29.0974C0.718171 29.0974 0.718171 29.0382 0.659036 29.0382C0.718171 29.2157 0.836442 29.2748 0.718172 29.5705L0.363363 29.3931L0.718172 29.9254C0.599903 30.2802 0.95471 30.8716 0.659036 30.8125L0.599902 30.6351C0.659037 31.1082 0.659036 31.5813 0.659036 32.0544C0.718171 32.5276 0.718171 33.0007 0.777306 33.4738L0.481633 33.5921C0.718171 33.7104 0.718171 34.0652 0.777306 34.4201C0.777306 34.7749 0.83644 35.0706 1.13211 34.9523C1.07298 35.2481 1.19125 35.7212 1.30952 36.1352C1.42779 36.5492 1.48692 36.8449 1.19125 36.7857C1.30952 37.2588 1.42779 37.6728 1.60519 38.0277C1.7826 38.3825 1.96 38.7374 2.1374 39.0922C2.31481 39.4471 2.49221 39.8019 2.66962 40.2159C2.84702 40.6299 3.02442 41.0439 3.20183 41.6353C3.20183 41.8718 3.26097 42.1676 3.37924 42.5224C3.43837 42.6998 3.4975 42.8772 3.61577 43.0547C3.67491 43.2321 3.79318 43.4095 3.91145 43.6461C4.02972 43.8235 4.14799 44.0009 4.20712 44.2375C4.32539 44.4149 4.44366 44.5923 4.56193 44.7698C4.79847 45.1246 5.03501 45.4795 5.21241 45.8343C5.44895 46.13 5.68549 46.3666 5.86289 46.6623C6.09943 46.8988 6.33597 47.1354 6.51338 47.372C6.74991 47.6085 6.92732 47.8451 7.16386 48.0225L7.81434 48.6731C8.05088 48.8505 8.28742 49.0871 8.52395 49.2645C8.64222 49.3828 8.7605 49.501 8.87876 49.5602C8.99703 49.6785 9.1153 49.7376 9.23357 49.8559C9.47011 50.0333 9.70665 50.2699 10.0023 50.4473C10.2389 50.6839 10.5345 50.8613 10.8302 51.0979C10.9485 51.2753 11.0667 51.5118 11.2442 51.6893C11.4216 51.8667 11.599 52.0441 11.7764 52.2215C11.9538 52.399 12.1903 52.5172 12.4268 52.6947C12.6634 52.8721 12.8999 52.9904 13.1365 53.1678C13.6095 53.4044 14.1418 53.7001 14.6148 53.9366C15.0879 54.1732 15.561 54.4689 15.9158 54.7646H16.5071C16.6254 54.8829 16.7437 55.0012 16.9211 55.1194C17.0985 55.2377 17.2168 55.2969 17.3942 55.4151C17.749 55.5926 18.1038 55.77 18.5177 55.8883C19.3456 56.184 20.1735 56.4797 21.0014 56.9528C21.4153 56.9528 21.6519 56.9528 21.7701 57.012C21.711 56.9528 21.5927 56.8937 21.5927 56.7162C22.0067 57.012 23.0711 57.0711 22.8937 57.3668H22.7754C22.7163 57.5442 23.0711 57.6034 23.5442 57.6034C24.0173 57.6625 24.5495 57.6625 24.8451 57.8991L24.6086 57.4851C24.786 57.5442 24.9043 57.5442 25.0817 57.6034L25.5548 57.7216L25.3182 57.7808C25.5548 57.7808 25.8504 57.7808 26.087 57.7216C26.3235 57.7216 26.56 57.7216 26.7966 57.7216C27.2697 57.7216 27.6836 57.7216 28.0975 57.7216C28.5115 57.7216 28.8663 57.7216 29.2802 57.7808C29.6942 57.7808 30.049 57.8399 30.4038 57.8399C31.1134 57.8991 31.823 57.8991 32.6509 57.7808C33.4197 57.7216 34.2476 57.5442 35.1346 57.1894C34.7206 57.6625 35.8442 56.8345 35.9625 57.2485C36.4947 57.4259 36.9086 57.3077 37.3226 57.0711C37.7365 56.8345 38.0322 56.5388 38.4461 56.3614C38.4461 56.3023 38.4461 56.3023 38.5053 56.2431C38.9192 56.1248 39.3923 56.0066 39.8062 55.8883C39.5106 56.2431 39.688 56.0657 39.9245 55.8883C39.9836 55.77 40.1019 55.7108 40.161 55.6517C40.161 55.6517 40.1019 55.7108 40.0428 55.8291C41.8168 55.4151 43.7683 54.528 45.6014 53.2861C47.4346 52.1032 49.1495 50.6247 50.6279 49.0871L50.3913 49.1462C50.5687 48.9688 50.7462 48.7322 50.9236 48.4956C51.0418 48.3774 51.101 48.2591 51.2192 48.1408C51.2784 48.0225 51.3966 47.9042 51.4558 47.786C51.6332 47.5494 51.8106 47.372 51.988 47.1354C52.1654 46.958 52.3428 46.7806 52.5202 46.6623C52.6976 46.544 52.8159 46.3666 52.9341 46.1891C53.0524 46.0117 53.1115 45.8343 53.1707 45.5977C53.2889 45.2429 53.3481 44.888 53.4072 44.7106C53.5255 44.2375 53.762 43.9418 53.9986 43.7644C54.176 43.6461 54.2942 43.5869 54.2942 43.6461C54.4716 43.2321 54.5308 42.8181 54.649 42.345C54.7082 42.1084 54.7673 41.8718 54.8856 41.5761C54.9447 41.4579 55.0039 41.3396 55.063 41.2213C55.1221 41.103 55.1813 40.9256 55.2995 40.8073C55.4178 40.7482 55.5952 40.5116 55.7135 40.1568C55.8317 39.8019 55.8909 39.3879 56.0091 38.9739C56.0683 38.56 56.1274 38.2051 56.2457 37.9094C56.3048 37.6137 56.4231 37.4363 56.5414 37.4363H56.4822C56.6596 37.0814 56.837 36.6674 56.8962 36.2534C57.0144 35.8395 57.0144 35.4255 57.0736 35.0706C57.1327 34.6566 57.1327 34.2427 57.1918 33.8287C57.251 33.5921 57.251 33.4147 57.3101 33.1781C57.3692 32.9416 57.3692 32.7641 57.4875 32.5276C57.4875 32.5276 57.5466 32.5867 57.5466 32.6458C57.3692 31.5813 57.0736 30.8125 56.7779 30.1028ZM39.9245 13.6024L39.8654 13.5433C39.9245 13.5433 39.9245 13.6024 39.9245 13.6024ZM25.9096 8.51631C26.7966 7.74747 27.8019 7.09692 28.9254 6.56465C30.049 7.03778 31.0543 7.68833 31.9413 8.51631C34.425 10.6454 36.0216 13.839 36.0216 17.3875C36.0216 20.9359 34.425 24.1295 31.9413 26.3178C31.0543 27.0866 30.049 27.7371 28.9254 28.2103C27.861 27.7371 26.7966 27.0866 25.9096 26.3178C23.4259 24.1887 21.8293 20.9951 21.8293 17.4466C21.8884 13.8981 23.4259 10.7045 25.9096 8.51631ZM23.6033 25.7855C23.5442 25.8446 23.5442 25.9038 23.5442 25.9629C23.485 25.9038 23.4259 25.9629 23.3668 26.1403V24.8392C23.4259 24.6618 23.485 24.5435 23.5442 24.3661C23.5442 24.307 23.6624 24.4252 23.7216 24.3661C23.7807 24.307 23.7807 24.2478 23.8398 24.1887C23.7807 24.3661 23.7216 24.5435 23.6033 24.7801C23.6033 25.2532 23.6033 25.5489 23.6033 25.7855ZM19.1091 16.0864C18.636 16.5595 18.2221 17.0918 17.8081 17.6832C17.6898 17.8606 17.6307 17.9789 17.5716 18.0972C17.5124 18.2154 17.5124 18.2746 17.4533 18.3929C17.3942 18.452 17.335 18.5111 17.335 18.5703C17.0394 18.8068 16.6845 19.0434 16.3889 19.3983C16.7437 18.8068 17.0985 18.2154 17.5124 17.624C17.749 17.3875 18.0446 17.0918 18.2812 16.8552C18.4586 16.6186 18.7543 16.3229 19.1091 16.0864ZM14.4966 9.75827C15.6201 8.81201 16.8028 8.04318 18.0446 7.39263C18.1629 7.33349 18.2812 7.27435 18.3995 7.21521C18.3403 7.27435 18.2221 7.33349 18.2221 7.39263H18.2812C16.8028 8.2206 15.3836 9.226 14.0235 10.4088C13.7869 10.5862 13.5504 10.8819 13.3139 11.0594C13.0773 11.2959 12.8999 11.5325 12.6634 11.7691C12.5451 11.8873 12.3677 12.0056 12.2494 12.1239C12.1312 12.2422 11.9538 12.3605 11.8355 12.5379C11.7172 12.6562 11.5398 12.8336 11.4216 12.9519C11.2442 13.1293 11.1259 13.3067 10.9485 13.4842C11.9538 12.1831 13.1956 10.8228 14.4966 9.75827ZM11.5398 21.7639C11.4807 21.9413 11.4216 22.1187 11.4216 22.2962H11.3624C11.4216 22.1187 11.4807 21.9413 11.5398 21.7639ZM10.0615 39.0922L9.82492 38.6191C9.76578 38.4417 9.64751 38.3825 9.70665 38.4417C9.70665 38.5008 9.76579 38.7374 9.88406 38.8557C10.1797 39.3879 10.4754 39.9202 10.8302 40.4525C11.0667 40.8665 11.3033 41.2804 11.599 41.6944C11.5398 41.6944 11.4807 41.6944 11.4807 41.6944C11.4216 41.6944 11.4216 41.7536 11.4216 41.7536C11.2442 41.517 11.0667 41.2213 10.8893 40.9847C10.5345 40.4525 10.2389 39.8611 9.94319 39.3288C10.0023 39.3879 10.0023 39.3288 9.94319 39.2105C9.94319 39.1514 9.88405 39.0331 9.82492 38.9739C9.76578 38.8557 9.76578 38.7965 9.70665 38.7374C9.64751 38.6782 9.64752 38.6782 9.64752 38.6782C9.64752 38.6782 9.64752 38.7374 9.64752 38.7965C9.1153 37.6137 8.64223 36.3717 8.28742 35.1298C8.05088 34.1835 7.87347 33.2373 7.7552 32.2319C7.51866 30.4576 7.51866 28.7425 7.63693 27.0275L7.69607 26.3769V26.0812L7.7552 25.7263L7.81434 25.0758C7.87347 24.8392 7.87347 24.6618 7.93261 24.4252C7.99174 24.0704 8.05088 23.6564 8.16915 23.3016C8.22828 23.3016 8.22828 23.3016 8.22828 23.2424C8.34655 23.1833 8.46482 23.0059 8.58309 22.7102C8.46482 23.0059 8.40569 23.2424 8.34655 23.5381C8.28742 23.8338 8.16915 24.1295 8.11001 24.4844L7.99174 24.9575L7.93261 25.4306C7.87347 25.7263 7.81434 26.0812 7.81434 26.3769C7.69607 27.5597 7.63694 28.8017 7.69607 29.9845C7.7552 31.1673 7.93261 32.4093 8.22828 33.5921C8.52395 34.7749 8.87876 35.9577 9.41098 37.0814L9.52925 37.3771V37.4363C9.52925 37.4954 9.58838 37.6728 9.58838 37.8503C9.70665 38.146 9.88405 38.6191 10.0615 39.0922ZM6.69078 22.5919C6.69078 22.4736 6.74991 22.3553 6.74991 22.1779L6.86818 21.7639C6.92732 21.5273 6.98645 21.2908 7.04559 21.0542C7.28213 20.3445 7.51867 19.694 7.81434 19.0434C7.93261 18.7477 8.11001 18.3337 8.16915 18.1563C8.16915 17.9789 8.11001 18.0972 7.93261 18.452C7.87347 18.5703 7.81434 18.6886 7.7552 18.8068C7.7552 18.7477 7.7552 18.7477 7.7552 18.7477L8.05088 18.038C8.11001 17.9197 8.11001 17.8014 8.16915 17.6832L8.34655 17.3283C8.58309 16.7961 8.81963 16.3229 9.1153 15.7907C9.17444 15.7315 9.17444 15.6132 9.23357 15.5541C9.29271 15.4358 9.23357 15.6724 9.41098 15.4949C9.47011 15.3767 9.52925 15.3175 9.58838 15.1992C9.52925 15.3767 9.41098 15.4949 9.29271 15.6724C9.17444 15.8498 9.1153 16.0272 8.99703 16.2046C8.34655 17.624 8.22828 18.1563 8.05088 18.5111C8.05088 18.5111 8.05088 18.5111 7.99174 18.6294C7.93261 18.8068 7.87347 18.9843 7.81434 19.1617C7.81434 19.2208 7.7552 19.2208 7.7552 19.28C7.69607 19.5165 7.5778 19.694 7.51867 19.9305C7.4004 20.1671 7.34126 20.4037 7.34126 20.5219C7.28213 20.5811 7.28213 20.6994 7.22299 20.8176C7.04559 21.4091 6.92732 21.7639 6.86818 22.0596C6.80905 22.237 6.74991 22.4144 6.69078 22.5919C6.69078 22.7693 6.63164 22.9467 6.57251 23.1833C6.63164 22.9467 6.69078 22.7693 6.69078 22.5919ZM5.86289 28.9791L5.92203 29.0382V28.8017V28.506V27.9737C5.92203 27.9146 5.98116 27.9146 6.0403 27.9737C5.98116 27.7963 5.98116 27.678 5.98116 27.5006C5.98116 27.3823 5.98116 27.2049 5.98116 27.0866C6.0403 26.9092 6.0403 26.6726 6.09943 26.3769C6.15857 26.0812 6.15857 25.7263 6.2177 25.3124C6.2177 25.0758 6.27684 24.8392 6.27684 24.6618C6.27684 24.6027 6.27684 24.6027 6.33597 24.5435C6.45424 24.1295 6.51338 23.7747 6.63165 23.3607V23.4198C6.63165 23.4198 6.69078 23.4198 6.69078 23.3607C6.69078 23.4198 6.69078 23.5381 6.63165 23.7156C6.63165 23.893 6.57251 24.1295 6.51338 24.3661C6.45424 24.6027 6.45424 24.7209 6.45424 24.9575C6.3951 25.1349 6.39511 25.4306 6.33597 26.0221V25.9629V26.0221C6.33597 26.0221 6.33597 26.0221 6.39511 25.9629C6.39511 26.0221 6.33597 26.0221 6.27684 26.1403C6.27684 26.1403 6.27684 26.1403 6.27684 26.1995C6.27684 26.1995 6.27684 26.2586 6.33597 26.3769C6.33597 26.3769 6.33597 26.3769 6.09943 27.3823C6.09943 27.4414 6.09943 27.678 6.09943 28.1511C6.09943 28.1511 6.09943 28.2694 6.15857 28.3877C6.15857 28.3877 6.15857 28.3877 6.2177 28.5651V28.6243C6.15857 29.8662 6.15857 31.1082 6.27684 32.4093C5.98116 31.2265 5.86289 30.1028 5.86289 28.9791ZM13.7869 46.2483C13.6095 46.13 13.4913 46.0117 13.373 46.0117C13.3139 45.9526 13.1956 45.9526 13.1956 46.0117C13.0182 45.8343 12.8408 45.716 12.7225 45.5386C12.072 44.888 11.4216 44.1783 10.8893 43.4095C9.76578 41.931 8.81963 40.3342 8.16915 38.7374C8.16915 38.56 8.11001 38.3234 7.99174 38.0277C7.87347 37.732 7.81434 37.4363 7.69607 37.1406C7.5778 36.8449 7.45953 36.5492 7.4004 36.2534C7.28213 36.0169 7.28213 35.7803 7.28213 35.662C6.98645 35.0706 6.69078 34.4201 6.51338 33.7104C6.2177 31.9953 6.15857 30.2802 6.2177 28.6243V28.5651C6.2177 28.5651 6.2177 28.5651 6.27684 28.506C6.27684 28.506 6.27684 28.3877 6.33597 28.1511C6.33597 28.0328 6.33597 27.9737 6.33597 27.8554C6.33597 27.7371 6.33597 27.5597 6.39511 27.2049C6.39511 27.264 6.39511 27.3232 6.39511 27.3823C6.51337 27.5006 6.51337 27.5006 6.74991 26.9092C6.69078 27.678 6.69078 28.506 6.69078 29.3339C6.80905 32.1727 7.28213 35.0115 8.34655 37.6728C9.35184 40.275 11.0076 42.6407 13.0773 44.5923C13.1365 44.6515 13.1956 44.7698 13.3139 44.8289C12.8408 44.3558 12.486 44.1192 12.3677 44.1192C12.2494 44.1783 12.4268 44.4741 12.7225 44.888C10.298 42.2858 8.46482 39.2105 7.34126 35.9577C7.28213 35.7803 7.22299 35.662 7.22299 35.7212C7.22299 35.7803 7.28213 36.0169 7.34126 36.1943C8.64222 40.0385 10.8302 43.4687 13.7278 46.1891C13.8461 46.3074 13.7869 46.3074 13.7869 46.2483ZM28.0384 53.1678C27.861 53.0495 27.6836 52.9312 27.5653 52.8129C27.861 52.9904 28.0975 53.1086 28.3932 53.2861C28.275 53.2269 28.1567 53.2269 28.0384 53.1678ZM29.7533 52.3398C28.0975 52.2807 26.3826 51.985 24.786 51.571H25.673L26.1461 51.6893C26.5009 51.7484 26.7966 51.8075 27.1514 51.8667C27.4471 51.9258 27.7427 51.985 27.9793 51.985C28.275 52.0441 28.5706 52.0441 28.8663 52.1032C29.0437 52.2215 29.3985 52.2807 29.8716 52.3989H29.7533V52.3398ZM31.2908 54.5872H31.35C31.4091 54.6463 31.5274 54.6463 31.5865 54.7055C31.4682 54.6463 31.4091 54.5872 31.2908 54.5872ZM45.3649 29.6297L42.8221 32.1727V40.6299C42.8221 42.4041 42.349 44.2375 41.4029 45.7752C40.5158 47.3128 39.2149 48.6731 37.6182 49.5602C36.8495 49.9742 36.0807 50.329 35.1937 50.5656L34.1884 50.8613V47.9042L34.7206 47.7268C37.6774 46.6031 39.7471 43.8826 39.9245 40.689V40.5707V35.1298L31.1726 43.8826L29.0437 46.0117L26.8557 43.8235L18.0446 35.0115V39.5062C18.0446 39.5062 18.0446 39.5062 18.0446 39.5653C18.0446 39.8611 18.0446 40.9256 18.2221 41.7536C18.2812 41.931 18.2812 42.0493 18.3403 42.2267C18.3403 42.2858 18.3995 42.345 18.3995 42.4041C18.636 43.2912 19.0499 44.1783 19.5822 44.888C19.7004 45.0063 19.7596 45.1246 19.8778 45.2429C19.9961 45.3612 20.0552 45.4795 20.1735 45.5977C20.2918 45.716 20.41 45.8343 20.5283 45.9526C20.7648 46.1891 21.0014 46.3666 21.2379 46.6031C21.4153 46.7214 21.5336 46.8397 21.711 46.958C21.8884 47.0763 22.0658 47.1945 22.3023 47.3128C22.6572 47.4902 22.9528 47.6085 23.3076 47.786L23.8398 47.9634V51.0387L22.8346 50.743C22.3023 50.6247 21.8293 50.3882 21.3562 50.2107C21.0605 50.0925 20.7648 49.915 20.41 49.7376L19.8187 49.3828C19.6413 49.2645 19.523 49.1462 19.3456 49.0279C19.2865 48.9688 19.2273 48.9688 19.2273 48.9096C19.1091 48.7913 18.9908 48.7322 18.8725 48.6139C18.1038 47.9634 17.4533 47.1945 16.9211 46.3666C16.8028 46.2483 16.7437 46.0709 16.6254 45.9526C16.5071 45.716 16.3889 45.5386 16.3297 45.302C16.2706 45.1837 16.2115 45.0063 16.1523 44.888C16.0932 44.7106 15.9749 44.5332 15.9749 44.4149C15.8567 44.1192 15.7384 43.7644 15.6793 43.4687C15.6201 43.2912 15.561 43.0547 15.561 42.8772V42.8181C15.561 42.759 15.561 42.6998 15.5019 42.6407V42.5815V42.5224C15.5019 42.5224 15.4427 42.2858 15.4427 41.7536C15.4427 41.6944 15.4427 41.5761 15.4427 41.517C15.4427 41.3987 15.4427 41.2804 15.4427 41.1622C15.4427 41.103 15.4427 41.0439 15.4427 40.9847C15.4427 40.9256 15.4427 40.8665 15.4427 40.8073C15.4427 40.689 15.4427 40.5707 15.4427 40.3933V32.1136L12.6043 29.5705V25.3124L13.4321 26.1403L15.147 27.8554V19.28L23.3076 27.5006V27.3823C23.3668 27.1457 23.3668 26.9683 23.4259 26.7317C23.485 26.5543 23.5442 26.436 23.6033 26.2586C23.6033 26.3178 23.6033 26.436 23.6624 26.5543V26.6135C23.6624 26.7317 23.6033 26.85 23.6033 26.9683C23.6033 27.0274 23.6033 27.0866 23.6033 27.0866C23.5442 27.264 23.485 27.4414 23.4259 27.6189L28.9254 33.119L42.763 19.28V27.8554L45.3058 25.3124V29.6297H45.3649ZM47.3755 42.6998C47.3755 42.6998 47.4346 42.6407 47.3755 42.6998C47.4346 42.6407 47.4346 42.6407 47.3755 42.6998C47.4346 42.6407 47.4346 42.6998 47.3755 42.6998ZM47.9077 20.8176C47.8485 20.6402 47.7303 20.3445 47.6711 20.5811C47.2572 19.3983 46.6659 18.2154 45.9562 17.0918C46.0154 17.1509 46.0745 17.21 46.1336 17.2692C46.4884 17.7423 46.8433 18.2154 47.1389 18.6294C47.5529 19.5165 47.8485 20.4037 48.1442 21.2908C48.026 21.1133 47.9668 20.9359 47.9077 20.8176ZM56.4822 29.4522C56.4822 29.3931 56.4231 29.334 56.4231 29.2157C56.4822 28.6243 56.4231 28.0328 56.4231 27.4414C56.364 26.7909 56.364 26.1403 56.2457 25.4898L56.3048 26.0812C56.3639 26.2586 56.3639 26.4952 56.3639 26.6726C56.4231 27.0274 56.4231 27.4414 56.4231 27.7963C56.4231 28.1511 56.4822 28.5651 56.4822 28.9791V29.4522Z" fill="#C8E1BC"/>
</svg>
