<svg width="24" height="25" viewBox="0 0 24 25" fill="none" xmlns="http://www.w3.org/2000/svg">
<path d="M17 2.86035H7C4.23858 2.86035 2 5.09893 2 7.86035V17.8604C2 20.6218 4.23858 22.8604 7 22.8604H17C19.7614 22.8604 22 20.6218 22 17.8604V7.86035C22 5.09893 19.7614 2.86035 17 2.86035Z" stroke="white" stroke-width="1.25" stroke-linecap="round" stroke-linejoin="round"/>
<path d="M16 12.2307C16.1234 13.0629 15.9812 13.9129 15.5937 14.6597C15.2062 15.4065 14.5931 16.0121 13.8416 16.3903C13.0901 16.7686 12.2384 16.9002 11.4077 16.7666C10.5771 16.6329 9.80971 16.2407 9.21479 15.6458C8.61987 15.0509 8.22768 14.2835 8.09402 13.4529C7.96035 12.6222 8.09202 11.7705 8.47028 11.019C8.84854 10.2675 9.45414 9.65439 10.2009 9.26689C10.9477 8.8794 11.7977 8.73724 12.63 8.86065C13.4789 8.98654 14.2648 9.38212 14.8716 9.98896C15.4785 10.5958 15.8741 11.3817 16 12.2307Z" stroke="white" stroke-width="1.25" stroke-linecap="round" stroke-linejoin="round"/>
<path d="M17.5 7.36035H17.51" stroke="white" stroke-width="2" stroke-linecap="round" stroke-linejoin="round"/>
</svg>
