<svg width="119" height="37" viewBox="0 0 119 37" fill="none" xmlns="http://www.w3.org/2000/svg">
<g clip-path="url(#clip0_2502_500)">
<path d="M71.4434 10.4398V10.3687C79.3263 6.39178 80.8177 3.55109 80.8887 2.48583C80.9597 1.06548 79.1843 0.142258 76.0595 0.000223871C74.6392 -0.0707934 73.716 0.000223881 71.5144 0.284293L69.597 0.639379C66.3302 1.20752 62.6373 2.91193 62.2112 3.90617C62.1401 4.11923 62.0691 4.75838 62.2822 4.90042C62.7793 5.2555 64.0576 3.6221 68.2476 2.69888L69.1709 2.48583H69.2419C66.9693 7.24399 58.9444 24.7142 61.714 24.6432C61.9981 24.6432 61.9981 24.3592 62.9213 24.0751C63.4895 23.933 63.7025 23.3649 63.7735 22.9388C64.2707 19.814 67.1824 9.01942 70.5912 2.34379H70.8043C73.5739 1.91769 75.7044 2.05973 77.3378 2.7699C78.119 3.12498 78.4741 3.40905 78.4031 4.19024C78.3321 5.53957 73.4319 8.16721 71.5854 9.23247C70.5202 9.87162 68.3897 10.9369 68.3897 11.576C68.3897 12.1442 70.0231 12.9964 70.9463 13.4935C72.7927 14.3457 74.3551 15.34 75.4914 16.4762C76.3436 17.3284 76.7697 18.3227 76.6987 19.53C76.6277 21.0213 75.9175 22.1576 73.787 22.5127C71.3724 22.8678 66.8983 22.2286 65.691 19.672C65.62 19.601 65.549 19.601 65.478 19.672C65.0519 20.3822 63.9156 22.6547 65.4069 23.649C66.0461 24.0751 66.8983 24.3591 67.4664 24.5012C69.0998 24.8563 70.4492 24.7142 72.0826 24.4302C73.2188 24.2171 75.9885 23.1519 77.4799 21.5895C78.5451 20.5242 79.0423 19.2459 79.0423 18.1096C79.2553 13.3515 71.7985 10.5108 71.4434 10.4398Z" fill="black"/>
<path d="M118.457 23.9328C118.102 23.7198 116.61 22.5125 117.036 16.618C117.179 14.4875 116.397 14.1324 113.557 15.4107C111.781 16.1919 109.864 17.8963 108.656 19.6718C107.591 21.3052 102.336 23.9328 101.555 21.7313C101.342 21.1631 101.413 17.1151 106.952 15.6238C107.52 15.4817 107.591 15.1977 107.165 14.7716C107.023 14.6295 106.668 14.4165 106.384 14.3455C105.958 14.2745 104.75 14.7006 103.969 15.1267C102.265 15.9789 100.845 17.3992 99.1401 19.7428C98.643 20.453 97.7198 21.0921 97.0096 21.5892C96.5125 21.8733 95.6603 22.2994 95.6603 22.2994C97.0806 20.595 97.5067 16.9731 96.9386 14.8426C96.7255 14.2034 95.6603 13.5643 95.1632 13.6353C95.0211 13.6353 94.8081 13.7773 93.9559 14.5585C93.6008 14.8426 91.7543 17.4702 88.7716 18.0384C88.7716 17.9674 88.7716 17.9674 88.7716 17.8963C88.7716 17.3992 88.5586 17.0441 88.2745 16.689C87.9904 16.476 87.6353 16.334 87.2092 16.405C86.7121 16.476 86.0019 16.7601 85.7889 17.4702C85.5758 18.1804 86.0019 19.1036 86.5701 19.1746C86.6411 19.6008 86.215 20.737 85.8599 21.2341C85.2918 22.2284 84.3685 22.9386 83.4453 22.9386C81.6699 22.9386 82.096 20.0979 83.1612 18.3935C83.9424 17.1151 85.1497 15.9079 86.7121 15.7658C87.0672 15.7658 87.4223 15.7658 87.8484 15.8368C87.9904 15.8368 88.0614 15.7658 87.9904 15.6238C87.8484 15.1977 87.2803 14.2745 85.5048 14.3455C82.6641 14.4875 80.1785 18.1094 79.9655 20.808C79.7524 22.6545 81.3148 24.572 83.5163 24.3589C85.9309 24.1459 88.0614 21.4472 88.6296 19.0326C91.8254 18.3935 94.311 15.8368 94.311 15.8368C95.3762 15.9079 94.524 20.3819 93.2457 21.8023C91.6833 23.5067 89.8369 21.0211 90.8311 23.6487C91.1152 24.3589 93.8849 24.856 98.0749 22.2284C98.3589 22.0864 98.643 21.8733 98.9981 21.6603C99.6373 25.9213 104.893 23.7908 107.165 21.9443C107.236 21.8733 107.591 21.5892 107.662 21.5892C106.952 24.572 109.58 24.643 111.426 23.7198C112.633 23.1516 113.628 22.1574 114.622 20.8791C115.758 25.3531 117.96 24.2169 118.386 23.8618C118.528 24.0038 118.457 23.9328 118.457 23.9328ZM114.409 19.0326C113.912 20.808 112.704 22.2284 111.568 22.5835C110.574 22.9386 109.793 22.4414 110.148 20.9501C110.503 19.5297 111.071 18.8196 111.994 17.8253C113.131 16.547 114.267 15.9789 114.409 16.0499C114.764 16.334 114.551 18.5355 114.409 19.0326Z" fill="black"/>
<path d="M36.858 12.7118C37.5682 12.9248 38.3494 12.4277 38.7045 11.5755C38.9885 10.7233 38.7045 9.80007 37.9943 9.516C37.2841 9.30295 36.5029 9.80007 36.1478 10.6523C35.7928 11.5045 36.1478 12.4277 36.858 12.7118Z" fill="black"/>
<path d="M56.1038 9.94257C55.3936 9.80054 54.6834 10.3687 54.5414 11.2919C54.3993 12.1441 54.8254 12.9253 55.5356 13.0673C56.2458 13.2094 56.956 12.6412 57.098 11.718C57.311 10.8658 56.8139 10.0846 56.1038 9.94257Z" fill="black"/>
<path d="M56.5298 15.6951C56.2457 15.624 54.0441 15.553 53.547 16.6893C53.0499 17.7546 51.1324 20.8083 48.2207 23.2229C48.0077 23.4359 47.7946 23.649 47.5816 23.791C47.6526 23.649 49.144 19.601 49.144 18.9619C49.144 18.2517 47.9367 16.6183 47.0134 19.1749C46.4453 20.0271 45.025 22.7258 43.6046 22.9388C41.5451 23.2939 43.8887 15.553 46.5163 15.34C47.4395 15.269 46.8714 16.6893 47.3685 16.9734C48.2207 17.4705 48.7889 16.2632 48.7889 16.2632C48.6468 12.8544 41.6161 13.7066 40.4798 21.0214V21.0924C40.4088 21.1634 40.3378 21.2344 40.2668 21.3764C39.1305 22.6548 34.9405 24.9983 38.0653 15.9791C37.9942 15.1979 35.7217 15.269 35.1536 16.3342C32.0288 22.2997 28.0518 24.9273 30.4664 16.6183C30.8215 15.269 29.4722 14.8429 28.1228 15.624C27.4127 16.0502 25.3532 23.4359 23.0806 23.0098C20.2399 22.5127 24.785 15.624 23.6488 14.9139C23.2937 14.7008 21.4472 14.8429 20.9501 15.9081C20.0979 17.6835 19.7428 19.3169 19.7428 20.7373C18.6775 20.5953 12.7831 20.4532 10.3685 20.7373C14.2035 14.9849 18.6065 4.82942 18.7486 2.91196C18.8906 0.639403 16.0499 0.923472 16.0499 0.923472C16.0499 0.923472 13.1382 13.2805 8.87716 20.9503H8.94818C6.88868 21.1634 4.75816 21.5185 2.76967 22.2997C1.84645 22.6548 0.852207 23.1519 0.284069 24.0041C0 24.4302 -0.0710173 24.9983 0.0710173 25.5665C0.639156 27.1288 2.76967 27.626 4.26104 27.2709C5.3263 26.9868 6.24952 26.3477 7.03071 25.5665C7.95393 24.5722 8.80614 23.507 9.51631 22.3707C13.3512 22.3707 21.0211 24.2882 20.8081 23.9331C22.3704 25.6375 25.4242 24.5722 27.8388 18.5358C27.7678 19.7431 26.7025 23.791 27.8388 24.2882C29.4012 24.9983 32.881 22.0866 34.4434 19.8851C34.0173 25.6375 37.4261 25.7795 40.1958 22.7258C40.2668 22.6548 40.2668 22.6548 40.3378 22.5837V22.6548C40.4088 25.4954 43.1785 25.1404 44.8829 23.4359C45.238 23.0809 45.7351 22.4417 46.2322 21.8026C45.9482 22.6548 45.5931 24.3592 45.238 25.2824C43.8177 25.8505 36.0768 29.1883 35.2246 32.7392C34.3013 36.7162 38.4203 37.1423 38.4203 37.1423C38.6334 37.2133 38.8465 37.2133 39.1305 37.2133C43.9597 36.7872 45.6641 29.6855 47.5106 25.2824C47.7946 25.0693 48.1497 24.7143 48.4338 24.5012C50.8484 22.7258 52.8369 20.3822 53.1209 19.9561C53.334 23.0098 55.3935 24.4302 55.8906 24.7143C56.1747 24.8563 57.453 24.2882 57.2399 24.0751C54.2572 21.3764 57.2399 15.9081 56.5298 15.6951ZM1.56238 24.1461C2.62764 22.5127 5.53935 22.4417 8.09597 22.2997C4.68714 27.555 0.355086 25.9926 1.56238 24.1461ZM42.3263 32.8812C40.6219 36.077 38.7044 36.5031 37.5681 35.5799C36.1478 34.3726 37.4261 31.5319 39.4146 29.9695C41.19 28.5492 43.1075 27.1288 45.025 26.2766C44.3858 27.91 43.3205 30.8217 42.3263 32.8812Z" fill="black"/>
</g>
<defs>
<clipPath id="clip0_2502_500">
<rect width="118.457" height="37" fill="white"/>
</clipPath>
</defs>
</svg>
