<svg width="178" height="16" viewBox="0 0 178 16" fill="none" xmlns="http://www.w3.org/2000/svg">
<path d="M13.6357 0.601196L11.6497 2.56917L10.9099 3.28824L8.57351 5.52114L6.93804 7.11066L5.38045 5.59683L3.08301 3.36393L2.26528 2.56917L0.240417 0.601196V2.30425V15.3232H2.30422V4.80207H2.26528V4.34792H2.30422L2.3821 4.38577L6.08137 7.98111L6.93804 8.85156L7.83365 7.98111L11.6108 4.31008H11.6497V15.3232H13.6746V2.30425V0.601196H13.6357Z" fill="#2E4121"/>
<path d="M95.5647 0.601196L93.5788 2.53133L92.8 3.28824L90.5026 5.52114L88.8671 7.11066L87.2706 5.59683L84.9732 3.36393L84.1944 2.56917L82.1695 0.601196V2.30425V15.3232H84.1944V4.80207V4.34792L84.2722 4.38577L87.9715 7.98111L88.8671 8.85156L89.7627 7.98111L93.5009 4.31008H93.5788V15.3232H95.6037V2.30425V0.601196H95.5647Z" fill="#2E4121"/>
<path d="M74.8878 11.3115C74.732 11.7278 74.4983 12.0684 74.2258 12.3712L74.7709 12.8254L75.5887 11.9171L74.8878 11.3115Z" fill="#2E4121"/>
<path d="M74.6541 8.77587H74.4594H73.5249C73.5249 8.9651 73.4859 9.23002 73.447 9.49494C73.4081 9.7977 73.3691 9.98693 73.3302 10.1005L72.2788 9.07864C72.824 8.70018 73.2134 8.39741 73.4081 8.09465C73.4859 7.98111 73.5249 7.90542 73.6028 7.79188C73.6417 7.71619 73.6417 7.67834 73.6806 7.60265C73.7196 7.41342 73.7585 7.2242 73.7585 7.03497C73.7585 6.46728 73.5638 6.01313 73.2134 5.74821C72.824 5.44545 72.3177 5.33191 71.6168 5.33191C70.9159 5.33191 70.3708 5.48329 69.9814 5.74821C69.592 6.05098 69.3973 6.46728 69.3973 7.03497C69.3973 7.2242 69.4362 7.41342 69.4751 7.60265C69.4751 7.6405 69.5141 7.71619 69.5141 7.75404C69.592 7.90542 69.6698 8.0568 69.8256 8.28387C69.9035 8.39741 69.9814 8.4731 70.0592 8.58664C69.7477 8.70018 69.5141 8.81372 69.2804 8.9651C69.1247 9.07864 68.9689 9.23002 68.891 9.3814C68.6963 9.64632 68.5795 9.94909 68.5406 10.2897C68.5406 10.4032 68.5016 10.5168 68.5016 10.6303C68.5016 11.8035 69.0858 12.5226 70.215 12.7497C70.4876 12.7875 70.7991 12.8254 71.1496 12.8254C71.7337 12.8254 72.2009 12.7497 72.5514 12.5983C72.9018 12.4469 73.2523 12.2198 73.5638 11.9171C73.8753 11.6521 74.1479 11.2737 74.3037 10.8952C74.3426 10.8195 74.3815 10.7438 74.3815 10.6682C74.3815 10.6303 74.4205 10.5925 74.4205 10.5546C74.5763 10.1383 74.6931 9.72201 74.7709 9.26786C74.8099 9.11648 74.8099 9.00294 74.8488 8.85156L74.6541 8.77587ZM70.877 6.80789C70.9159 6.7322 70.9549 6.65651 71.0327 6.61866C71.1495 6.50513 71.3443 6.42944 71.5779 6.42944C71.9284 6.42944 72.162 6.54297 72.2399 6.80789C72.2788 6.88358 72.2788 6.99712 72.2788 7.11066C72.2788 7.18635 72.2788 7.26204 72.2788 7.29989C72.2399 7.41342 72.2009 7.56481 72.123 7.67834C72.0062 7.82973 71.8115 8.01896 71.5 8.24603L71.3053 8.0568C71.1496 7.86757 71.0327 7.71619 70.9549 7.56481C70.9549 7.56481 70.9549 7.52696 70.9159 7.48912C70.877 7.37558 70.838 7.2242 70.838 7.07281C70.838 6.99712 70.838 6.92143 70.877 6.80789ZM72.123 11.4251C71.8505 11.5008 71.5779 11.5386 71.2664 11.5386C70.4486 11.5386 70.0203 11.198 70.0203 10.5168C70.0203 9.98693 70.2929 9.57063 70.7991 9.34356L72.6682 11.1602C72.5514 11.2737 72.3567 11.3494 72.123 11.4251Z" fill="#2E4121"/>
<path d="M25.1618 0.525468C23.8378 0.525468 17.919 0.298393 17.8411 8.09461C17.8411 15.5881 25.1618 15.2853 25.1618 15.2853C25.1618 15.2853 32.4824 15.6259 32.4824 8.09461C32.3656 0.336239 26.6804 0.525468 25.1618 0.525468ZM25.1618 13.7715C24.9671 13.7715 24.8503 13.7715 24.8503 13.7715C24.8503 13.7715 20.1775 13.9228 20.1775 7.79184C20.1775 2.34206 23.76 1.81222 25.1618 1.81222C25.4733 1.81222 25.7069 1.85007 25.7069 1.85007C25.7848 1.85007 29.1726 1.88791 29.9903 6.88355C30.6912 13.2038 26.3689 13.7336 25.1618 13.7715Z" fill="#2E4121"/>
<path d="M145.174 11.69C143.305 15.5124 138.593 15.2853 138.593 15.2853C138.593 15.2853 131.272 15.5881 131.272 8.09461C131.389 0.298393 137.269 0.525468 138.593 0.525468C139.761 0.525468 143.422 0.411931 145.096 3.93158L142.915 4.87773C141.708 1.85007 139.216 1.85007 139.138 1.85007C139.138 1.85007 138.944 1.81222 138.593 1.81222C137.191 1.81222 133.609 2.34206 133.609 7.79184C133.609 13.9229 138.282 13.7715 138.282 13.7715C138.282 13.7715 138.398 13.7715 138.593 13.7715C139.489 13.7336 142.059 13.4309 143.071 10.7817L145.174 11.69Z" fill="#2E4121"/>
<path d="M43.2298 9.45704C44.437 9.04073 45.9167 8.0189 45.9167 5.48324C45.9167 1.50944 43.5803 0.525449 41.6723 0.563295C39.7642 0.601141 36.3765 0.601141 36.3765 0.601141V15.3231H38.3624V9.7598H41.166L44.2033 15.3231H46.4618L43.2298 9.45704ZM41.0492 8.66227H38.3234V1.69867H41.0492C41.0492 1.69867 43.9308 1.43375 43.9308 5.52108C43.9308 8.81366 41.0492 8.66227 41.0492 8.66227Z" fill="#2E4121"/>
<path d="M128.469 0.601196V1.81226H122.978V15.3232H120.953V1.81226H115.58V0.601196H128.469Z" fill="#2E4121"/>
<path d="M110.946 0.601196H102.535V1.81226H110.946V0.601196Z" fill="#2E4121"/>
<path d="M100.043 15.3232L105.845 2.94763H107.753L113.399 15.3232H111.452L106.74 5.71037L102.146 15.3232H100.043Z" fill="#2E4121"/>
<path d="M60.0518 0.601196H51.6408V1.81226H60.0518V0.601196Z" fill="#2E4121"/>
<path d="M49.1876 15.3232L54.9506 2.94763H56.8587L62.5049 15.3232H60.5579L55.8462 5.71037L51.2514 15.3232H49.1876Z" fill="#2E4121"/>
<path d="M175.547 0.601196H167.136V1.81226H175.547V0.601196Z" fill="#2E4121"/>
<path d="M164.683 15.3232L170.446 2.94763H172.354L178 15.3232H176.053L171.341 5.71037L166.746 15.3232H164.683Z" fill="#2E4121"/>
<path d="M160.867 0.601196V15.3232H158.959V8.13249H151.248V15.3232H149.34V0.601196H151.248V6.99712H158.959V0.601196H160.867Z" fill="#2E4121"/>
</svg>
