<svg width="157" height="104" viewBox="0 0 157 104" fill="none" xmlns="http://www.w3.org/2000/svg">
<path d="M1.77982 52.4583C1.69083 52.2853 1.60183 52.1124 1.51284 52.0259C1.42384 51.8529 1.24585 51.5934 1.15686 51.4204C1.24585 51.5934 1.33485 51.8529 1.51284 52.0259C1.60183 52.1124 1.69083 52.2853 1.77982 52.4583Z" fill="#D2E6C9"/>
<path d="M9.16638 57.2155L8.09845 56.9561L9.16638 57.2155Z" fill="#D2E6C9"/>
<path d="M0.177924 48.3932C0.177924 48.3932 0.0889282 48.1337 0.0889282 47.6147C0.0889282 47.8742 0.177924 48.1337 0.177924 48.3932Z" fill="#D2E6C9"/>
<g clip-path="url(#clip0_2408_39227)">
<path d="M29.6479 92.3291L28.1293 93.9279L27.5698 94.4874L25.7314 96.2461L24.5324 97.5251L23.2535 96.326L21.4951 94.5674L20.9356 93.9279L19.337 92.3291V93.6881V104H20.9356V95.6865V95.2868V95.3668L23.8131 98.1646L24.5324 98.8841L25.1719 98.1646L28.0493 95.2868H28.1293V104H29.7279V93.6881V92.3291H29.6479Z" fill="#C8E1BC"/>
<path d="M92.7927 92.329L91.274 93.9277L90.6345 94.4873L88.8761 96.246L87.5972 97.525L86.3983 96.3259L84.6398 94.5673L84.0004 93.9277L82.4817 92.329V93.6879V104H84.0004V95.6864V95.2867L84.0803 95.3666L86.9578 98.1645L87.5972 98.8839L88.3166 98.1645L91.1941 95.2867H91.274V104H92.7927V93.6879V92.329Z" fill="#C8E1BC"/>
<path d="M76.8866 100.802C76.8067 101.122 76.5669 101.442 76.3271 101.602L76.7267 101.922L77.3662 101.202L76.8866 100.802Z" fill="#C8E1BC"/>
<path d="M76.6468 98.8041H76.4869H75.7676C75.7676 98.9639 75.7676 99.1238 75.6876 99.3636C75.6876 99.6035 75.6077 99.7633 75.6077 99.8433L74.8084 99.0439C75.2081 98.7241 75.5278 98.4843 75.6876 98.2445C75.7676 98.1646 75.7676 98.0846 75.8475 98.0047C75.8475 97.9247 75.9274 97.9248 75.9274 97.8448C76.0074 97.6849 76.0074 97.5251 76.0074 97.3652C76.0074 96.8856 75.8475 96.5658 75.6077 96.326C75.288 96.0862 74.8883 96.0062 74.3288 96.0062C73.7693 96.0062 73.3697 96.0862 73.05 96.326C72.7302 96.5658 72.5704 96.8856 72.5704 97.3652C72.5704 97.5251 72.5704 97.6849 72.6503 97.8448C72.6503 97.8448 72.6503 97.9247 72.7302 97.9247C72.8102 98.0047 72.8901 98.1646 72.97 98.3244C73.05 98.4044 73.05 98.4843 73.1299 98.5643C72.8901 98.6442 72.7302 98.7241 72.5704 98.884C72.4105 98.9639 72.3306 99.0439 72.2507 99.2038C72.0908 99.3636 72.0109 99.6834 72.0109 99.9232C72.0109 100.003 72.0109 100.083 72.0109 100.243C72.0109 101.202 72.4904 101.762 73.3697 101.922C73.6095 102.002 73.8493 102.002 74.089 102.002C74.5686 102.002 74.8883 101.922 75.2081 101.842C75.5278 101.762 75.7676 101.522 76.0074 101.282C76.2472 101.042 76.4869 100.803 76.5669 100.483C76.5669 100.403 76.6468 100.323 76.6468 100.323V100.243C76.7267 99.9232 76.8067 99.6035 76.8866 99.2038C76.8866 99.1238 76.8866 98.9639 76.9665 98.884L76.6468 98.8041ZM73.7693 97.2852C73.7693 97.2053 73.8493 97.2053 73.8493 97.1254C73.9292 97.0454 74.089 96.9655 74.2489 96.9655C74.4887 96.9655 74.7285 97.0454 74.7285 97.2852C74.7285 97.3652 74.8084 97.4451 74.8084 97.5251C74.8084 97.605 74.8084 97.605 74.8084 97.6849C74.8084 97.7649 74.7285 97.9247 74.7285 98.0047C74.6486 98.1646 74.4887 98.3244 74.2489 98.4843L74.089 98.3244C73.9292 98.1646 73.8493 98.0846 73.7693 97.9247C73.7693 97.9247 73.7693 97.9248 73.7693 97.8448C73.6894 97.7649 73.6894 97.605 73.6894 97.5251C73.6894 97.4451 73.7693 97.3652 73.7693 97.2852ZM74.7285 100.962C74.4887 101.042 74.3288 101.042 74.089 101.042C73.4496 101.042 73.1299 100.803 73.1299 100.243C73.1299 99.8433 73.3697 99.5235 73.7693 99.2837L75.2081 100.723C75.0482 100.803 74.8883 100.882 74.7285 100.962Z" fill="#C8E1BC"/>
<path d="M38.5202 92.329C37.4811 92.329 32.9251 92.1691 32.8452 98.3244C32.8452 104.24 38.5202 104 38.5202 104C38.5202 104 44.1952 104.32 44.1952 98.3244C44.1153 92.1691 39.7191 92.329 38.5202 92.329ZM38.5202 102.801C38.3603 102.801 38.2804 102.801 38.2804 102.801C38.2804 102.801 34.6835 102.881 34.6835 98.0846C34.6835 93.7679 37.4811 93.3682 38.5202 93.3682C38.76 93.3682 38.9198 93.3682 38.9198 93.3682C38.9998 93.3682 41.6375 93.3682 42.197 97.3651C42.7565 102.321 39.4793 102.801 38.5202 102.801Z" fill="#C8E1BC"/>
<path d="M130.999 101.122C129.56 104.16 125.884 104 125.884 104C125.884 104 120.209 104.24 120.209 98.3244C120.289 92.1691 124.845 92.329 125.884 92.329C126.763 92.329 129.64 92.2491 130.919 95.0469L129.241 95.7664C128.282 93.3682 126.363 93.3682 126.283 93.3682C126.283 93.3682 126.123 93.3682 125.884 93.3682C124.845 93.3682 122.047 93.7679 122.047 98.0846C122.047 102.961 125.644 102.801 125.644 102.801C125.644 102.801 125.724 102.801 125.884 102.801C126.603 102.801 128.521 102.561 129.321 100.403L130.999 101.122Z" fill="#C8E1BC"/>
<path d="M52.428 99.3636C53.3871 99.0438 54.5061 98.2444 54.5061 96.246C54.5061 93.0484 52.6678 92.329 51.229 92.329C49.7903 92.329 47.1526 92.329 47.1526 92.329V104H48.6713V99.6034H50.8294L53.1473 104H54.9058L52.428 99.3636ZM50.8294 98.7241H48.7512V93.2083H50.8294C50.8294 93.2083 53.0674 92.9685 53.0674 96.246C52.9875 98.8839 50.8294 98.7241 50.8294 98.7241Z" fill="#C8E1BC"/>
<path d="M118.13 92.329V93.2882H113.894V104H112.296V93.2882H108.219V92.329H118.13Z" fill="#C8E1BC"/>
<path d="M104.622 92.329H98.1479V93.2882H104.622V92.329Z" fill="#C8E1BC"/>
<path d="M96.2296 104L100.706 94.1676H102.144L106.541 104H105.022L101.425 96.4059L97.8282 104H96.2296Z" fill="#C8E1BC"/>
<path d="M65.4566 92.329H58.9822V93.2882H65.4566V92.329Z" fill="#C8E1BC"/>
<path d="M57.0639 104L61.4601 94.1676H62.9787L67.2949 104H65.7763L62.1794 96.4059L58.6625 104H57.0639Z" fill="#C8E1BC"/>
<path d="M154.419 92.329H147.944V93.2882H154.419V92.329Z" fill="#C8E1BC"/>
<path d="M146.026 104L150.502 94.1676H151.941L156.337 104H154.818L151.142 96.4059L147.625 104H146.026Z" fill="#C8E1BC"/>
<path d="M143.069 92.329V104H141.63V98.3244H135.715V104H134.196V92.329H135.715V97.445H141.63V92.329H143.069Z" fill="#C8E1BC"/>
<path d="M56.9041 34.9331C56.8241 35.4127 56.7442 35.8124 56.7442 36.5319C56.7442 36.6918 56.7442 36.7717 56.7442 36.8516C56.7442 36.6118 56.8241 36.2921 56.9041 35.9723C56.984 35.2529 56.984 34.9331 56.9041 34.9331Z" fill="#C8E1BC"/>
<path d="M56.7442 36.8517C56.7442 37.0915 56.6642 37.2514 56.6642 37.2514C56.6642 37.1714 56.6642 37.0915 56.7442 37.0116C56.7442 36.8517 56.7442 36.8517 56.7442 36.8517Z" fill="#C8E1BC"/>
<path d="M62.659 54.0385C62.5791 53.9586 62.4991 53.7987 62.4991 53.7187C62.4192 53.5589 62.3393 53.6388 62.4192 53.7987C62.4991 53.8786 62.4991 53.9586 62.659 54.0385C62.659 54.1984 62.7389 54.3582 62.7389 54.3582C62.8988 54.5181 62.8988 54.5181 62.8189 54.2783C62.8189 54.2783 62.7389 54.1184 62.659 54.0385Z" fill="#C8E1BC"/>
<path d="M87.757 13.1898C84.3201 15.3482 82.082 19.1852 82.082 23.5818C82.082 27.8985 84.3201 31.7356 87.757 33.9738C91.194 31.8155 93.4321 27.9784 93.4321 23.5818C93.512 19.1852 91.194 15.3482 87.757 13.1898ZM87.837 50.2813L73.0499 35.4927V41.568L87.837 56.3566L102.624 41.568V35.4927L87.837 50.2813ZM87.757 13.1898C84.3201 15.3482 82.082 19.1852 82.082 23.5818C82.082 27.8985 84.3201 31.7356 87.757 33.9738C91.194 31.8155 93.4321 27.9784 93.4321 23.5818C93.512 19.1852 91.194 15.3482 87.757 13.1898ZM87.837 50.2813L73.0499 35.4927V41.568L87.837 56.3566L102.624 41.568V35.4927L87.837 50.2813ZM87.757 13.1898C84.3201 15.3482 82.082 19.1852 82.082 23.5818C82.082 27.8985 84.3201 31.7356 87.757 33.9738C91.194 31.8155 93.4321 27.9784 93.4321 23.5818C93.512 19.1852 91.194 15.3482 87.757 13.1898ZM91.0342 73.7832H90.9542C91.1141 73.8631 91.274 73.8631 91.3539 73.9431C91.194 73.8631 91.1141 73.7832 91.0342 73.7832ZM85.9187 71.3851C86.1584 71.5449 86.3183 71.7048 86.5581 71.8647C86.718 71.9446 86.8778 71.9446 87.0377 72.0246C86.638 71.7847 86.2384 71.6249 85.9187 71.3851ZM80.8831 32.7748C80.8831 32.8547 80.8031 32.9346 80.7232 33.0146C80.6433 33.0945 80.4834 32.9346 80.4834 33.0146C80.4035 33.1744 80.3236 33.4143 80.2436 33.6541V35.4127C80.3236 35.1729 80.4035 35.093 80.4834 35.1729C80.4834 35.093 80.5633 35.013 80.5633 34.9331C80.5633 34.6133 80.5633 34.2136 80.5633 33.6541C80.7232 33.2544 80.8031 33.0146 80.8831 32.7748ZM80.6433 35.8924C80.6433 35.7325 80.5633 35.5726 80.5633 35.4927C80.4834 35.7325 80.4035 35.8924 80.3236 36.1322C80.2436 36.4519 80.1637 36.6917 80.1637 37.0115V37.1714L80.3236 37.3312C80.4035 37.0914 80.4834 36.8516 80.5633 36.6118C80.5633 36.5319 80.5633 36.5319 80.5633 36.4519C80.5633 36.292 80.6433 36.1322 80.6433 35.9723V35.8924Z" fill="#C8E1BC"/>
<path d="M78.2454 76.5811C78.4052 76.661 78.4052 76.661 78.2454 76.5811V76.5811Z" fill="#C8E1BC"/>
<path d="M70.0126 3.4374C69.9326 3.4374 69.9326 3.4374 69.9326 3.4374C70.0125 3.35746 70.0126 3.35746 70.0126 3.4374Z" fill="#C8E1BC"/>
<path d="M49.7104 39.01C49.7104 38.93 49.6304 38.8501 49.6304 38.7701C49.6304 38.93 49.6304 39.01 49.7104 39.01Z" fill="#C8E1BC"/>
<path d="M101.265 75.7017C101.185 75.7017 101.425 75.5419 101.505 75.5419C101.185 75.5419 100.866 75.6218 100.546 75.7817C100.626 75.8616 101.105 75.7017 101.265 75.7017Z" fill="#C8E1BC"/>
<path d="M126.523 43.7263L126.603 43.8862C126.523 43.8063 126.523 43.8063 126.523 43.7263Z" fill="#C8E1BC"/>
<path d="M125.084 50.2014L125.244 50.3613C125.244 50.2814 125.164 50.2814 125.084 50.2014Z" fill="#C8E1BC"/>
<path d="M81.6024 0.399623C81.5225 0.319685 81.5225 0.319685 81.5225 0.239746L81.6024 0.399623Z" fill="#C8E1BC"/>
<path d="M97.5884 1.75868C97.5884 1.83862 97.5085 1.83862 97.5884 1.75868C96.8691 1.75868 96.2296 1.59881 95.5902 1.51887L95.6701 1.27905C95.9099 1.35899 96.1497 1.35899 96.3095 1.35899C96.4694 1.43893 96.7092 1.43893 96.8691 1.51887C97.1888 1.59881 97.4286 1.67875 97.5884 1.75868Z" fill="#C8E1BC"/>
<path d="M122.047 58.6748C122.047 58.6748 122.047 58.7547 121.967 58.7547C122.047 58.6748 122.047 58.6748 122.047 58.6748Z" fill="#C8E1BC"/>
<path d="M91.6736 0.0799385L91.9134 0C91.8335 0 91.7535 0.0799385 91.6736 0.0799385Z" fill="#C8E1BC"/>
<path d="M105.581 5.43583C105.581 5.43583 105.502 5.43583 105.502 5.35589L105.422 5.03613L105.581 5.43583Z" fill="#C8E1BC"/>
<path d="M119.889 17.9862C119.729 17.8263 119.569 17.6664 119.409 17.4266C119.409 17.1868 119.489 17.2667 119.889 17.9862Z" fill="#C8E1BC"/>
<path d="M80.6433 35.9723C80.6433 36.1322 80.5633 36.2921 80.5633 36.4519C80.5633 36.5319 80.5633 36.6118 80.5633 36.6118C80.4834 36.8516 80.4035 37.0914 80.3236 37.3313L80.1637 37.1714V37.0115C80.2436 36.6918 80.2436 36.4519 80.3236 36.1322C80.4035 35.8924 80.4834 35.7325 80.5633 35.4927C80.5633 35.5726 80.5633 35.7325 80.6433 35.8924V35.9723Z" fill="#C8E1BC"/>
<path d="M80.5634 33.5741C80.5634 34.2137 80.5634 34.6133 80.5634 34.8532C80.4834 34.9331 80.4834 35.013 80.4834 35.093C80.4035 35.013 80.3236 35.093 80.2437 35.3328V33.5741C80.3236 33.3343 80.4035 33.1745 80.4834 32.9346C80.4834 32.8547 80.6433 33.0146 80.7232 32.9346C80.8032 32.8547 80.8032 32.7748 80.8831 32.6948C80.8032 33.0146 80.7232 33.2544 80.5634 33.5741Z" fill="#C8E1BC"/>
<path d="M87.0377 72.0245C86.8778 71.9446 86.7179 71.9446 86.5581 71.8646C86.3183 71.7048 86.0785 71.5449 85.9186 71.385C86.2384 71.6248 86.638 71.7847 87.0377 72.0245Z" fill="#C8E1BC"/>
<path d="M91.3539 73.8631C91.194 73.7832 91.0342 73.7832 90.9542 73.7032H91.0342C91.1141 73.7832 91.274 73.8631 91.3539 73.8631Z" fill="#C8E1BC"/>
<path d="M79.4443 68.5074L80.8031 68.9071L79.4443 68.5074ZM71.0517 62.0323C70.8918 61.7925 70.7319 61.4728 70.652 61.233C70.7319 61.4728 70.8918 61.7126 71.0517 62.0323C71.1316 62.2722 71.2914 62.432 71.4513 62.6719C71.2914 62.432 71.1316 62.1922 71.0517 62.0323ZM69.3731 57.316C69.2932 56.9962 69.2932 56.5965 69.2133 56.2768C69.2932 57.0762 69.3731 57.316 69.3731 57.316V57.3959C69.3731 57.3959 69.3731 57.3959 69.3731 57.316ZM69.2133 54.9178C69.2133 54.9978 69.2133 55.0777 69.2133 55.1576V54.9978V54.9178ZM66.8154 35.3329L69.1333 37.6511L66.8154 35.3329Z" fill="#C8E1BC"/>
<path d="M125.404 40.6887V39.6495C125.404 39.3297 125.404 38.93 125.404 38.6103V37.4912C125.404 37.1714 125.324 36.7717 125.324 36.452L125.244 35.3328L125.084 34.2936C125.004 33.8939 125.004 33.5742 124.924 33.2544C124.765 32.535 124.685 31.8155 124.445 31.0961C124.365 30.7763 124.285 30.3766 124.205 30.0569L123.885 29.0177C123.805 28.6979 123.646 28.2982 123.566 27.9785L123.246 26.9393L122.846 25.9001L122.607 25.4204C122.527 25.2606 122.447 25.1007 122.367 24.9408C122.047 23.5819 121.248 21.5834 119.969 19.505C119.969 19.4251 120.049 19.2652 119.889 18.8655C119.489 17.9862 119.569 18.6257 119.569 18.8655C119.569 18.7855 119.489 18.7056 119.489 18.7056C119.489 18.6257 119.409 18.6257 119.409 18.5457C119.409 18.3859 119.329 18.226 119.249 18.146L118.93 17.4266C119.489 18.146 119.329 17.6664 119.329 17.5065C119.17 17.2667 118.93 16.867 118.77 16.5473C118.61 16.2275 118.37 15.8278 118.13 15.5081C117.731 14.8686 117.251 14.3889 116.931 14.3889C116.692 13.9892 116.532 13.6695 116.372 13.4297C116.212 13.1899 116.132 13.03 116.052 12.8701C115.892 12.5503 115.812 12.3905 115.573 12.0707C115.653 12.3105 115.972 12.7902 115.892 12.8701C115.573 12.1507 115.573 12.6303 115.733 12.95C115.253 12.6303 114.454 11.4312 113.574 10.392C112.695 9.35281 111.816 8.47348 111.576 8.63336L111.656 8.55342C111.177 8.79323 111.256 9.3528 110.457 9.11299L110.137 8.63336L109.418 8.39354C109.098 7.99385 109.338 7.99385 109.338 7.99385C109.018 7.91391 108.779 7.6741 108.459 7.51422C108.139 7.2744 107.819 7.11453 107.5 6.87471C107.18 6.6349 106.86 6.47502 106.461 6.2352C106.141 5.99539 105.821 5.83551 105.422 5.5957L105.821 6.47502C105.981 6.79477 106.061 7.11453 106.221 7.43428C105.741 6.95465 105.022 6.39508 104.462 5.91545C103.823 5.43582 103.263 5.196 103.104 5.27594C102.944 5.03613 102.784 4.79631 102.544 4.55649C102.065 4.1568 101.665 3.91699 101.345 3.75711C101.105 3.67717 100.866 3.67717 100.706 3.67717C100.386 3.75711 100.306 3.91699 99.8265 3.67717C99.4268 3.35742 99.1071 3.1176 98.7075 2.87779C99.1071 3.03766 99.5068 3.1176 99.9064 3.27748C99.7465 3.19754 99.6666 3.1176 99.5068 3.03766C99.4268 2.95772 99.267 2.95772 99.187 2.87779C98.9472 2.79785 98.7874 2.63797 98.5476 2.55803C98.1479 2.31822 97.8282 2.0784 97.3486 1.83859C97.6684 1.83859 97.6684 1.83859 97.6684 1.83859L97.5085 1.75865C97.4286 1.83859 97.1888 1.91852 96.8691 1.91852C96.5493 1.91852 96.1497 1.83859 95.6701 1.75865C95.3504 1.67871 95.0307 1.59877 94.711 1.59877C94.631 1.67871 94.4712 1.59877 94.3113 1.59877C94.1514 1.59877 93.9916 1.59877 93.8317 1.51883C93.1124 1.43889 92.393 1.27902 91.3539 1.0392L90.7944 1.43889C90.5546 1.35895 90.3148 1.35895 89.9951 1.27902L89.1958 1.11914V0.719446C89.6754 0.799385 90.1549 0.799385 90.6345 0.799385C91.1141 0.799385 91.7535 0.879324 92.3131 0.879324C92.8726 0.879324 93.512 0.959262 94.0715 1.0392C94.631 1.11914 95.1905 1.19908 95.6701 1.27902L95.75 1.11914C95.4303 1.0392 95.1905 1.0392 94.8708 0.959262C94.711 0.959262 94.5511 0.879324 94.3912 0.879324C94.2314 0.879324 94.0715 0.879324 93.9117 0.879324C93.3521 0.879324 92.7926 0.799385 92.393 0.719446C92.0733 0.639508 91.274 0.239816 91.5937 0L91.0342 0.239816C90.5546 0.159877 90.075 0.159877 89.6754 0.159877C89.2757 0.159877 88.956 0.159877 88.6363 0.159877H87.0377C86.7979 0.159877 86.5581 0.159877 86.2384 0.159877C85.9986 0.159877 85.6789 0.159877 85.3591 0.159877C85.0394 0.159877 84.7197 0.159877 84.3201 0.159877C83.9204 0.159877 83.4408 0.159877 82.9612 0.159877L83.3609 0.319754C82.9612 0.399693 82.5616 0.479631 82.2419 0.559569C81.9222 0.639508 81.6824 0.639508 81.5225 0.479631C79.0447 0.799385 76.4869 1.11914 74.8084 1.19908L74.5686 1.75865C74.089 1.83859 73.0499 1.51883 73.0499 2.23828L72.5703 2.39815L72.0908 2.63797C71.3714 2.87779 71.0517 3.27748 70.2524 3.43736H70.0925C69.2932 3.67717 69.3731 3.83705 69.3731 3.91699C69.3731 3.99693 69.3731 4.07686 68.4939 4.47656C68.1742 4.47656 68.0943 4.63643 67.9344 4.95619C67.8545 5.03613 67.8545 5.196 67.6946 5.35588C67.6147 5.51576 67.4548 5.5957 67.215 5.67563C66.8154 5.67563 66.4957 5.67563 66.096 5.5957C64.4974 6.2352 64.5774 6.87471 62.659 8.39354C61.6199 8.95311 60.8206 8.95311 61.1404 8.07379C60.9006 8.63336 60.9006 8.79324 60.8206 8.87317C60.7407 9.03305 60.5808 9.19293 60.1812 9.7525C59.8615 9.7525 59.9414 9.59262 60.0213 9.19293C59.4618 9.51268 59.302 9.7525 59.302 9.91237C59.222 10.0723 59.222 10.2321 58.9023 10.6318C59.0622 11.1115 59.302 11.8309 59.1421 12.0707C59.222 11.9908 59.3819 11.9908 59.4618 11.9108C58.9823 12.7902 58.3428 13.6695 57.5435 14.4689L57.3836 14.3889L57.0639 14.8686L56.7442 15.4281L56.4245 15.3482C56.1048 15.8278 55.7851 16.3874 55.5453 16.867L55.7051 16.7071C55.6252 16.867 55.3854 17.2667 55.1456 17.6664C54.9058 18.0661 54.666 18.5457 54.4262 18.8655L54.3463 18.7855C54.1865 19.0254 54.0266 19.1852 53.8667 19.4251C53.7069 19.6649 53.6269 19.9047 53.4671 20.1445C53.2273 20.6241 53.0674 21.1038 52.9076 21.5834C52.7477 22.063 52.5879 22.6226 52.5079 23.1822C52.3481 23.7417 52.2681 24.3013 52.0283 24.9408C51.9484 24.7809 51.8685 24.6211 51.7886 24.5411C51.229 25.2606 52.1882 24.9408 51.7086 25.8201L51.309 25.7402C51.4688 26.2198 51.309 26.5396 51.1491 26.7794C50.9893 27.0192 50.6695 27.1791 50.5097 27.4189L51.0692 27.259L50.6695 28.3782C50.19 29.5772 49.8702 29.0177 49.6304 28.7779L49.8702 29.7371L49.3907 29.8171C49.7903 30.5365 49.1509 30.4566 49.3107 31.6556C49.1509 31.7356 49.0709 31.4158 48.9111 31.8155C48.991 32.455 49.1509 33.0945 49.3107 33.734L49.1509 32.6149L49.7903 32.8547C49.9502 33.4942 49.9502 33.814 49.8702 34.2137C49.7903 34.5334 49.6304 34.8532 49.7104 35.2529C49.6304 35.0131 49.6304 34.8532 49.5505 34.6933C49.6304 36.0523 49.3107 36.1322 49.1509 36.8516C49.3107 36.6118 49.4706 36.2921 49.5505 36.8516C49.5505 37.2513 49.3107 37.0915 49.2308 37.4112C49.4706 37.4912 49.6304 37.731 49.7104 38.0507C49.7903 38.4504 49.7903 38.8501 49.7104 39.3297C49.6304 39.3297 49.6304 39.2498 49.5505 39.2498C49.6304 39.4896 49.7903 39.5696 49.6304 39.9692L49.1509 39.7294L49.6304 40.4489C49.4706 40.9285 49.9502 41.7279 49.5505 41.648L49.4706 41.4081C49.5505 42.0476 49.5505 42.6872 49.5505 43.3267C49.6304 43.9662 49.6304 44.6057 49.7104 45.2452L49.3107 45.4051C49.6304 45.5649 49.6304 46.0446 49.7104 46.5242C49.7104 47.0038 49.7903 47.4035 50.19 47.2437C50.11 47.6433 50.2699 48.2829 50.4297 48.8424C50.5896 49.402 50.6695 49.8017 50.2699 49.7217C50.4297 50.3613 50.5896 50.9208 50.8294 51.4005C51.0692 51.8801 51.309 52.3597 51.5488 52.8393C51.7886 53.319 52.0283 53.7986 52.2681 54.3582C52.5079 54.9178 52.7477 55.4773 52.9875 56.2767C52.9875 56.5965 53.0674 56.9962 53.2273 57.4758C53.3072 57.7156 53.3872 57.9554 53.547 58.1952C53.6269 58.435 53.7868 58.6749 53.9467 58.9946C54.1065 59.2344 54.2664 59.4742 54.3463 59.794C54.5062 60.0338 54.666 60.2736 54.8259 60.5134C55.1456 60.9931 55.4653 61.4727 55.7051 61.9523C56.0248 62.352 56.3446 62.6718 56.5843 63.0715C56.9041 63.3912 57.2238 63.711 57.4636 64.0307C57.7833 64.3505 58.0231 64.6702 58.3428 64.9101L59.222 65.7894C59.5418 66.0292 59.8615 66.349 60.1812 66.5888C60.3411 66.7486 60.5009 66.9085 60.6608 66.9885C60.8206 67.1483 60.9805 67.2283 61.1404 67.3882C61.4601 67.628 61.7798 67.9477 62.1794 68.1875C62.4992 68.5073 62.8988 68.7471 63.2985 69.0669C63.4583 69.3067 63.6182 69.6264 63.858 69.8662C64.0978 70.1061 64.3376 70.3459 64.5773 70.5857C64.8171 70.8255 65.1369 70.9854 65.4566 71.2252C65.7763 71.465 66.096 71.6249 66.4157 71.8647C67.0552 72.1845 67.7746 72.5842 68.414 72.9039C69.0534 73.2237 69.6929 73.6234 70.1724 74.023H70.9717C71.1316 74.1829 71.2915 74.3428 71.5313 74.5027C71.7711 74.6626 71.9309 74.7425 72.1707 74.9024C72.6503 75.1422 73.1299 75.382 73.6894 75.5419C74.8084 75.9416 75.9274 76.3413 77.0464 76.9808C77.6059 76.9808 77.9257 76.9808 78.0855 77.0607C78.0056 76.9808 77.8457 76.9008 77.8457 76.661C78.4052 77.0607 79.844 77.1407 79.6042 77.5403H79.4443C79.3644 77.7802 79.844 77.8601 80.4834 77.8601C81.1229 77.94 81.8422 77.94 82.2419 78.2598L81.9222 77.7002C82.1619 77.7802 82.3218 77.7802 82.5616 77.8601L83.201 78.02L82.8813 78.0999C83.201 78.0999 83.6007 78.0999 83.9204 78.02C84.2401 78.02 84.5598 78.02 84.8796 78.02C85.519 78.02 86.0785 78.02 86.638 78.02C87.1975 78.02 87.6771 78.02 88.2366 78.0999C88.7961 78.0999 89.2757 78.1799 89.7553 78.1799C90.7145 78.2598 91.6736 78.2598 92.7926 78.0999C93.8317 78.02 94.9507 77.7802 96.1497 77.3005C95.5902 77.94 97.1089 76.8209 97.2687 77.3805C97.9881 77.6203 98.5476 77.4604 99.1071 77.1407C99.6666 76.8209 100.066 76.4212 100.626 76.1814C100.626 76.1015 100.626 76.1014 100.706 76.0215C101.265 75.8616 101.905 75.7018 102.464 75.5419C102.065 76.0215 102.304 75.7817 102.624 75.5419C102.704 75.382 102.864 75.3021 102.944 75.2221C102.944 75.2221 102.864 75.3021 102.784 75.4619C105.182 74.9024 107.819 73.7033 110.297 72.0246C112.775 70.4258 115.093 68.4274 117.091 66.349L116.772 66.4289C117.011 66.1891 117.251 65.8693 117.491 65.5496C117.651 65.3897 117.731 65.2298 117.891 65.0699C117.971 64.9101 118.13 64.7502 118.21 64.5903C118.45 64.2706 118.69 64.0307 118.93 63.711C119.17 63.4712 119.409 63.2314 119.649 63.0715C119.889 62.9116 120.049 62.6718 120.209 62.432C120.368 62.1922 120.448 61.9523 120.528 61.6326C120.688 61.153 120.768 60.6733 120.848 60.4335C121.008 59.794 121.328 59.3943 121.647 59.1545C121.887 58.9946 122.047 58.9147 122.047 58.9946C122.287 58.435 122.367 57.8755 122.527 57.236C122.607 56.9162 122.686 56.5965 122.846 56.1968C122.926 56.0369 123.006 55.877 123.086 55.7171C123.166 55.5573 123.246 55.3174 123.406 55.1576C123.566 55.0776 123.805 54.7579 123.965 54.2782C124.125 53.7986 124.205 53.239 124.365 52.6795C124.445 52.1199 124.525 51.6403 124.685 51.2406C124.765 50.8409 124.924 50.6011 125.084 50.6011H125.004C125.244 50.1214 125.484 49.5619 125.564 49.0023C125.724 48.4427 125.724 47.8832 125.804 47.4035C125.884 46.844 125.884 46.2844 125.964 45.7248C126.044 45.4051 126.044 45.1653 126.123 44.8455C126.203 44.5257 126.203 44.2859 126.363 43.9662C126.363 43.9662 126.443 44.0461 126.443 44.1261C126.203 42.6872 125.804 41.648 125.404 40.6887ZM102.624 18.3859L102.544 18.3059C102.624 18.3059 102.624 18.3859 102.624 18.3859ZM83.6806 11.5111C84.8796 10.4719 86.2384 9.59262 87.757 8.87317C89.2757 9.51268 90.6345 10.392 91.8335 11.5111C95.1905 14.3889 97.3486 18.7056 97.3486 23.5019C97.3486 28.2982 95.1905 32.6149 91.8335 35.5726C90.6345 36.6118 89.2757 37.4912 87.757 38.1307C86.3183 37.4912 84.8796 36.6118 83.6806 35.5726C80.3236 32.6948 78.1654 28.3782 78.1654 23.5819C78.2454 18.7855 80.3236 14.4689 83.6806 11.5111ZM80.5633 34.8532C80.4834 34.9331 80.4834 35.0131 80.4834 35.093C80.4035 35.0131 80.3236 35.093 80.2436 35.3328V33.5742C80.3236 33.3344 80.4035 33.1745 80.4834 32.9347C80.4834 32.8547 80.6433 33.0146 80.7232 32.9347C80.8031 32.8547 80.8031 32.7748 80.8831 32.6948C80.8031 32.9347 80.7232 33.1745 80.5633 33.4942C80.5633 34.1337 80.5633 34.5334 80.5633 34.8532ZM74.4887 21.7433C73.8492 22.3828 73.2897 23.1022 72.7302 23.9016C72.5704 24.1414 72.4904 24.3013 72.4105 24.4612C72.3306 24.6211 72.3306 24.701 72.2506 24.8609C72.1707 24.9408 72.0908 25.0208 72.0908 25.1007C71.6911 25.4204 71.2115 25.7402 70.8119 26.2198C71.2915 25.4204 71.7711 24.6211 72.3306 23.8217C72.6503 23.5019 73.0499 23.1022 73.3696 22.7825C73.6094 22.4627 74.0091 22.063 74.4887 21.7433ZM68.2541 13.1899C69.7728 11.9108 71.3714 10.8716 73.0499 9.99231C73.2098 9.91237 73.3697 9.83244 73.5295 9.7525C73.4496 9.83244 73.2897 9.91237 73.2897 9.99231H73.3696C71.3714 11.1115 69.4531 12.4704 67.6147 14.0692C67.295 14.309 66.9753 14.7087 66.6555 14.9485C66.3358 15.2683 66.096 15.588 65.7763 15.9078C65.6164 16.0676 65.3767 16.2275 65.2168 16.3874C65.0569 16.5473 64.8171 16.7071 64.6573 16.947C64.4974 17.1068 64.2576 17.3467 64.0978 17.5065C63.858 17.7463 63.6981 17.9862 63.4583 18.226C64.8171 16.4673 66.4957 14.6287 68.2541 13.1899ZM64.2576 29.4174C64.1777 29.6572 64.0978 29.897 64.0978 30.1368H64.0178C64.0978 29.897 64.1777 29.6572 64.2576 29.4174ZM62.2594 52.8393L61.9397 52.1998C61.8597 51.96 61.6999 51.8801 61.7798 51.96C61.7798 52.04 61.8597 52.3597 62.0196 52.5196C62.4192 53.239 62.8189 53.9585 63.2985 54.6779C63.6182 55.2375 63.9379 55.7971 64.3376 56.3566C64.2576 56.3566 64.1777 56.3566 64.1777 56.3566C64.0978 56.3566 64.0978 56.4366 64.0978 56.4366C63.858 56.1168 63.6182 55.7171 63.3784 55.3974C62.8988 54.6779 62.4992 53.8786 62.0995 53.1591C62.1795 53.239 62.1795 53.1591 62.0995 52.9992C62.0995 52.9193 62.0196 52.7594 61.9397 52.6795C61.8597 52.5196 61.8597 52.4397 61.7798 52.3597C61.6999 52.2798 61.6999 52.2798 61.6999 52.2798C61.6999 52.2798 61.6999 52.3597 61.6999 52.4397C60.9805 50.8409 60.3411 49.1622 59.8615 47.4835C59.5418 46.2045 59.302 44.9254 59.1421 43.5665C58.8224 41.1683 58.8224 38.8501 58.9822 36.5319L59.0622 35.6526V35.2529L59.1421 34.7732L59.222 33.8939C59.302 33.5742 59.302 33.3344 59.3819 33.0146C59.4618 32.535 59.5418 31.9754 59.7016 31.4958C59.7816 31.4958 59.7815 31.4958 59.7815 31.4158C59.9414 31.3359 60.1013 31.0961 60.2611 30.6964C60.1013 31.0961 60.0213 31.4158 59.9414 31.8155C59.8615 32.2152 59.7016 32.6149 59.6217 33.0945L59.4618 33.734L59.3819 34.3736C59.302 34.7732 59.222 35.2529 59.222 35.6526C59.0622 37.2513 58.9823 38.93 59.0622 40.5288C59.1421 42.1276 59.3819 43.8063 59.7815 45.4051C60.1812 47.0038 60.6608 48.6026 61.3801 50.1214L61.54 50.5211V50.6011C61.54 50.681 61.6199 50.9208 61.6199 51.1606C61.7798 51.5603 62.0196 52.1998 62.2594 52.8393ZM57.7034 30.5365C57.7034 30.3766 57.7833 30.2168 57.7833 29.9769L57.9432 29.4174C58.0231 29.0976 58.103 28.7779 58.1829 28.4581C58.5027 27.4988 58.8224 26.6195 59.222 25.7402C59.3819 25.3405 59.6217 24.7809 59.7016 24.5411C59.7016 24.3013 59.6217 24.4612 59.3819 24.9408C59.302 25.1007 59.222 25.2606 59.1421 25.4204C59.1421 25.3405 59.1421 25.3405 59.1421 25.3405L59.5418 24.3812C59.6217 24.2214 59.6217 24.0615 59.7016 23.9016L59.9414 23.422C60.2611 22.7025 60.5808 22.063 60.9805 21.3436C61.0604 21.2636 61.0604 21.1038 61.1404 21.0238C61.2203 20.8639 61.1404 21.1837 61.3801 20.9439C61.4601 20.784 61.54 20.7041 61.6199 20.5442C61.54 20.784 61.3802 20.9439 61.2203 21.1837C61.0604 21.4235 60.9805 21.6633 60.8206 21.9031C59.9414 23.8217 59.7815 24.5411 59.5418 25.0208C59.5418 25.0208 59.5418 25.0208 59.4618 25.1806C59.3819 25.4204 59.302 25.6603 59.222 25.9001C59.222 25.98 59.1421 25.98 59.1421 26.0599C59.0622 26.3797 58.9023 26.6195 58.8224 26.9393C58.6625 27.259 58.5826 27.5788 58.5826 27.7387C58.5027 27.8186 58.5027 27.9785 58.4227 28.1384C58.183 28.9377 58.0231 29.4174 57.9432 29.8171C57.8632 30.0569 57.7833 30.2967 57.7034 30.5365C57.7034 30.7763 57.6234 31.0161 57.5435 31.3359C57.6234 31.0161 57.7034 30.7763 57.7034 30.5365ZM56.5843 39.1699L56.6643 39.2498V38.93V38.5304V37.8109C56.6643 37.731 56.7442 37.731 56.8241 37.8109C56.7442 37.5711 56.7442 37.4112 56.7442 37.1714C56.7442 37.0115 56.7442 36.7717 56.7442 36.6118C56.8241 36.372 56.8241 36.0523 56.9041 35.6526C56.984 35.2529 56.984 34.7732 57.0639 34.2137C57.0639 33.8939 57.1439 33.5742 57.1439 33.3344C57.1439 33.2544 57.1439 33.2544 57.2238 33.1745C57.3837 32.6149 57.4636 32.1353 57.6234 31.5757V31.6556C57.6234 31.6556 57.7034 31.6556 57.7034 31.5757C57.7034 31.6556 57.7034 31.8155 57.6234 32.0553C57.6234 32.2952 57.5435 32.6149 57.4636 32.9347C57.3837 33.2544 57.3836 33.4143 57.3836 33.734C57.3037 33.9739 57.3037 34.3736 57.2238 35.1729V35.093V35.1729C57.2238 35.1729 57.2238 35.1729 57.3037 35.093C57.3037 35.1729 57.2238 35.1729 57.1439 35.3328C57.1439 35.3328 57.1439 35.3328 57.1439 35.4128C57.1439 35.4128 57.1439 35.4927 57.2238 35.6526C57.2238 35.6526 57.2238 35.6526 56.9041 37.0115C56.9041 37.0915 56.9041 37.4112 56.9041 38.0507C56.9041 38.0507 56.9041 38.2106 56.984 38.3705C56.984 38.3705 56.984 38.3705 57.0639 38.6103V38.6902C56.984 40.3689 56.984 42.0476 57.1439 43.8063C56.7442 42.2075 56.5843 40.6887 56.5843 39.1699ZM67.295 62.5119C67.0552 62.352 66.8953 62.1922 66.7355 62.1922C66.6555 62.1122 66.4957 62.1122 66.4957 62.1922C66.2559 61.9523 66.0161 61.7925 65.8562 61.5526C64.977 60.6733 64.0978 59.7141 63.3784 58.6749C61.8597 56.6764 60.5809 54.5181 59.7016 52.3597C59.7016 52.1199 59.6217 51.8002 59.4618 51.4005C59.302 51.0008 59.222 50.6011 59.0622 50.2014C58.9023 49.8017 58.7425 49.402 58.6625 49.0023C58.5027 48.6825 58.5027 48.3628 58.5027 48.2029C58.103 47.4035 57.7034 46.5242 57.4636 45.5649C57.0639 43.2467 56.984 40.9285 57.0639 38.6902V38.6103C57.0639 38.6103 57.0639 38.6103 57.1439 38.5304C57.1439 38.5304 57.1439 38.3705 57.2238 38.0507C57.2238 37.8909 57.2238 37.8109 57.2238 37.651C57.2238 37.4912 57.2238 37.2513 57.3037 36.7717C57.3037 36.8517 57.3037 36.9316 57.3037 37.0115C57.4636 37.1714 57.4636 37.1714 57.7833 36.372C57.7034 37.4112 57.7034 38.5304 57.7034 39.6495C57.8632 43.4865 58.5027 47.3236 59.9414 50.9208C61.3002 54.4381 63.5383 57.6357 66.3358 60.2736C66.4157 60.3536 66.4957 60.5134 66.6555 60.5934C66.0161 59.9539 65.5365 59.6341 65.3766 59.6341C65.2168 59.7141 65.4566 60.1138 65.8562 60.6733C62.5791 57.156 60.1013 52.9992 58.5826 48.6026C58.5027 48.3628 58.4227 48.2029 58.4227 48.2829C58.4227 48.3628 58.5027 48.6825 58.5826 48.9224C60.3411 54.1184 63.2985 58.7548 67.215 62.432C67.3749 62.5918 67.295 62.5918 67.295 62.5119ZM86.5581 71.8647C86.3183 71.7048 86.0785 71.545 85.9187 71.3851C86.3183 71.6249 86.638 71.7848 87.0377 72.0246C86.8778 71.9446 86.718 71.9446 86.5581 71.8647ZM88.8761 70.7456C86.638 70.6656 84.3201 70.2659 82.1619 69.7064H83.3609L84.0003 69.8662C84.4799 69.9462 84.8796 70.0261 85.3591 70.1061C85.7588 70.186 86.1584 70.2659 86.4782 70.2659C86.8778 70.3459 87.2775 70.3459 87.6771 70.4258C87.9169 70.5857 88.3965 70.6656 89.0359 70.8255H88.8761V70.7456ZM90.9542 73.7832H91.0342C91.1141 73.8632 91.274 73.8632 91.3539 73.9431C91.194 73.8632 91.1141 73.7832 90.9542 73.7832ZM109.978 40.0492L106.541 43.4865V54.9177C106.541 57.3159 105.901 59.794 104.622 61.8724C103.423 63.9508 101.665 65.7894 99.5068 66.9885C98.4677 67.548 97.4286 68.0277 96.2296 68.3474L94.8708 68.7471V64.7502L95.5902 64.5104C99.5867 62.9915 102.384 59.3144 102.624 54.9977V54.8378V47.4835L90.7944 59.3144L87.9169 62.1922L84.9595 59.2344L73.0499 47.3236V53.3989C73.0499 53.3989 73.0499 53.3989 73.0499 53.4789C73.0499 53.8786 73.0499 55.3174 73.2897 56.4366C73.3696 56.6764 73.3696 56.8363 73.4496 57.0761C73.4496 57.156 73.5295 57.236 73.5295 57.3159C73.8492 58.515 74.4087 59.7141 75.1281 60.6733C75.288 60.8332 75.3679 60.9931 75.5278 61.153C75.6876 61.3128 75.7676 61.4727 75.9274 61.6326C76.0873 61.7925 76.2471 61.9523 76.407 62.1122C76.7267 62.432 77.0464 62.6718 77.3661 62.9915C77.6059 63.1514 77.7658 63.3113 78.0056 63.4712C78.2454 63.631 78.4852 63.7909 78.8049 63.9508C79.2845 64.1906 79.6841 64.3505 80.1637 64.5903L80.8831 64.8301V68.9869L79.5243 68.5872C78.8049 68.4274 78.1655 68.1076 77.526 67.8678C77.1264 67.7079 76.7267 67.4681 76.2471 67.2283L75.4478 66.7486C75.208 66.5888 75.0482 66.4289 74.8084 66.269C74.7285 66.1891 74.6485 66.1891 74.6485 66.1091C74.4887 65.9493 74.3288 65.8693 74.1689 65.7094C73.1299 64.8301 72.2506 63.7909 71.5313 62.6718C71.3714 62.5119 71.2915 62.2721 71.1316 62.1122C70.9718 61.7925 70.8119 61.5526 70.732 61.2329C70.652 61.073 70.5721 60.8332 70.4922 60.6733C70.4122 60.4335 70.2524 60.1937 70.2524 60.0338C70.0925 59.6341 69.9327 59.1545 69.8527 58.7548C69.7728 58.515 69.6929 58.1952 69.6929 57.9554V57.8755C69.6929 57.7955 69.6929 57.7156 69.6129 57.6357V57.5557V57.4758C69.6129 57.4758 69.533 57.156 69.533 56.4366C69.533 56.3566 69.533 56.1968 69.533 56.1168C69.533 55.9569 69.533 55.7971 69.533 55.6372C69.533 55.5573 69.533 55.4773 69.533 55.3974C69.533 55.3174 69.533 55.2375 69.533 55.1576C69.533 54.9977 69.533 54.8378 69.533 54.598V43.4066L65.6964 39.9692V34.2137L66.8154 35.3328L69.1334 37.651V26.0599L80.1637 37.1714V37.0115C80.2436 36.6918 80.2436 36.452 80.3236 36.1322C80.4035 35.8924 80.4834 35.7325 80.5633 35.4927C80.5633 35.5726 80.5633 35.7325 80.6433 35.8924V35.9723C80.6433 36.1322 80.5633 36.2921 80.5633 36.452C80.5633 36.5319 80.5633 36.6118 80.5633 36.6118C80.4834 36.8517 80.4035 37.0915 80.3236 37.3313L87.757 44.7656L106.461 26.0599V37.651L109.898 34.2137V40.0492H109.978ZM112.695 57.7156C112.695 57.7156 112.775 57.6357 112.695 57.7156C112.775 57.6357 112.775 57.6357 112.695 57.7156C112.775 57.6357 112.775 57.7156 112.695 57.7156ZM113.415 28.1384C113.335 27.8985 113.175 27.4988 113.095 27.8186C112.535 26.2198 111.736 24.6211 110.777 23.1022C110.857 23.1822 110.937 23.2621 111.017 23.342C111.496 23.9816 111.976 24.6211 112.375 25.1806C112.935 26.3797 113.335 27.5788 113.734 28.7779C113.574 28.538 113.494 28.2982 113.415 28.1384ZM125.004 39.8094C125.004 39.7294 124.924 39.6495 124.924 39.4896C125.004 38.6902 124.924 37.8909 124.924 37.0915C124.845 36.2121 124.845 35.3328 124.685 34.4535L124.765 35.2529C124.845 35.4927 124.845 35.8124 124.845 36.0523C124.924 36.5319 124.924 37.0915 124.924 37.5711C124.924 38.0507 125.004 38.6103 125.004 39.1699V39.8094Z" fill="#C8E1BC"/>
<path d="M69.4531 57.5558C69.4531 57.4758 69.4531 57.4758 69.3732 57.3959C69.3732 57.3959 69.3732 57.4758 69.4531 57.5558Z" fill="#C8E1BC"/>
<path d="M71.4513 62.5919C71.2915 62.432 71.2115 62.1922 71.0517 62.0323C70.8918 61.7125 70.732 61.4727 70.652 61.153C70.8119 61.4727 70.9718 61.7125 71.0517 61.9523C71.1316 62.1922 71.2915 62.432 71.4513 62.5919Z" fill="#C8E1BC"/>
<path d="M80.8032 68.907L79.4443 68.5073L80.8032 68.907Z" fill="#C8E1BC"/>
<path d="M69.3731 57.3159C69.3731 57.3159 69.2932 56.9962 69.2133 56.2767C69.2932 56.6764 69.2932 56.9962 69.3731 57.3159Z" fill="#C8E1BC"/>
</g>
<defs>
<clipPath id="clip0_2408_39227">
<rect width="137" height="104" fill="white" transform="translate(19.337)"/>
</clipPath>
</defs>
</svg>
