<svg width="116" height="37" viewBox="0 0 116 37" fill="none" xmlns="http://www.w3.org/2000/svg">
<path d="M69.7086 10.5499V10.4821C77.3485 6.68477 78.8403 3.92717 78.8629 2.88742C78.9081 1.50862 77.2129 0.649697 74.1614 0.514077C72.8052 0.46887 71.9237 0.514077 69.7538 0.80792L67.9229 1.12437C64.7811 1.68945 61.1645 3.33949 60.7803 4.24362C60.6899 4.49225 60.6447 5.07994 60.8255 5.21556C61.3228 5.55461 62.4981 3.99498 66.6119 3.11345L67.4935 2.93263H67.5613C65.3687 7.52109 57.5932 24.3831 60.283 24.3379C60.5543 24.3379 60.5542 24.0893 61.4358 23.7955C61.9783 23.6146 62.1817 23.1174 62.2495 22.7105C62.7242 19.6817 65.527 9.28415 68.8044 2.7744L69.0079 2.7518C71.6525 2.34494 73.7772 2.45796 75.3368 3.15866C76.0827 3.49771 76.4217 3.76895 76.3991 4.51486C76.3313 5.84845 71.562 8.35741 69.799 9.37456C68.7592 9.98485 66.7249 11.0472 66.7249 11.6349C66.7023 12.2 68.3072 13.0363 69.2339 13.4884C70.997 14.2795 72.534 15.2966 73.6189 16.359C74.4553 17.2179 74.8395 18.1672 74.8169 19.32C74.7717 20.7666 74.071 21.8516 71.9915 22.1906C69.686 22.5523 65.3687 21.9194 64.1708 19.4104C64.1256 19.32 64.0125 19.32 63.9673 19.3878C63.5831 20.0659 62.4529 22.3036 63.8995 23.253C64.5324 23.6824 65.3235 23.9311 65.9112 24.0441C67.4482 24.3831 68.8044 24.2701 70.3867 23.9989C71.4716 23.7954 74.1614 22.7783 75.6306 21.2639C76.6252 20.2467 77.145 19.0262 77.1677 17.8734C77.3033 13.4205 70.0928 10.6629 69.7086 10.5499Z" fill="#C7E0BB"/>
<path d="M115.186 23.6149C114.825 23.4114 113.378 22.2587 113.785 16.54C113.921 14.4605 113.197 14.1441 110.44 15.3421C108.699 16.1106 106.891 17.7154 105.716 19.4785C104.653 21.0833 99.5675 23.6149 98.8442 21.4902C98.6634 20.9703 98.7086 17.0599 104.088 15.5907C104.631 15.4325 104.676 15.1612 104.292 14.777C104.133 14.6188 103.817 14.4379 103.523 14.3927C103.094 14.3249 101.941 14.7544 101.195 15.116C99.5675 15.9071 98.1887 17.3085 96.5613 19.6141C96.0866 20.2922 95.2051 20.9477 94.4818 21.3997C94.0297 21.671 93.1934 22.123 93.1934 22.123C94.5496 20.473 94.9564 16.9695 94.4139 14.9352C94.2331 14.2797 93.1934 13.692 92.7187 13.805C92.6057 13.8276 92.357 13.9181 91.5433 14.6866C91.2269 14.9804 89.4186 17.512 86.548 18.0545C86.548 18.0092 86.548 17.964 86.548 17.9188C86.548 17.4668 86.3672 17.0599 86.0281 16.7887C85.7569 16.5626 85.4178 16.4496 85.011 16.4722C84.5137 16.5174 83.8808 16.8113 83.6548 17.5346C83.4514 18.2353 83.8808 19.1394 84.4233 19.162C84.5137 19.5463 84.039 20.6538 83.7678 21.1511C83.2253 22.0778 82.3664 22.8011 81.4397 22.8011C79.6992 22.8011 80.1287 20.0435 81.1458 18.4161C81.9143 17.1955 83.0671 16.0202 84.5815 15.8845C84.9432 15.8619 85.3048 15.8619 85.6891 15.9297C85.8021 15.9523 85.8699 15.8393 85.8473 15.7489C85.6891 15.3195 85.1692 14.4153 83.474 14.4831C80.6938 14.6188 78.343 18.1223 78.0944 20.7442C77.9135 22.5525 79.3828 24.3608 81.5075 24.1573C83.813 23.9539 85.9377 21.3545 86.4124 19.0264C89.5316 18.4161 91.905 15.9523 91.905 15.9523C92.8995 16.0428 92.1536 20.3374 90.8652 21.7388C89.3508 23.4114 87.5878 20.9929 88.5371 23.5244C88.7857 24.2025 91.4755 24.6998 95.5215 22.1682C95.8154 22.01 96.1092 21.8292 96.403 21.6258C97.0133 25.7622 102.076 23.6827 104.314 21.897C104.382 21.8518 104.744 21.5806 104.789 21.5354C104.111 24.3834 106.665 24.4512 108.451 23.6149C109.649 23.0498 110.553 22.1004 111.525 20.8799C112.632 25.1971 114.757 24.0895 115.141 23.7505C115.232 23.6827 115.232 23.6375 115.186 23.6149ZM111.253 18.9134C110.779 20.586 109.581 21.9874 108.473 22.3491C107.479 22.6655 106.755 22.2361 107.094 20.8121C107.433 19.4333 107.953 18.7778 108.857 17.7832C109.965 16.5626 111.027 15.975 111.186 16.0654C111.615 16.314 111.412 18.3935 111.253 18.9134Z" fill="#C7E0BB"/>
<path d="M36.2558 12.7645C36.9339 13.0132 37.7251 12.4933 38.0189 11.6344C38.3127 10.7755 37.9963 9.89393 37.3182 9.64529C36.6401 9.39666 35.849 9.91653 35.5551 10.7755C35.2839 11.6344 35.5777 12.5159 36.2558 12.7645Z" fill="#C7E0BB"/>
<path d="M54.9259 10.0976C54.2252 9.96199 53.5471 10.5497 53.3888 11.386C53.2306 12.2223 53.6827 12.9908 54.3608 13.1264C55.0615 13.2621 55.7396 12.6744 55.8978 11.8381C56.056 11.0017 55.604 10.2106 54.9259 10.0976Z" fill="#C7E0BB"/>
<path d="M55.3102 15.6806C55.039 15.6128 52.9143 15.4998 52.3944 16.6751C51.9423 17.6923 50.0663 20.6759 47.2861 23.0041V23.0267C47.0826 23.2075 46.8566 23.4109 46.6758 23.5465C46.721 23.3657 48.1676 19.4779 48.1676 18.9129C48.1676 18.2122 46.9922 16.6299 46.1107 19.0937C45.5908 19.93 44.1894 22.5068 42.8106 22.7328C40.8441 23.0719 43.0819 15.5902 45.6134 15.3641C46.5402 15.2737 45.9299 16.6751 46.4045 16.9464C47.1957 17.421 47.7607 16.2683 47.7607 16.2683C47.6251 12.9456 40.8215 13.7593 39.6914 20.902V20.9472C39.6462 21.015 39.5784 21.1054 39.4879 21.1958C38.3578 22.4616 34.3118 24.6993 37.3858 15.9518C37.318 15.2059 35.1029 15.2285 34.5378 16.3135C31.509 22.0999 27.689 24.5863 30.0172 16.5621C30.4014 15.2737 29.0904 14.8217 27.7342 15.5676C27.0561 15.9518 25.067 23.1397 22.8519 22.7328C20.2073 22.2355 24.5924 15.545 23.4848 14.8895C23.1458 14.686 21.3827 14.8443 20.8854 15.8614C20.0717 17.6019 19.7327 19.1841 19.7327 20.4951C18.6703 20.3369 13.0421 20.2465 10.6914 20.5177C14.3531 14.9121 18.6025 5.07966 18.7381 3.22619C18.8964 1.01107 16.1388 1.30491 16.1388 1.30491C16.1388 1.30491 13.3586 13.3073 9.24476 20.7211H9.31257C7.30088 20.9472 5.24398 21.2636 3.3453 22.0095C2.46378 22.3486 1.46923 22.8232 0.949358 23.6143C0.655515 24.0664 0.565102 24.5863 0.745928 25.0836C1.28841 26.6206 3.3453 27.0952 4.76931 26.7336C5.80906 26.485 6.69059 25.8069 7.41389 25.0836C8.34063 24.1568 9.10914 23.0719 9.80984 21.9643C13.5168 21.9869 20.908 23.8404 20.7046 23.4561C22.1964 25.0836 25.1801 24.0664 27.4856 18.2574C27.4404 19.4101 26.4006 23.3205 27.4856 23.8178C28.9774 24.4959 32.3905 21.7157 33.8823 19.5684C33.4529 25.1288 36.7756 25.287 39.4653 22.326C39.5105 22.2808 39.5331 22.2581 39.5784 22.2129V22.2581C39.6688 25.0157 42.3134 24.6541 43.986 23.0041C44.3476 22.6424 44.8223 22.0547 45.2744 21.4218C45.0257 22.2355 44.6415 23.8856 44.325 24.7445C44.325 24.7445 44.325 24.7445 44.3024 24.7445C42.9462 25.287 35.4193 28.5419 34.583 31.9776C33.6563 35.8201 37.6797 36.2044 37.6797 36.2044C37.6797 36.2044 37.6797 36.2044 37.6571 36.1818C37.8831 36.227 38.1091 36.2496 38.3352 36.227C43.0367 35.7975 44.6867 28.9713 46.4271 24.6767C46.6984 24.4507 47.06 24.1116 47.3313 23.9308C49.682 22.1903 51.6033 19.9074 51.8293 19.5684C52.0328 22.4842 54.0444 23.863 54.5191 24.1568C54.7904 24.315 56.0561 23.7048 55.8301 23.5239C53.1403 21.1506 55.9657 15.884 55.3102 15.6806ZM2.14733 23.8178C3.14188 22.2355 6.01249 22.1677 8.43104 22.0321C5.15357 27.1179 0.994564 25.6486 2.14733 23.8178ZM41.5448 32.2714C39.94 35.368 38.0413 35.7523 36.9564 34.8482C35.555 33.6728 36.7981 30.9378 38.742 29.446C40.4825 28.0898 42.3134 26.7336 44.1442 25.8973C43.5565 27.4343 42.562 30.3049 41.5448 32.2714Z" fill="#C7E0BB"/>
</svg>
