<svg width="87" height="87" viewBox="0 0 87 87" fill="none" xmlns="http://www.w3.org/2000/svg">
<path d="M85.7098 45.4462L85.7302 44.3254C85.7302 43.9381 85.7507 43.5713 85.7302 43.1637L85.6893 41.941C85.6893 41.5537 85.6483 41.1258 85.6074 40.7386L85.5254 39.5158L85.3616 38.3338C85.3206 37.9262 85.2592 37.5186 85.1978 37.1314C85.0339 36.3162 84.8906 35.5418 84.6858 34.7674C84.6038 34.3802 84.5219 33.9726 84.399 33.5854L84.0713 32.4237C83.9485 32.0365 83.8461 31.6697 83.6822 31.2621L83.2931 30.1209L82.8425 29L82.5968 28.4294C82.5353 28.2459 82.4329 28.0625 82.351 27.8791C81.9619 26.3507 81.1017 24.1293 79.6886 21.7857C79.7295 21.643 79.75 21.48 79.6476 21.0927C79.1766 20.0942 79.3199 20.8686 79.2585 21.0724C79.2175 20.9909 79.1766 20.9297 79.1151 20.8686C79.0742 20.8074 79.0537 20.7463 78.9922 20.6852C78.9513 20.5425 78.8898 20.3795 78.8489 20.2164L78.5417 19.4012C79.1356 20.1757 79.0127 19.6866 78.9922 19.442C78.9922 19.4216 78.9718 19.4216 78.9718 19.4012C78.9718 19.4012 78.9718 19.4013 78.9718 19.3809C78.7465 19.0752 78.5622 18.7083 78.3369 18.3211C78.1321 17.9339 77.8658 17.5467 77.6406 17.2003C77.19 16.4666 76.6985 15.9571 76.2889 15.9775C76.0226 15.5495 75.8178 15.2031 75.654 14.9381C75.5106 14.6732 75.3877 14.4694 75.3058 14.3064C75.1215 13.9803 75.0191 13.7358 74.7324 13.4301C74.8552 13.7358 75.2034 14.2045 75.1215 14.3064C74.7324 13.532 74.7938 14.0822 74.9781 14.3471C74.4661 13.9803 73.5445 12.6556 72.541 11.494C71.5784 10.312 70.5544 9.33379 70.2472 9.5172L70.3086 9.41531C69.7557 9.63948 69.8376 10.3324 68.9774 10.0471L68.6497 9.5172L67.8305 9.21151C67.4414 8.72241 67.7486 8.80392 67.7691 8.7224C67.4414 8.60013 67.1137 8.39633 66.7656 8.19254C66.3969 7.96836 66.0692 7.72381 65.6801 7.47926C65.3115 7.25508 64.9428 6.99015 64.5537 6.7456C64.185 6.50104 63.8164 6.25649 63.4273 6.05269V6.07307L63.8983 7.09205C64.0417 7.4385 64.185 7.78495 64.3284 8.1314C63.8164 7.64229 63.0177 6.96977 62.3418 6.46028C61.625 5.97118 61.0106 5.62472 60.7853 5.76738C60.5805 5.52283 60.3962 5.23751 60.1709 4.99296C59.5975 4.52423 59.1674 4.2593 58.8192 4.13702C58.512 4.01475 58.2867 4.01475 58.1434 4.0555C57.8157 4.11664 57.6723 4.34082 57.1603 4.01475C56.7507 3.70905 56.3411 3.42374 55.911 3.11805C56.3821 3.2607 56.8326 3.38298 57.3037 3.5664C57.1398 3.4645 56.9965 3.38298 56.8326 3.30146C56.7098 3.24033 56.5664 3.15881 56.4435 3.09767C56.1978 2.95501 55.9725 2.83274 55.7677 2.73084C55.3376 2.48628 54.9485 2.24173 54.416 1.93604C54.4774 1.9768 54.5184 2.01756 54.5389 2.05832L54.3341 2.01756H54.3136C54.1702 2.11945 53.9244 2.18059 53.5968 2.18059C53.2281 2.16021 52.798 2.09907 52.286 2.01756C51.9379 1.93604 51.5897 1.8749 51.2415 1.83414C51.0777 1.81376 50.8934 1.79338 50.7295 1.773C50.5452 1.75262 50.3609 1.73224 50.1561 1.71186C49.3983 1.65073 48.5586 1.48769 47.4117 1.14124L46.7973 1.60997C46.5106 1.52845 46.2239 1.48769 45.9372 1.40617L45.0565 1.24314L45.077 0.815167C45.5071 0.855926 46.0396 0.855926 46.613 0.855926C47.1865 0.876306 47.8418 0.896685 48.4767 0.957824C49.1321 0.998583 49.8284 1.0801 50.4428 1.14124C51.0777 1.20238 51.7126 1.32465 52.2656 1.40617L52.327 1.22276C51.9993 1.16162 51.6716 1.10048 51.3439 1.0801C51.1801 1.03934 50.9958 1.03934 50.8319 1.01896C50.6476 0.998583 50.4838 0.998583 50.3404 0.978203C49.685 0.937444 49.0911 0.896685 48.6406 0.815167C48.2719 0.71327 47.3913 0.285301 47.7804 0.0611267L47.125 0.32606C46.5516 0.285301 46.06 0.285301 45.6095 0.264921C45.1794 0.244542 44.7698 0.244542 44.4421 0.244542H42.6398C42.3531 0.244542 42.0664 0.224163 41.7592 0.203783C41.4725 0.203783 41.1243 0.203783 40.7761 0.183404C40.4075 0.163024 40.0389 0.142645 39.5678 0.142645C39.1172 0.122265 38.6052 0.142645 38.0318 0.142645L38.4414 0.30568C37.9908 0.407578 37.5607 0.509475 37.1921 0.550234C36.8439 0.611373 36.5367 0.611373 36.3934 0.448337L36.3729 0.427957H36.4548C33.69 0.754029 30.8432 1.14124 28.8771 1.20238L28.6518 1.79338C28.0784 1.93604 26.9725 1.54883 26.911 2.28249L26.3376 2.5678L25.7641 2.91425C24.9859 3.19957 24.6377 3.60716 23.6752 3.77019H23.4704C23.4704 3.79057 23.4908 3.79057 23.4908 3.79057C22.5897 4.09626 22.6511 4.19816 22.6716 4.27968C22.6921 4.40196 22.6716 4.50385 21.6681 4.87068C21.279 4.87068 21.1766 5.09486 21.0742 5.35979C21.0127 5.50245 20.9513 5.6451 20.8489 5.76738C20.7465 5.91004 20.6031 6.07307 20.3574 6.15459C19.9478 6.15459 19.5177 6.11383 19.0876 6.11383C17.2853 6.78635 17.3877 7.54039 15.2373 9.23189C14.0699 9.88404 13.1688 9.86366 13.4965 8.88544C13.2302 9.53758 13.2098 9.70062 13.1074 9.88404C13.005 10.0675 12.8411 10.2509 12.3701 10.903C12.0014 10.903 12.0833 10.74 12.1857 10.312C11.5509 10.6992 11.428 10.903 11.387 11.1068C11.3256 11.331 11.3256 11.494 10.9365 11.8812V11.9016C11.0798 12.4722 11.428 13.2466 11.2232 13.532C11.3461 13.4708 11.4894 13.3893 11.6123 13.3282C11.0798 14.3268 10.3835 15.3254 9.42091 16.2221L9.25707 16.0183L8.88843 16.5889L8.56074 17.2003L8.25354 17.078C7.90538 17.6486 7.55721 18.1989 7.25001 18.7899L7.45481 18.6065C7.35241 18.8102 7.14761 19.2382 6.86089 19.7069C6.59464 20.1757 6.30792 20.7055 6.04168 21.052L5.89831 20.9501C5.69351 21.1743 5.50919 21.4188 5.32487 21.6838C5.16103 21.9283 5.01766 22.1729 4.89478 22.4378C4.64902 22.9677 4.42374 23.4975 4.2599 24.0478C4.11653 24.6184 3.95269 25.189 3.78885 25.8004C3.64549 26.4118 3.48165 27.0436 3.27685 27.7365C3.19492 27.5734 3.13348 27.4104 3.05156 27.2473C2.3962 28.0829 3.52261 27.6753 3.0106 28.7147L2.56004 28.6535C2.7034 29.2242 2.56004 29.5299 2.37572 29.7744C2.17091 29.9986 1.88419 30.182 1.69987 30.5081L2.33475 30.3247L1.92515 31.5678C1.43362 32.9332 1.00354 32.3015 0.757777 32.0365L1.02402 33.1166L0.471054 33.1982C0.921619 34.0337 0.225291 33.9114 0.348173 35.2157C0.12289 35.2769 0.0819297 34.9508 -0.0614319 35.3584C0.0614495 36.092 0.245772 36.8053 0.409613 37.539L0.204811 36.2551L0.942099 36.4996C1.16738 37.1722 1.10594 37.6001 0.98306 37.9873C0.860178 38.3745 0.716817 38.7006 0.798738 39.1693C0.737297 38.9452 0.675856 38.721 0.634896 38.5172C0.716817 40.0253 0.389133 40.0864 0.163851 40.922C0.307212 40.6774 0.552975 40.2698 0.614416 40.8812C0.634896 41.3296 0.348173 41.1054 0.245772 41.5334C0.491534 41.5945 0.675856 41.8798 0.778257 42.267C0.880659 42.6746 0.839698 43.1637 0.737297 43.6936C0.675856 43.6732 0.614416 43.6325 0.532495 43.5917C0.634896 43.8362 0.757777 43.9789 0.655376 44.4272L0.204811 44.2031L0.778257 45.0386C0.634896 45.6093 1.10594 46.4244 0.716817 46.3633L0.573455 46.0576C0.614416 46.7709 0.614416 47.4842 0.696337 48.2178C0.757777 48.9311 0.819218 49.6444 0.901139 50.3373L0.471054 50.48C0.819218 50.6226 0.860178 51.2136 0.921619 51.7435C0.96258 52.253 1.0445 52.7013 1.41314 52.5587C1.29026 53.007 1.53603 53.7611 1.72035 54.3928C1.92515 55.0042 2.00707 55.4729 1.51555 55.371C1.69987 56.0639 1.90467 56.6753 2.17091 57.2256C2.41668 57.7758 2.66244 58.3057 2.94916 58.8152C3.25637 59.3246 3.52261 59.8749 3.78885 60.5067C4.07557 61.118 4.3623 61.7906 4.62854 62.6261C4.58758 62.993 4.68998 63.4413 4.85382 63.9508C4.93574 64.1953 5.03814 64.4807 5.18151 64.7456C5.30439 65.0309 5.44775 65.3162 5.59111 65.6015C5.73447 65.8665 5.9188 66.1722 6.06216 66.4575C6.24648 66.7428 6.41032 67.0281 6.59464 67.293C6.96329 67.8637 7.29097 68.3935 7.59817 68.8622C7.96682 69.2902 8.2945 69.6978 8.62218 70.085C8.97035 70.4722 9.29803 70.8187 9.62572 71.1651C9.9534 71.5116 10.2811 71.8377 10.6292 72.1637L11.5918 73.1216C11.94 73.4272 12.2677 73.7329 12.6363 74.0183C12.8002 74.1813 12.964 74.3239 13.1278 74.487C13.3122 74.6296 13.517 74.7927 13.6808 74.9353C14.0699 75.241 14.4181 75.5671 14.8482 75.8728C15.2373 76.1785 15.6674 76.5249 16.0975 76.8714C16.2613 77.1771 16.4866 77.4624 16.7528 77.7681C16.9986 78.033 17.2853 78.2979 17.5925 78.5629C17.8997 78.8074 18.2479 79.0316 18.5961 79.2558C18.9442 79.5003 19.3129 79.7245 19.6815 79.9283C20.4188 80.3155 21.1766 80.7027 21.9139 81.1103C22.6511 81.4771 23.3065 81.9255 23.88 82.3535L24.7606 82.3331C24.9449 82.5369 25.1497 82.6999 25.3545 82.8426C25.5798 82.9852 25.8256 83.1279 26.0918 83.2502C26.6243 83.5151 27.1978 83.78 27.8122 83.9838C29.041 84.4525 30.3517 84.8601 31.5805 85.5734C32.2359 85.5734 32.5841 85.6142 32.7479 85.6346C32.6045 85.553 32.4817 85.4308 32.5226 85.1862C33.178 85.5938 34.7345 85.6957 34.5297 86.1848H34.3044C34.202 86.4294 34.7754 86.5109 35.4718 86.572C36.1886 86.6331 37.0078 86.7147 37.4174 87L37.0283 86.3478C37.2535 86.409 37.5198 86.4905 37.7451 86.5109L38.4619 86.6535L38.0728 86.6943C38.4619 86.6739 38.851 86.6535 39.2401 86.6535C39.6088 86.6535 39.9569 86.6535 40.3256 86.6331C41.0014 86.5924 41.6568 86.6332 42.2712 86.6535C42.8856 86.6535 43.4591 86.6943 44.053 86.7147C44.6469 86.7554 45.1794 86.7758 45.7324 86.7758C46.8178 86.8369 47.9237 86.8166 49.1116 86.7147C50.279 86.5924 51.5283 86.3275 52.9004 85.818C52.2655 86.5516 53.9859 85.3289 54.1702 85.9403C54.9894 86.1848 55.6448 86.0014 56.2387 85.6957C56.8326 85.3492 57.3447 84.8805 57.8976 84.6156C57.8976 84.5748 57.8976 84.5341 57.9591 84.4729C58.6144 84.2895 59.3107 84.0857 59.9866 83.9023C59.5155 84.4729 59.8432 84.1876 60.1504 83.9023C60.2733 83.7596 60.4167 83.5966 60.4986 83.5355C60.4781 83.5762 60.4372 83.6577 60.3348 83.78C63.0382 83.1483 65.9668 81.7625 68.7521 79.9487C71.517 78.1349 74.118 75.8932 76.4117 73.631L76.0636 73.6922C76.3503 73.3865 76.637 73.0808 76.9033 72.7547C77.0466 72.5713 77.19 72.4287 77.3538 72.2452C77.4767 72.0822 77.6201 71.8988 77.743 71.7358C78.0297 71.4097 78.2754 71.0836 78.5622 70.7983C78.8079 70.513 79.0742 70.248 79.3199 70.0646C79.5657 69.8608 79.7705 69.6163 79.9343 69.331C80.0777 69.066 80.2006 68.7603 80.2825 68.4547C80.4463 67.884 80.5078 67.3542 80.6307 67.1504C80.815 66.4778 81.2041 65.9887 81.5523 65.7238C81.798 65.52 81.9619 65.4385 81.9824 65.4996C82.2486 64.8882 82.3715 64.2157 82.5558 63.5024C82.6582 63.1356 82.7606 62.7484 82.9245 62.3408C83.0064 62.137 83.0883 61.9536 83.1907 61.7702C83.2931 61.5664 83.416 61.3626 83.5389 61.1384C83.7437 61.0569 83.9689 60.6901 84.1737 60.1806C84.3581 59.6711 84.481 59.019 84.6243 58.4076C84.7472 57.7962 84.8291 57.2052 84.9725 56.7568C85.0954 56.3289 85.2592 56.0436 85.4435 56.0843L85.4026 56.0436C85.7098 55.4729 85.8941 54.8819 86.0579 54.2909C86.2013 53.6999 86.2832 53.0681 86.3447 52.4568C86.4266 51.8454 86.4675 51.2136 86.5495 50.6022C86.5904 50.2762 86.6723 49.9705 86.7338 49.6444C86.7952 49.3183 86.8567 48.9923 86.9591 48.6662C86.9591 48.6662 87.0205 48.7273 87.0615 48.8088C86.6109 47.7083 86.1808 46.5671 85.7098 45.4462ZM14.8277 59.0393L14.4795 58.3464C14.3566 58.1223 14.2542 57.9592 14.2542 58.0407C14.2542 58.1426 14.3771 58.4483 14.4795 58.6929C14.9506 59.5081 15.4011 60.3232 15.9131 61.0773C16.2818 61.7091 16.6504 62.3204 17.06 62.9318C16.9576 62.9114 16.8962 62.9114 16.8348 62.9726C16.7938 63.0133 16.7733 63.0337 16.7733 63.0949C16.4866 62.7076 16.1999 62.3001 15.9541 61.9128C15.4626 61.0977 14.9506 60.2417 14.5205 59.3858C14.5819 59.4265 14.6024 59.4062 14.5205 59.2431C14.5 59.1412 14.4386 59.019 14.3566 58.8763C14.3157 58.7336 14.2338 58.6114 14.1928 58.5299C14.1518 58.4687 14.1314 58.4076 14.0904 58.4076C14.0904 58.4483 14.1109 58.4891 14.1314 58.5706C13.2917 56.7976 12.5749 54.9227 12.0424 53.007C11.6533 51.5601 11.4075 50.1131 11.2232 48.6458C10.8955 45.9965 10.834 43.3471 11.0184 40.7997L11.1208 39.8215L11.1617 39.3528L11.2232 38.8433L11.3461 37.8447C11.4075 37.5186 11.4894 37.1925 11.5304 36.8665C11.6328 36.2958 11.7557 35.7252 11.8785 35.175C11.9195 35.175 11.9605 35.1546 12.0014 35.1138C12.1653 35.0119 12.3496 34.7266 12.5749 34.2986C12.4315 34.7062 12.3086 35.1342 12.1857 35.5622C12.0424 36.0309 11.94 36.4996 11.8376 36.9887L11.6942 37.702L11.5713 38.4357C11.4894 38.9044 11.428 39.3935 11.3665 39.8419C11.1617 41.6556 11.1208 43.4898 11.2232 45.3239C11.3256 47.1377 11.5713 48.9719 11.9809 50.7856C12.3905 52.5587 12.9845 54.3521 13.7422 56.0436L13.9061 56.5123L13.9266 56.553C13.947 56.6753 13.9675 56.8995 14.0494 57.1644C14.2338 57.6535 14.5 58.3261 14.8277 59.0393ZM16.7528 33.6261C16.8348 33.3612 16.9372 33.0963 17.0396 32.8313C16.9576 33.0963 16.8757 33.3612 16.8348 33.6261H16.7528ZM9.68716 34.1356C9.72812 33.9318 9.76908 33.7484 9.81004 33.5446L9.9534 32.9536C10.0353 32.5868 10.1172 32.2403 10.1992 31.8735C10.5268 30.8341 10.916 29.8152 11.3256 28.8369C11.5304 28.3682 11.7557 27.7976 11.8171 27.5123C11.8581 27.2881 11.7147 27.4715 11.4894 27.9403C11.4075 28.144 11.3256 28.3071 11.2437 28.4905C11.2437 28.4497 11.2846 28.409 11.2846 28.3682L11.7147 27.2881C11.7761 27.1047 11.8376 26.9213 11.9195 26.7379L12.1448 26.1876C12.4725 25.3928 12.8616 24.6388 13.2712 23.8847C13.3326 23.7625 13.3941 23.6606 13.4965 23.5383C13.5989 23.3752 13.5374 23.7013 13.7218 23.4364C13.8242 23.2937 13.9266 23.1715 14.029 23.0288C13.9061 23.253 13.7218 23.4975 13.5784 23.7217C13.435 23.9663 13.2712 24.2516 13.1074 24.4961C12.1653 26.5952 11.9195 27.4511 11.7147 28.0014C11.7147 28.0218 11.7147 28.0218 11.6942 28.0218C11.6942 28.0218 11.6942 28.0218 11.6533 28.1848C11.5713 28.4497 11.4894 28.6739 11.387 29C11.387 29 11.387 29 11.4075 29C11.3665 29.0611 11.3461 29.1426 11.3256 29.2242C11.2027 29.5502 11.1003 29.8763 10.9569 30.2024C10.8136 30.5692 10.7316 30.936 10.6907 31.0991C10.6497 31.2213 10.5678 31.3436 10.4859 31.5067C10.1787 32.4237 10.0558 32.9128 9.91244 33.3816C9.851 33.6057 9.76908 33.8707 9.68716 34.156C9.6462 34.3802 9.56428 34.6451 9.48235 34.9916C9.56428 34.7062 9.62572 34.4209 9.68716 34.1356ZM8.43786 43.7343L8.47882 43.8566L8.43786 43.4694L8.41738 43.0618L8.37642 42.2263C8.41738 42.1651 8.4993 42.1447 8.51978 42.2059C8.45834 41.9817 8.41738 41.7372 8.3969 41.4518C8.37642 41.2277 8.37642 41.0239 8.37642 40.7997C8.41738 40.494 8.47882 40.1476 8.51978 39.74C8.58122 39.2712 8.64266 38.7414 8.72459 38.1504C8.76555 37.8039 8.82699 37.4575 8.84747 37.1314C8.86795 37.0906 8.88843 37.0091 8.88843 36.948C9.03179 36.3366 9.17515 35.7456 9.31851 35.1953L9.35947 35.3176V35.338C9.35947 35.338 9.42091 35.338 9.44139 35.2769C9.44139 35.3176 9.40043 35.501 9.35947 35.766C9.31851 36.0309 9.25707 36.3977 9.19563 36.7646C9.15467 37.1518 9.11371 37.3352 9.07275 37.6613C9.03179 37.967 8.94987 38.4153 8.84747 39.2509C8.86795 39.2101 8.86795 39.1897 8.88843 39.1286C8.88843 39.1693 8.88843 39.2101 8.86795 39.2305C8.86795 39.2305 8.90891 39.1897 8.97035 39.1082C8.94987 39.1693 8.90891 39.2305 8.82699 39.3935C8.82699 39.3935 8.82699 39.3935 8.84747 39.4547C8.86795 39.4954 8.86795 39.5769 8.90891 39.74C8.90891 39.74 8.90891 39.74 8.51978 41.2888C8.4993 41.4111 8.51978 41.6964 8.51978 42.4301C8.51978 42.4301 8.56074 42.6339 8.58122 42.7765C8.60171 42.7969 8.62218 42.7969 8.64267 43.0618V43.2045C8.54026 45.059 8.58122 46.9951 8.76555 48.9311C8.56074 47.2192 8.41738 45.4462 8.43786 43.7343ZM20.3983 69.9016C20.1526 69.7182 19.9273 69.5959 19.7634 69.5144C19.6201 69.4533 19.5381 69.4329 19.4972 69.4736C19.2514 69.2495 19.0057 69.0049 18.7599 68.7807C17.7564 67.7618 16.7733 66.7224 15.9336 65.5811C14.1928 63.3802 12.8002 60.9754 11.8376 58.5095C11.8171 58.2445 11.7147 57.8981 11.5509 57.4701C11.4075 57.0625 11.2437 56.5734 11.0798 56.1047C10.8955 55.6563 10.7726 55.1876 10.6702 54.78C10.5678 54.3724 10.5268 54.0464 10.5268 53.8222C10.0558 52.9051 9.66668 51.9065 9.35947 50.9079C8.94987 48.2994 8.82699 45.7315 8.94987 43.2249V43.2045C8.97035 43.1637 8.99083 43.1637 9.01131 43.1637C9.01131 43.1637 9.05227 42.9395 9.09323 42.6339C9.11371 42.4912 9.13419 42.4097 9.13419 42.2059C9.17515 42.0021 9.17515 41.7372 9.25707 41.1869C9.25707 41.2684 9.27755 41.3703 9.29803 41.4518C9.46187 41.6556 9.48236 41.6556 9.87148 40.7182C9.81004 41.9206 9.78956 43.1637 9.81004 44.4272C9.9534 48.6866 10.7112 52.9663 12.3701 57.0014C13.9266 60.8939 16.3842 64.5418 19.5586 67.4561C19.661 67.5783 19.7839 67.7006 19.8863 67.8433C19.149 67.1707 18.6575 66.7632 18.4937 66.8039C18.3298 66.8447 18.5551 67.3134 19.0261 68.0063C15.3602 64.1138 12.5749 59.4673 10.8341 54.5355C10.7316 54.2502 10.6497 54.0871 10.6497 54.2094C10.6497 54.3113 10.7316 54.6374 10.8545 54.9227C12.8002 60.7308 16.1794 65.9072 20.5417 70.0443C20.4802 69.9627 20.4598 69.9424 20.3983 69.9016ZM22.5487 42.1244L19.9068 39.4954L22.5487 42.1244ZM22.5692 61.6683C22.5487 61.5664 22.5487 61.4645 22.5487 61.3626C22.5487 61.4034 22.5692 61.4645 22.5692 61.5053V61.6683ZM22.774 64.0934C22.774 64.0934 22.7126 63.7674 22.6511 62.9114C22.6716 63.319 22.7126 63.7062 22.774 64.0934C22.7945 64.1342 22.7945 64.1953 22.815 64.2565C22.7945 64.1953 22.7945 64.1546 22.774 64.0934ZM20.8284 15.6718C20.4393 15.9775 20.1116 16.3647 19.743 16.6908C19.3948 17.0372 19.0876 17.4244 18.7599 17.7709C18.5551 17.9543 18.3503 18.1173 18.125 18.3008C17.9202 18.4842 17.6949 18.688 17.4696 18.8918C17.2648 19.0956 17.0191 19.2994 16.8143 19.5235C16.589 19.7681 16.3432 20.0126 16.0975 20.2979C17.613 18.3823 19.5177 16.3647 21.5042 14.7344C23.2041 13.3485 24.9859 12.1665 26.8701 11.1272C27.0544 11.0457 27.2592 10.9641 27.4435 10.8826C27.3206 10.9641 27.2182 11.0253 27.1568 11.1068C27.1773 11.1068 27.2182 11.1068 27.2387 11.0864C25.0064 12.35 22.8355 13.858 20.8284 15.6718ZM24.6582 69.331C24.4739 69.0253 24.31 68.7196 24.1872 68.3935C24.3305 68.6992 24.4944 69.0049 24.6582 69.2902C24.8016 69.5144 24.9244 69.7589 25.0678 69.9831C24.9244 69.7793 24.8016 69.5552 24.6582 69.331ZM27.3616 64.1138L27.4026 64.0934L27.3616 64.1138ZM26.5424 26.6767C26.399 26.9009 26.2761 27.1047 26.1533 27.3289C26.0918 27.4715 26.0304 27.6346 25.9485 27.7976C25.887 27.8791 25.8051 27.981 25.7232 28.0829C25.2521 28.3886 24.7401 28.7758 24.2896 29.3464C24.8016 28.4905 25.3545 27.553 25.9689 26.6971C26.3581 26.3099 26.7267 25.9023 27.1363 25.5355C27.5664 25.1075 28.0374 24.6999 28.5085 24.2923C27.7712 25.026 27.1158 25.8208 26.5424 26.6767ZM34.9598 41.3703C35.0007 41.0443 35.0826 40.7182 35.1646 40.3717C35.2465 40.1476 35.3284 39.903 35.4103 39.6585C35.4103 39.8011 35.4308 39.9234 35.4513 40.1068C35.4513 40.1476 35.4718 40.1883 35.4718 40.2087C35.4513 40.3921 35.4103 40.5755 35.3694 40.7589C35.3694 40.8405 35.3489 40.9016 35.3489 40.9627C35.267 41.2073 35.2055 41.4518 35.1236 41.7168L34.9598 41.5537V41.3703ZM35.6151 77.014L34.0996 76.5861L35.6151 77.014ZM35.3694 37.5186C35.3489 38.1911 35.3489 38.6395 35.3694 38.9655C35.3284 39.0674 35.2874 39.149 35.2465 39.2509C35.1646 39.149 35.0417 39.2509 34.9598 39.5158C34.9598 39.5158 34.9393 39.5158 34.9393 39.5362V37.6001C35.0212 37.3759 35.1441 37.1314 35.2465 36.9276C35.2874 36.8257 35.4308 37.0295 35.5332 36.8868C35.6151 36.8257 35.6561 36.7442 35.697 36.6627C35.5946 36.9072 35.4922 37.1722 35.3694 37.5186ZM42.0459 80.3359C41.8002 80.1729 41.5544 80.0098 41.3291 79.806C41.7387 80.0506 42.1688 80.2748 42.5784 80.4989C42.3941 80.4378 42.2098 80.397 42.0459 80.3359ZM44.7084 79.0316C42.1688 78.9093 39.6292 78.5425 37.1511 77.8904L38.5233 77.8496L39.2606 77.9923C39.7521 78.0942 40.2641 78.1349 40.7761 78.2164C41.1858 78.2979 41.6363 78.3591 42.0664 78.4202C42.4965 78.461 42.9266 78.5425 43.3976 78.5629C43.6434 78.7055 44.1759 78.8686 44.9132 79.0112H44.7084V79.0316ZM46.9817 82.435C47.0021 82.435 47.0431 82.4554 47.0841 82.4554C47.2069 82.4961 47.3298 82.5573 47.4732 82.598C47.3093 82.5573 47.1455 82.4757 46.9817 82.435ZM60.13 20.5833C60.1095 20.5425 60.089 20.5017 60.089 20.461C60.089 20.5017 60.13 20.5425 60.13 20.5833ZM71.4555 64.5214C71.476 64.501 71.4965 64.4603 71.4965 64.4399C71.517 64.4399 71.517 64.4399 71.5374 64.4195C71.517 64.4399 71.4965 64.4807 71.4555 64.5214ZM72.2338 31.4048C72.1109 31.1806 71.9266 30.6711 71.8651 31.0176C71.2098 29.2242 70.3496 27.4511 69.2641 25.78C69.3461 25.9023 69.428 25.9838 69.5099 26.0857C70.0629 26.7582 70.5749 27.4715 71.0459 28.1848C71.6398 29.5095 72.1314 30.8138 72.5615 32.1792C72.4181 31.9142 72.3362 31.6493 72.2338 31.4048ZM85.2797 44.468C85.2387 44.3661 85.1978 44.2438 85.1568 44.1623C85.2182 43.2656 85.1773 42.3485 85.1568 41.4518C85.1158 40.4736 85.0544 39.5158 84.9315 38.558L85.0544 39.4139C85.0954 39.7196 85.1158 40.0049 85.1363 40.2902C85.1978 40.8608 85.2592 41.4518 85.2592 42.0225C85.3002 42.5931 85.3002 43.2045 85.3002 43.7751L85.2797 44.468Z" fill="#2E4121"/>
<path d="M52.3048 18.9251C52.2234 17.7965 51.9792 16.668 51.518 15.5907C50.4058 15.1803 49.185 14.9238 47.9913 14.8468C44.6816 14.6417 41.3176 15.7189 38.7947 18.1043C36.2717 20.4897 35.1323 23.6959 35.3493 26.8251C35.4307 27.9537 35.702 29.0822 36.1361 30.1339C37.2755 30.5699 38.442 30.8007 39.6357 30.9033C42.9454 31.1342 46.3365 30.0313 48.8594 27.6459C51.3824 25.2348 52.5218 22.0543 52.3048 18.9251ZM38.3606 28.0306C37.7095 25.2605 38.5505 22.2082 40.8293 20.0537C43.1353 17.8735 46.3365 17.104 49.2664 17.7196C49.9174 20.5154 49.1036 23.542 46.7976 25.6965C44.5188 27.8767 41.2905 28.6462 38.3606 28.0306Z" fill="white"/>
<path d="M71.9549 47.4342V44.8701H57.7756V42.0752H65.8629V39.5111H57.7756V33.5111H24.203V62.5111H57.7756V53.0752H63.1228V50.5111H57.7756V47.4342H71.9549ZM55.1154 50.5111H44.2615V53.0752H55.0888V59.947H26.8633V36.0752H55.1154V39.5111H47.0281V42.0752H55.1154V44.8701H53.1202V47.4342H55.1154V50.5111Z" fill="white"/>
</svg>
