<svg width="1202" height="561" viewBox="0 0 1202 561" fill="none" xmlns="http://www.w3.org/2000/svg">
<path d="M334.963 112.448C341.403 114.723 348.216 116.203 355.244 116.443C360.192 111.594 364.267 105.913 367.513 99.9155C376.351 83.2469 378.227 62.9429 370.88 44.0066C363.512 24.9879 348.429 11.2107 330.6 4.88401C324.263 2.49465 317.399 1.15988 310.536 0.877584C305.547 5.7368 301.44 11.2942 298.236 17.2813C289.285 34.0226 287.408 54.3266 294.776 73.3453C302.082 92.2921 317.113 106.039 334.963 112.448ZM317.009 17.5782C333.921 20.978 348.783 32.6615 355.433 49.8877C362.094 67.1551 358.94 85.7203 348.688 99.5879C331.735 96.1985 316.842 84.5668 310.181 67.2994C303.573 50.0627 306.758 31.4458 317.009 17.5782Z" fill="#C7E0BB" fill-opacity="0.55"/>
<path d="M3.79922 557.144C-24.74 548.738 -45.5395 526.375 -53.315 499.628C-32.5299 481.398 -3.06544 473.855 25.4695 482.239C54.0576 490.659 74.7817 512.989 82.5847 539.639C61.7722 557.966 32.3873 565.564 3.79922 557.144Z" fill="#C7E0BB"/>
<path d="M1017.04 452.786C1016.69 456.804 1016.84 460.917 1017.74 464.972C1021.24 467.088 1025.09 468.582 1029 469.555C1039.83 472.156 1051.72 470.241 1061.47 463.252C1071.26 456.239 1076.92 445.586 1077.91 434.459C1078.34 430.484 1078.1 426.362 1077.25 422.396C1073.73 420.258 1069.95 418.727 1066.06 417.776C1055.17 415.121 1043.28 417.037 1033.49 424.049C1023.73 431.016 1018.08 441.635 1017.04 452.786ZM1068.65 428.556C1069.19 438.727 1064.7 448.946 1055.83 455.284C1046.93 461.634 1035.85 462.563 1026.41 458.742C1025.86 448.548 1030.32 438.319 1039.21 431.969C1048.1 425.653 1059.21 424.734 1068.65 428.556Z" fill="#C7E0BB"/>
<path d="M1192.77 181.67C1179.17 208.129 1153.31 224.372 1125.58 227C1111.56 203.168 1109.67 172.812 1123.25 146.353C1136.88 119.848 1162.69 103.673 1190.33 101C1204.44 124.877 1206.4 155.165 1192.77 181.67Z" fill="#C7E0BB"/>
<path d="M315.072 447.896C307.807 461.966 293.994 470.603 279.183 472C271.699 459.328 270.688 443.186 277.942 429.116C285.219 415.022 299.008 406.421 313.77 405C321.303 417.697 322.35 433.802 315.072 447.896Z" fill="#C7E0BB"/>
<path d="M180.341 241.501C198.821 251.085 210.165 269.306 212 288.844C195.356 298.717 174.155 300.049 155.675 290.481C137.164 280.881 125.867 262.692 124 243.218C140.676 233.281 161.83 231.9 180.341 241.501Z" fill="#C7E0BB"/>
<path d="M589.226 340.189C589.226 340.189 646.18 386.251 653.725 414.147C660.365 438.689 692.78 497.052 744.331 491.339C795.881 485.597 820.872 510.622 859.927 471.513C898.983 432.403 830.772 380.78 827.633 338.013C824.494 295.246 824.494 270.221 784.412 267.622C744.331 265.022 703.193 281.162 661.029 244.138C618.865 207.113 574.8 207.597 550.624 239.967C534.114 262.03 530.13 294.037 589.226 340.189Z" fill="#C8E1BC"/>
</svg>