<svg width="419" height="331" viewBox="0 0 419 331" fill="none" xmlns="http://www.w3.org/2000/svg">
<path d="M49.2265 177.189C49.2265 177.189 106.18 223.251 113.725 251.147C120.365 275.689 152.78 334.052 204.331 328.339C255.881 322.597 280.872 347.622 319.927 308.513C358.983 269.403 290.772 217.78 287.633 175.013C284.494 132.246 284.494 107.221 244.412 104.622C204.331 102.022 163.193 118.162 121.029 81.1377C78.8651 44.1133 34.7996 44.5969 10.624 76.9667C-5.88548 99.0302 -9.86948 131.037 49.2265 177.189Z" fill="#C8E1BC"/>
<path d="M135.999 124.172L136.308 123.79L136.301 123.784C106.789 100.737 93.1104 81.2815 88.8235 64.9073C84.5454 48.5667 89.5988 35.2034 97.7909 24.2553L97.7912 24.255C109.784 8.19767 126.691 0.0612504 145.836 0.518239C164.996 0.975606 186.445 10.044 207.466 28.5024C228.652 47.1065 249.596 52.3557 270.246 53.2776C280.152 53.7198 289.994 53.1664 299.747 52.618C300.147 52.5955 300.548 52.573 300.948 52.5505C311.103 51.9813 321.161 51.4621 331.147 52.1096C341.119 52.7564 348.549 54.7955 354.145 58.1216C359.73 61.4421 363.522 66.066 366.187 71.9499C368.858 77.8459 370.397 85.0066 371.462 93.3899C372.345 100.333 372.899 108.085 373.51 116.623C373.637 118.395 373.766 120.2 373.901 122.039C374.694 132.843 379.59 144.166 385.822 155.643C388.931 161.368 392.382 167.146 395.833 172.927L395.865 172.981C399.33 178.783 402.795 184.587 405.93 190.362C412.205 201.92 417.125 213.3 418.068 224.2C419.007 235.066 415.996 245.479 406.34 255.148C396.615 264.887 387.788 270.61 379.229 273.823C370.671 277.036 362.346 277.751 353.6 277.428C347.959 277.219 342.174 276.582 336.038 275.905C332.632 275.53 329.117 275.142 325.46 274.81C315.24 273.881 303.975 273.391 291.042 274.832C265.488 277.663 244.643 264.622 229.323 247.742C214.001 230.858 204.274 210.204 200.974 198.006C199.061 190.933 194.036 182.759 187.625 174.505C181.207 166.24 173.363 157.85 165.764 150.341C158.164 142.83 150.801 136.193 145.338 131.434C142.607 129.055 140.35 127.144 138.776 125.828C137.989 125.171 137.372 124.661 136.952 124.316C136.742 124.144 136.581 124.012 136.473 123.924L136.35 123.824L136.318 123.798L136.31 123.792L136.308 123.79C136.308 123.79 136.308 123.79 135.999 124.172Z" stroke="#E2F1D8"/>
</svg>
